<?xml version="1.0" standalone="no"?>
<!DOCTYPE svg PUBLIC "-//W3C//DTD SVG 1.1//EN" "http://www.w3.org/Graphics/SVG/1.1/DTD/svg11.dtd" >
<svg xmlns="http://www.w3.org/2000/svg" xmlns:xlink="http://www.w3.org/1999/xlink" version="1.1">
<metadata>
Created by FontForge 20170731 at Fri Oct  2 19:30:31 2020
 By Aleksey,,,
Copyright 2011 The Alegreya Project Authors (https://github.com/huertatipografica/Alegreya)
</metadata>
<defs>
<font id="Alegreya-Medium" horiz-adv-x="0" >
  <font-face 
    font-family="Alegreya Medium"
    font-weight="500"
    font-stretch="normal"
    units-per-em="1000"
    panose-1="0 0 0 0 0 0 0 0 0 0"
    ascent="800"
    descent="-200"
    x-height="460"
    cap-height="647"
    bbox="-209 -304 1256 982"
    underline-thickness="75"
    underline-position="-313"
    unicode-range="U+000D-FB02"
  />
<missing-glyph horiz-adv-x="641" 
d="M641 -109l-658 658l16 16l658 -658zM-1 -109l-16 16l658 658l16 -16z" />
    <glyph glyph-name="Idieresis" unicode="&#xa8;I" horiz-adv-x="363" 
d="M48 -11l6 54q46 9 61.5 26.5t15.5 59.5l1 404q0 32 -7.5 43t-29.5 11q-7 0 -18.5 -0.5t-20.5 -1.5l-3 6l7 50q29 0 65.5 -1t62.5 -1q20 0 55 2.5t72 5.5l-5 -54q-40 -5 -53.5 -16t-15.5 -40q-3 -52 -5.5 -110t-4 -115.5t-2.5 -107t-1 -83.5q0 -40 8.5 -54t32.5 -14
q13 0 26.5 1t22.5 2l3 -5l-9 -54q-20 1 -46 1.5t-51 1t-41 0.5q-23 0 -58 -3t-68 -8zM263 709q-24 0 -36.5 15t-12.5 35q0 25 16 41.5t41 16.5q24 0 36.5 -14.5t12.5 -36.5q0 -24 -15.5 -40.5t-41.5 -16.5zM92 709q-24 0 -36.5 15t-12.5 35q0 25 15.5 41.5t41.5 16.5
q24 0 36.5 -14.5t12.5 -36.5q0 -24 -16 -40.5t-41 -16.5z" />
    <glyph glyph-name="Odieresis" unicode="&#xa8;O" horiz-adv-x="684" 
d="M316 -12q-85 0 -148 38.5t-98 109t-35 164.5q0 76 24 140t68.5 111.5t104.5 73.5t131 26q88 0 152 -38.5t99.5 -108t35.5 -163.5q0 -77 -25 -141.5t-69.5 -111.5t-105.5 -73.5t-134 -26.5zM345 54q57 0 98.5 29.5t65 83.5t23.5 127q0 88 -25 150.5t-69.5 96.5t-105.5 34
q-55 0 -96 -29.5t-63.5 -83t-22.5 -126.5q0 -87 24 -150t68 -97.5t103 -34.5zM420 709q-24 0 -36.5 15t-12.5 35q0 25 16 41.5t41 16.5q24 0 36.5 -14.5t12.5 -36.5q0 -24 -15.5 -40.5t-41.5 -16.5zM249 709q-24 0 -36.5 15t-12.5 35q0 25 15.5 41.5t41.5 16.5
q24 0 36.5 -14.5t12.5 -36.5q0 -24 -16 -40.5t-41 -16.5z" />
    <glyph glyph-name="Yacute" unicode="&#xb4;Y" horiz-adv-x="564" 
d="M141 -11l6 55q37 6 55 16.5t23 30.5t5 55v38q0 28 -5.5 51t-23.5 58l-93 186q-18 36 -32 58.5t-33.5 34t-55.5 16.5l-2 4l7 50l12 -0.5t30.5 -1t39 -1t36.5 -0.5q20 0 45.5 1t49.5 3t39.5 3l15.5 1l4 -8l-5 -45q-40 -3 -54 -10t-14 -24q0 -8 9.5 -33t24 -57.5t29 -64.5
t25.5 -54.5t12 -25.5h7l99 192q15 29 15 49q0 12 -14 18.5t-44 8.5l-2 4l7 47q5 0 26.5 -1t48 -2.5t45.5 -1.5q22 0 44 1t37.5 2l15.5 1l4 -7l-7 -48q-31 -7 -50.5 -21t-35.5 -39t-41 -69l-98 -177q-9 -18 -13.5 -37.5t-5.5 -48t-1 -75.5q-1 -38 8.5 -52.5t36.5 -14.5
q16 0 32.5 1.5l16.5 1.5l3 -5l-9 -56l-15.5 1t-38.5 1.5t-47.5 1t-42.5 0.5q-20 0 -42.5 -2t-43 -4t-33 -3.5zM247 701l-11 6l-9 34q38 18 75 37t67.5 34.5t49 25.5l18.5 10l10 -6l20 -60l-5 -11l-18 -6t-48.5 -15.5t-69.5 -22t-79 -26.5z" />
    <glyph glyph-name="idieresis" unicode="&#xa8;i" horiz-adv-x="287" 
d="M36 -12l6 51q30 7 43 22.5t13 41.5v237q0 29 -9 42t-30 13q-7 0 -15.5 -2l-8.5 -2l4 46q30 5 59 10t53 10t38.5 8l14.5 3l7 -14q-5 -10 -9.5 -43t-7.5 -81.5t-4.5 -107t-1.5 -121.5q0 -26 7.5 -38t25.5 -12q8 0 20 1l12 1l2 -5l-9 -51l-9.5 0.5t-24.5 1t-32 1t-32 0.5
q-23 0 -49 -3t-44.5 -6zM211 536q-23 0 -35.5 14.5t-12.5 34.5q0 24 15.5 40t40.5 16q23 0 35.5 -14t12.5 -35q0 -23 -15.5 -39.5t-40.5 -16.5zM62 536q-23 0 -35.5 14.5t-12.5 34.5q0 24 15.5 40t40.5 16q23 0 35.5 -14t12.5 -35q0 -23 -16 -39.5t-40 -16.5z" />
    <glyph glyph-name="odieresis" unicode="&#xa8;o" horiz-adv-x="500" 
d="M236 -12q-60 0 -105.5 28t-71 79t-25.5 118q0 74 30.5 131.5t84.5 90.5t121 33q61 0 106.5 -28t70.5 -78.5t25 -118.5q0 -73 -30.5 -131t-84 -91t-121.5 -33zM260 49q50 0 78.5 40.5t28.5 113.5q0 61 -15.5 105.5t-43 68.5t-65.5 24q-49 0 -77.5 -41t-28.5 -114
q0 -62 15 -106t43 -67.5t65 -23.5zM334 549q-24 0 -36.5 15t-12.5 35q0 24 16 41t41 17q24 0 36.5 -14.5t12.5 -36.5q0 -24 -15.5 -40.5t-41.5 -16.5zM163 549q-24 0 -36.5 15t-12.5 35q0 24 15.5 41t41.5 17q24 0 36.5 -14.5t12.5 -36.5q0 -24 -16 -40.5t-41 -16.5z" />
    <glyph glyph-name="yacute" unicode="&#xb4;y" horiz-adv-x="454" 
d="M43 -241q-5 0 -14.5 8t-19 19.5t-16.5 22.5t-7 17l6 10q61 2 109.5 45t82.5 115l-22.5 67.5t-27 78.5t-28.5 82t-27 77t-24 62q-10 25 -25.5 35t-38.5 11l-2 4l6 44h18t33.5 -0.5t29.5 -0.5q24 0 47.5 1t43 2.5t31.5 2.5l12 1l2 -5l-7 -43q-31 -1 -42 -6.5t-11 -18.5
q0 -9 6 -32.5t15 -55t19 -65t19 -62t15 -46.5l6 -18h6q17 40 35 85t33.5 86t26 70t10.5 36q0 13 -8 18.5t-27 5.5h-40l-2 4l7 44l16 -1t40 -2t48 -1q17 0 36 0.5t33.5 0.5h18.5l-7 -48q-22 -4 -33 -15t-21 -38l-127 -306q-35 -84 -63.5 -140.5t-55 -90t-54 -47.5t-61.5 -13z
M199 521l-11 3l-25 27q28 30 55.5 60.5t50.5 56t36.5 41.5l13.5 16l11 -2l46 -52l-1 -12l-25.5 -19t-66 -50.5t-84.5 -68.5z" />
    <glyph glyph-name="Itilde" unicode="&#x7e;I" horiz-adv-x="363" 
d="M48 -11l6 54q46 9 61.5 26.5t15.5 59.5l1 404q0 32 -7.5 43t-29.5 11q-7 0 -18.5 -0.5t-20.5 -1.5l-3 6l7 50q29 0 65.5 -1t62.5 -1q20 0 55 2.5t72 5.5l-5 -54q-40 -5 -53.5 -16t-15.5 -40q-3 -52 -5.5 -110t-4 -115.5t-2.5 -107t-1 -83.5q0 -40 8.5 -54t32.5 -14
q13 0 26.5 1t22.5 2l3 -5l-9 -54q-20 1 -46 1.5t-51 1t-41 0.5q-23 0 -58 -3t-68 -8zM40 709l-30 28v8l77 94l16 4q13 0 33.5 -5t43 -11.5t42 -11.5t29.5 -5q9 0 19.5 8.5t21 19t17 19l6.5 8.5h8l30 -28v-7l-77 -94l-17 -4q-12 0 -32.5 5t-43 11.5t-41.5 11.5t-30 5
q-9 0 -20.5 -8.5t-21 -19t-16 -19.5l-6.5 -9h-8z" />
    <glyph glyph-name="itilde" unicode="&#x7e;i" horiz-adv-x="287" 
d="M36 -12l6 51q30 7 43 22.5t13 41.5v237q0 29 -9 42t-30 13q-7 0 -15.5 -2l-8.5 -2l4 46q30 5 59 10t53 10t38.5 8l14.5 3l7 -14q-5 -10 -9.5 -43t-7.5 -81.5t-4.5 -107t-1.5 -121.5q0 -26 7.5 -38t25.5 -12q8 0 20 1l12 1l2 -5l-9 -51l-9.5 0.5t-24.5 1t-32 1t-32 0.5
q-23 0 -49 -3t-44.5 -6zM0 542l-30 28v8l77 94l16 4q13 0 33.5 -5t43 -11.5t42 -11.5t29.5 -5q9 0 19.5 8.5t21 19t17 19l6.5 8.5h8l30 -28v-7l-77 -94l-17 -4q-12 0 -32.5 5t-43 11.5t-41.5 11.5t-30 5q-9 0 -20.5 -8.5t-21 -19t-16 -19.5l-6.5 -9h-8z" />
    <glyph glyph-name="Utilde" unicode="&#x7e;U" horiz-adv-x="670" 
d="M322 -12q-109 0 -166.5 56t-57.5 163v326q0 32 -6.5 43t-28.5 11q-9 0 -21 -1l-12 -1l-2 4l7 53l22.5 -1t51.5 -1.5t53 -0.5q15 0 34.5 1.5t36.5 2.5t28.5 2.5l11.5 1.5l-6 -55q-34 -4 -46.5 -15.5t-13.5 -39.5l-8 -293q0 -89 38.5 -137t110.5 -48t110 39t38 114
q0 20 -0.5 58.5t-1.5 83.5t-1.5 85.5t-1 67l-0.5 26.5q-2 34 -8 44t-27 10q-9 0 -24 -1l-15 -1l-2 4l8 53l12 -0.5t30.5 -1t38 -1t33.5 -0.5q24 0 48.5 1.5t41.5 4l17 2.5l-5 -54q-40 -7 -52.5 -16.5t-12.5 -38.5v-325q0 -108 -65.5 -166.5t-186.5 -58.5zM190 717l-30 28v8
l77 94l16 4q13 0 33.5 -5t43 -11.5t42 -11.5t29.5 -5q9 0 19.5 8.5t21 19t17 19l6.5 8.5h8l30 -28v-7l-77 -94l-17 -4q-12 0 -32.5 5t-43 11.5t-41.5 11.5t-30 5q-9 0 -20.5 -8.5t-21 -19t-16 -19.5l-6.5 -9h-8z" />
    <glyph glyph-name="utilde" unicode="&#x7e;u" horiz-adv-x="543" 
d="M83 342q0 26 -8.5 39t-26.5 13q-9 0 -17.5 -1.5l-8.5 -1.5l5 46q27 4 55 9.5t52 10.5t39 8l15 3l7 -14q-5 -13 -9.5 -43t-8.5 -71t-6 -86.5t-2 -90.5q0 -90 72 -90q29 0 56 16.5t50 31.5v220q0 30 -10 41t-38 11q-3 0 -11.5 -0.5l-8.5 -0.5l5 46q30 4 59.5 9t54 9.5
t40 7.5l15.5 3l7 -14q-6 -15 -11.5 -65t-9 -121.5t-3.5 -149.5q0 -21 10.5 -32.5t27.5 -11.5q15 0 27 5.5t20 11l8 5.5l15 -18l-9 -13t-23.5 -30t-31 -30.5t-31.5 -15.5q-86 0 -95 79l-6 3q-44 -36 -79 -59t-48 -23q-69 0 -106 31t-37 90zM129 542l-30 28v8l77 94l16 4
q13 0 33.5 -5t43 -11.5t42 -11.5t29.5 -5q9 0 19.5 8.5t21 19t17 19l6.5 8.5h8l30 -28v-7l-77 -94l-17 -4q-12 0 -32.5 5t-43 11.5t-41.5 11.5t-30 5q-9 0 -20.5 -8.5t-21 -19t-16 -19.5l-6.5 -9h-8z" />
    <glyph glyph-name="uni1EBC" unicode="&#x7e;E" horiz-adv-x="593" 
d="M49 -10l6 55q44 6 60 24t16 61l1 403q0 32 -6.5 43t-28.5 11q-6 0 -15.5 -0.5t-17.5 -1.5l-4 6l8 51q20 0 47.5 -1t57 -1.5t53.5 -0.5q77 0 132.5 1t96.5 4t73 7l5 -8q-5 -25 -10 -55.5t-8 -61t-5 -56.5l-67 -5q1 9 1.5 22t0.5 20q0 23 -4 36.5t-18 20t-42.5 9t-76.5 2.5
q-29 0 -42 -2t-16.5 -10t-4.5 -25l-10 -226l-3 -193q0 -26 4.5 -39t19.5 -17t48 -4q54 0 87 4t50.5 16t26 36t13.5 63l62 6l5 -7q-8 -34 -15.5 -84t-12.5 -92l-7 -8q-57 2 -116 3.5t-109 2.5t-81 1q-34 0 -77.5 -2.5t-76.5 -7.5zM218 287l8 74h26t41 -0.5t39 -0.5t52 3t68 7
l5 -7l-14 -71q-27 1 -67 2t-68 1q-21 0 -46 -2.5t-44 -5.5zM173 694l-30 28v7l77 87l17 4q12 0 32.5 -5.5t43 -12t42 -11.5t29.5 -5q9 0 20 7.5t21 16.5t16.5 16.5l6.5 7.5h8l30 -28v-7l-77 -86l-16 -4q-13 0 -33.5 5t-42.5 11.5t-41.5 11.5t-30.5 5q-9 0 -20 -7.5
t-21 -16.5t-16.5 -16.5l-6.5 -7.5h-8z" />
    <glyph glyph-name="uni1EBD" unicode="&#x7e;e" horiz-adv-x="454" 
d="M249 -12q-66 0 -115 28t-76 78.5t-27 118.5q0 53 18 99t49.5 81t72.5 55t88 20q158 0 158 -156q0 -14 -2.5 -29t-4.5 -24l-12 -11h-268q0 -80 32 -126t90.5 -52t137.5 30l6 -3l14 -38q-21 -15 -49.5 -31.5t-58 -28t-53.5 -11.5zM132 293l161 8q13 2 17.5 6.5t4.5 18.5
q0 39 -19 59t-55 20q-43 0 -72.5 -29.5t-36.5 -82.5zM113 542l-30 28v8l77 94l16 4q13 0 33.5 -5t43 -11.5t42 -11.5t29.5 -5q9 0 19.5 8.5t21 19t17 19l6.5 8.5h8l30 -28v-7l-77 -94l-17 -4q-12 0 -32.5 5t-43 11.5t-41.5 11.5t-30 5q-9 0 -20.5 -8.5t-21 -19t-16 -19.5
l-6.5 -9h-8z" />
    <glyph glyph-name="uni1EF8" unicode="&#x7e;Y" horiz-adv-x="564" 
d="M141 -11l6 55q37 6 55 16.5t23 30.5t5 55v38q0 28 -5.5 51t-23.5 58l-93 186q-18 36 -32 58.5t-33.5 34t-55.5 16.5l-2 4l7 50l12 -0.5t30.5 -1t39 -1t36.5 -0.5q20 0 45.5 1t49.5 3t39.5 3l15.5 1l4 -8l-5 -45q-40 -3 -54 -10t-14 -24q0 -8 9.5 -33t24 -57.5t29 -64.5
t25.5 -54.5t12 -25.5h7l99 192q15 29 15 49q0 12 -14 18.5t-44 8.5l-2 4l7 47q5 0 26.5 -1t48 -2.5t45.5 -1.5q22 0 44 1t37.5 2l15.5 1l4 -7l-7 -48q-31 -7 -50.5 -21t-35.5 -39t-41 -69l-98 -177q-9 -18 -13.5 -37.5t-5.5 -48t-1 -75.5q-1 -38 8.5 -52.5t36.5 -14.5
q16 0 32.5 1.5l16.5 1.5l3 -5l-9 -56l-15.5 1t-38.5 1.5t-47.5 1t-42.5 0.5q-20 0 -42.5 -2t-43 -4t-33 -3.5zM172 694l-30 28v7l77 87l17 4q12 0 32.5 -5.5t43 -12t42 -11.5t29.5 -5q9 0 20 7.5t21 16.5t16.5 16.5l6.5 7.5h8l30 -28v-7l-77 -86l-16 -4q-13 0 -33.5 5
t-42.5 11.5t-41.5 11.5t-30.5 5q-9 0 -20 -7.5t-21 -16.5t-16.5 -16.5l-6.5 -7.5h-8z" />
    <glyph glyph-name="uni1EF9" unicode="&#x7e;y" horiz-adv-x="454" 
d="M43 -241q-5 0 -14.5 8t-19 19.5t-16.5 22.5t-7 17l6 10q61 2 109.5 45t82.5 115l-22.5 67.5t-27 78.5t-28.5 82t-27 77t-24 62q-10 25 -25.5 35t-38.5 11l-2 4l6 44h18t33.5 -0.5t29.5 -0.5q24 0 47.5 1t43 2.5t31.5 2.5l12 1l2 -5l-7 -43q-31 -1 -42 -6.5t-11 -18.5
q0 -9 6 -32.5t15 -55t19 -65t19 -62t15 -46.5l6 -18h6q17 40 35 85t33.5 86t26 70t10.5 36q0 13 -8 18.5t-27 5.5h-40l-2 4l7 44l16 -1t40 -2t48 -1q17 0 36 0.5t33.5 0.5h18.5l-7 -48q-22 -4 -33 -15t-21 -38l-127 -306q-35 -84 -63.5 -140.5t-55 -90t-54 -47.5t-61.5 -13z
M125 542l-30 28v8l77 94l16 4q13 0 33.5 -5t43 -11.5t42 -11.5t29.5 -5q9 0 19.5 8.5t21 19t17 19l6.5 8.5h8l30 -28v-7l-77 -94l-17 -4q-12 0 -32.5 5t-43 11.5t-41.5 11.5t-30 5q-9 0 -20.5 -8.5t-21 -19t-16 -19.5l-6.5 -9h-8z" />
    <glyph glyph-name="fi" unicode="fi" horiz-adv-x="602" 
d="M353 -12l5 51q23 6 35 14.5t16.5 27t4.5 51.5v208q0 35 -12 45t-53 10h-154q0 -73 -2 -145.5t-2 -145.5q0 -51 46 -51q26 0 44 0.5l18 0.5l2 -4l-8 -53l-14.5 1t-36.5 1t-44 0.5t-38 0.5q-21 0 -42 -0.5t-39 -2t-29 -2l-11 -0.5l6 49q34 5 45.5 21t11.5 63v227
q-2 23 -14.5 32t-49.5 10l-4 6l7 41l61 11q0 88 30.5 152.5t88.5 99.5t138 35q35 0 65 -7t68 -25l3 -12l-5 -11.5t-12.5 -30.5t-16.5 -43l-11 -3l-10 9t-28 20.5t-42 20.5t-53 9q-41 0 -67.5 -18t-39.5 -56t-14 -98v-45q84 0 136.5 0.5t84.5 2t55 5t48 8.5l6 -14
q-4 -10 -8.5 -43t-7.5 -82t-5 -107t-2 -121q0 -27 7.5 -38.5t25.5 -11.5q9 0 21 1l12 1l2 -5l-9 -51l-9.5 0.5t-25 1t-32.5 1t-31 0.5q-23 0 -49 -3t-44 -6z" />
    <glyph glyph-name="fl" unicode="fl" horiz-adv-x="588" 
d="M191 104q0 -51 47 -51q25 0 43 1l18 1l2 -4l-8 -54l-14.5 1t-36.5 1t-44 0.5t-38 0.5q-21 0 -42 -0.5t-39 -2t-29 -2l-11 -0.5l6 49q29 4 43 18.5t14 39.5v254q-2 23 -14 31.5t-50 9.5l-4 6l7 41l61 11v6q0 87 29 149.5t82 97t125 34.5q25 0 52 -4.5t49 -13.5l45 9
t32 6.5l12 2.5l7 -16q-5 -7 -9.5 -43.5t-8 -96.5t-6.5 -137t-4.5 -165.5t-1.5 -182.5q0 -27 7.5 -39t25.5 -12q8 0 21 1l13 1l2 -5l-9 -50l-10 0.5t-25.5 1t-32.5 1t-32 0.5q-23 0 -48 -2.5t-42.5 -5.5l-17.5 -3l6 51q29 7 41 21.5t12 40.5v511l-1 16q-23 18 -55 29t-60 11
q-35 0 -57.5 -18t-34 -56t-12.5 -98v-48q36 0 66 1t48.5 1.5l18.5 0.5l4 -3l-11 -60l-17 1t-46 1.5t-64 0.5z" />
    <glyph glyph-name="f_j" unicode="fj" horiz-adv-x="587" 
d="M362 -242l-24 23l2 10q28 28 44 58.5t23 75t7 112.5v303q0 28 -6 39t-22.5 13.5t-49.5 2.5h-141q0 -73 -2 -145.5t-2 -145.5q0 -23 11 -37t35 -14q26 0 44 0.5l18 0.5l2 -4l-8 -53l-14.5 1t-36.5 1t-44 0.5t-38 0.5q-21 0 -42 -0.5t-39 -2t-29 -2l-11 -0.5l6 49
q28 4 42.5 17.5t14.5 40.5v253q-1 25 -16 33t-48 9l-4 6l7 41l61 11q0 86 28 146.5t77.5 95.5t112.5 43q13 1 25 1h24q37 -1 64.5 -8.5t43 -15l15.5 -7.5l3 -12l-5 -11.5t-12.5 -30.5t-16.5 -43l-11 -3l-10 9t-28 20.5t-42 20.5t-53 9q-52 0 -78 -25.5t-34.5 -74
t-8.5 -117.5h127.5t83.5 2t57.5 5.5t51.5 8.5l6 -14q-5 -10 -8.5 -44.5t-5 -86.5t-3 -111.5t-1.5 -118v-107.5q0 -70 -37 -130t-105 -98z" />
    <glyph glyph-name="T_h.liga" unicode="Th" horiz-adv-x="1006" 
d="M118 -5l8 53q46 4 67 12.5t27 31.5t6 71v420q-51 -2 -80 -6t-43.5 -16t-21 -37t-11.5 -69l-63 -5q4 30 6.5 64t4.5 67.5t3 60.5l10 9l90 -11h335l105 10l21 -124q-19 18 -35.5 29t-40.5 17t-64 8t-106 3q-3 -32 -5.5 -86t-4 -119.5t-3 -133t-1.5 -126.5q0 -35 12.5 -49.5
t41.5 -14.5q28 0 52 3l4 -5l-9 -56q-23 2 -52.5 2.5t-57 1t-45.5 0.5q-16 0 -41.5 -0.5t-54 -2t-54.5 -2.5zM492 -3l7 51q28 3 39 14.5t11 39.5v494l-9 113l7 11q22 4 43.5 8t40.5 8t30 6l7 -16q-5 -7 -10.5 -51.5t-9 -118.5t-6.5 -169q9 7 27 20.5t40 27.5t42.5 23.5
t33.5 9.5q68 0 105.5 -33.5t37.5 -95.5q0 -14 -3 -44.5t-6 -67.5t-6 -70.5t-3 -53.5q0 -28 7.5 -40.5t26.5 -12.5q5 0 15 0.5t18 1.5l2 -4l-9 -51q-13 1 -30.5 1.5l-35 1t-31.5 0.5q-13 0 -31 -1.5t-37.5 -3.5t-38.5 -5l4 50q27 7 39 21t13 40l5 187q2 46 -17.5 71t-56.5 25
q-23 0 -55 -14.5t-57 -34.5q-1 -53 -2 -112t-1 -121q0 -29 8 -40t26 -11q4 0 13.5 0.5t16.5 0.5l3 -4l-10 -51q-19 1 -48 2t-50 1q-22 0 -51.5 -0.5t-53.5 -2.5z" />
    <glyph glyph-name="gamma_gamma" unicode="&#x3b3;&#x3b3;" horiz-adv-x="855" 
d="M581 -237l-20 3l-44 36q1 34 4.5 59.5t9.5 49.5t16.5 52.5t27.5 67.5q-2 51 -6.5 92.5t-13.5 86.5q-11 64 -25 95t-37 37.5t-66 -4.5q-49 -84 -98 -175t-98 -191l-15 182l28 -2q28 71 60.5 141.5t64.5 144.5l33 25l47 -1q58 0 96 -58.5t62 -183.5q11 -65 18 -132
t10.5 -141t1.5 -162zM198 -237l-19 3l-45 36q2 39 5.5 66.5t12 55.5t22.5 62.5t38 87.5l-19 -71q-1 42 -3.5 76t-6.5 65.5t-11 65.5q-9 51 -19.5 81t-26 42.5t-40.5 11.5t-64 -13l-9 9q1 40 14.5 70.5t38.5 50.5q58 0 96.5 -58.5t61.5 -183.5q12 -65 19 -132t10 -141t1 -162
zM614 -28l-15 182l27 -2q31 77 65.5 154t69.5 158h16q21 -12 36.5 -30.5t27.5 -42.5q-38 -62 -75 -129.5t-75 -139t-77 -150.5z" />
    <glyph glyph-name="lambda_lambda" unicode="&#x3bb;&#x3bb;" horiz-adv-x="837" 
d="M575 468l59 -141h-39q-32 -89 -61.5 -165t-56.5 -140l-37 -30l-40 1q-29 1 -49 10t-33 31.5t-24 64.5l-125 443q-13 47 -29.5 66.5t-45.5 17t-82 -21.5l-11 11q0 84 65 123q55 0 95.5 -44.5t64.5 -130.5l107 -387q14 -46 28 -62t48 -12q50 106 90.5 195.5t75.5 170.5z
M82 -10l-77 29l-4 9q61 130 110 237t91 203l59 -141h-39q-36 -98 -68.5 -180.5t-61.5 -153.5zM773 -7q-45 0 -67.5 22t-38.5 84l-125 443q-13 47 -29.5 66.5t-45.5 17t-82 -21.5l-11 11q0 84 65 123q55 0 95.5 -44.5t64.5 -130.5l107 -387q12 -39 23.5 -56.5t34.5 -17.5
t65 12l10 -12q-6 -35 -23 -63t-43 -46z" />
    <glyph glyph-name="Gtilde" unicode="&#x7e;G" horiz-adv-x="661" 
d="M330 -12q-91 0 -157 38t-102 108t-36 166q0 107 43.5 185.5t123 122t186.5 43.5q32 0 66.5 -3.5t63.5 -8.5t47.5 -8.5l18.5 -3.5l5 -9l-5 -23.5t-11.5 -63t-9.5 -87.5l-69 -5l1.5 16.5t1.5 37.5q0 45 -31 64t-101 19q-69 0 -117 -27.5t-72.5 -82t-24.5 -133.5
q0 -86 25 -148t70 -95t107 -33q36 0 63 8t42 16.5l15 8.5v109q0 32 -9.5 42t-40.5 10h-25.5h-25.5h-11l-3 6l9 59q6 0 26.5 -1t49 -1.5t57.5 -0.5q23 0 44 1t34.5 2.5l13.5 1.5l6 -30q-15 -10 -22.5 -27t-10.5 -47.5t-3 -83.5q0 -27 2 -50.5t5 -37.5l-7 -10l-30 -11
t-82.5 -22t-119.5 -11zM221 694l-30 28v7l77 87l17 4q12 0 32.5 -5.5t43 -12t42 -11.5t29.5 -5q9 0 20 7.5t21 16.5t16.5 16.5l6.5 7.5h8l30 -28v-7l-77 -86l-16 -4q-13 0 -33.5 5t-42.5 11.5t-41.5 11.5t-30.5 5q-9 0 -20 -7.5t-21 -16.5t-16.5 -16.5l-6.5 -7.5h-8z" />
    <glyph glyph-name="gtilde" unicode="&#x7e;g" horiz-adv-x="505" 
d="M217 -242q-50 0 -86.5 16.5t-56.5 47.5t-20 72q13 16 40 38.5t59 44.5v6q-50 9 -77 34.5t-29 65.5q18 18 38.5 34.5t44.5 31.5v16l59 -18q-27 -15 -39 -27t-12 -24q0 -19 24.5 -28t62 -13t80.5 -9t81 -16t62 -32t24 -59q0 -34 -21 -66.5t-57.5 -58.5t-82 -41t-94.5 -15z
M253 -182q36 0 66 12t48.5 32t18.5 44q0 18 -13.5 29t-52.5 19.5t-115 18.5q-25 -19 -38 -41.5t-13 -44.5q0 -31 26.5 -50t72.5 -19zM253 183q42 0 65 27t23 76q0 55 -27.5 88t-73.5 33q-42 0 -65 -27.5t-23 -77.5q0 -54 27.5 -86.5t73.5 -32.5zM233 129q-53 0 -93 19.5
t-62.5 55t-22.5 81.5q0 52 26 93t70.5 66t98.5 25q30 0 55 -5.5t46 -5.5q20 2 57 10.5t82 21.5l4 -5l-12 -65q-20 -3 -42.5 -4.5t-37.5 -3.5l-4 -5q40 -43 40 -101q0 -50 -27.5 -90t-73.5 -63.5t-104 -23.5zM126 542l-30 28v8l77 94l16 4q13 0 33.5 -5t43 -11.5t42 -11.5
t29.5 -5q9 0 19.5 8.5t21 19t17 19l6.5 8.5h8l30 -28v-7l-77 -94l-17 -4q-12 0 -32.5 5t-43 11.5t-41.5 11.5t-30 5q-9 0 -20.5 -8.5t-21 -19t-16 -19.5l-6.5 -9h-8z" />
    <glyph glyph-name=".notdef" horiz-adv-x="641" 
d="M641 -109l-658 658l16 16l658 -658zM-1 -109l-16 16l658 658l16 -16z" />
    <glyph glyph-name="uni0000" 
 />
    <glyph glyph-name="uni0000" 
 />
    <glyph glyph-name="nonmarkingreturn" horiz-adv-x="333" 
 />
    <glyph glyph-name="CR" unicode="&#xd;" horiz-adv-x="187" 
 />
    <glyph glyph-name="space" unicode=" " horiz-adv-x="187" 
 />
    <glyph glyph-name="exclam" unicode="!" horiz-adv-x="285" 
d="M113 211l-13 10l-13 445l9 13l105 20l12 -14l-56 -465zM120 -11q-32 0 -48 18.5t-16 45.5q0 31 19.5 51t50.5 20q32 0 48.5 -18.5t16.5 -46.5q0 -29 -19 -49.5t-52 -20.5z" />
    <glyph glyph-name="quotedbl" unicode="&#x22;" horiz-adv-x="308" 
d="M67 412l-13 3q2 56 0.5 107t-4 83l-2.5 32l83 14l7 -9l-4.5 -31.5t-12.5 -81t-19 -101.5zM199 412l-13 3q2 56 0.5 107t-4 83l-2.5 32l83 14l7 -9l-4.5 -31.5t-12.5 -81t-19 -101.5z" />
    <glyph glyph-name="numbersign" unicode="#" horiz-adv-x="510" 
d="M94 34l-8 7l33 155l-105 -1l-4 10l15 51l106 -1l11 55l11 48l-103 -1l-4 11l15 51l103 -1l33 151l54 6l10 -6l-36 -152h50l51 -1l33 153l54 6l9 -6l-36 -152l104 1l4 -11l-17 -50h-104l-7 -34l-15 -69l103 1l4 -10l-17 -51l-101 1l-32 -152l-53 -9l-8 7l33 155l-64 1
l-37 -1l-32 -153zM292 254l12 56l10 48l-63 1l-38 -1l-8 -35l-15 -68h49z" />
    <glyph glyph-name="dollar" unicode="$" horiz-adv-x="462" 
d="M182 22l45 460l51 2l-47 -460zM169 -156l-5 7l18 171l49 2l-18 -175zM227 482l17 170l45 6l6 -9l-17 -165zM192 -9q-42 0 -73.5 7.5t-49.5 14l-18 6.5l-6 11l3.5 19.5t6.5 50t3 63.5l59 5q0 -46 8 -71t29 -34.5t58 -9.5q43 0 68.5 18t25.5 47q0 24 -17.5 40t-45 30
t-58.5 28q-33 15 -63 33.5t-49.5 44t-19.5 62.5q0 45 27 79t74.5 53.5t108.5 19.5q40 0 70.5 -5t48 -9.5l17.5 -4.5l5 -10l-3.5 -18t-8 -48.5t-7.5 -66.5l-53 -4l-7 4l1 9t1 22q0 36 -19 51t-67 15q-37 0 -61.5 -17t-24.5 -44q0 -31 33.5 -51.5t75.5 -40.5q35 -15 69 -33.5
t56.5 -45t22.5 -65.5q0 -46 -27.5 -81t-77 -54.5t-115.5 -19.5z" />
    <glyph glyph-name="percent" unicode="%" horiz-adv-x="689" 
d="M526 -12q-65 0 -101.5 44.5t-36.5 115.5q0 51 19.5 89.5t54.5 60.5t80 22q48 0 78 -21.5t44.5 -56.5t14.5 -76q0 -49 -17.5 -89.5t-52 -64.5t-83.5 -24zM166 319q-66 0 -102 44.5t-36 115.5q0 50 19 89t54 61t81 22q47 0 77.5 -21.5t45 -56.5t14.5 -76q0 -49 -18 -89.5
t-52 -64.5t-83 -24zM179 398q20 0 40 6.5t33 23t13 48.5q0 39 -25.5 66t-73.5 27q-40 0 -62 -21t-22 -56q0 -34 14 -54.5t36 -30t47 -9.5zM540 67q19 0 39 6.5t33 23t13 48.5q0 40 -25.5 67t-73.5 27q-39 0 -61.5 -21.5t-22.5 -56.5q0 -33 14.5 -54t36.5 -30.5t47 -9.5z
M128 -94l-49 22l-5 13l13.5 20.5t36.5 55.5t51 78t57.5 88.5t55.5 86.5l259 408l48 -21l6 -17l-18.5 -27.5t-48.5 -73t-65.5 -99.5t-70 -107.5t-60.5 -95.5q-27 -43 -56 -89.5t-57 -89.5t-49.5 -77.5t-34.5 -54.5z" />
    <glyph glyph-name="ampersand" unicode="&#x26;" horiz-adv-x="708" 
d="M590 -35q-9 6 -41 33.5t-85 74.5q-42 -40 -93 -62.5t-104 -22.5q-66 0 -115.5 21t-76 59.5t-26.5 91.5q0 44 19.5 75.5t45 51t45 29.5l19.5 10v7q-41 43 -61 81t-20 75q0 48 26.5 84t74 57t109.5 21q52 0 86.5 -10t41.5 -13l2 -16l-48 -81q-3 0 -6.5 -0.5t-6.5 -0.5
q-33 30 -55 40.5t-51 10.5q-38 0 -60.5 -19.5t-22.5 -53.5q0 -30 12 -57t40.5 -58.5t80.5 -75.5l164 -141q17 35 17 81q0 55 -16.5 81t-53.5 26q-11 0 -25.5 -2t-24.5 -4t-12 -2l-14 54q0 1 15.5 8.5t42.5 8.5l205 12q46 3 62 5.5t18 5.5l11 -24l-15 -39q-7 -14 -20.5 -18.5
t-49.5 -4.5h-90l-3 -7q16 -16 25 -39.5t9 -48.5q0 -32 -10 -64t-30 -63l139 -117v-16q-4 -4 -18 -13t-29.5 -18.5t-26.5 -12.5zM297 61q37 0 70.5 11.5t60.5 32.5l-214 191q-33 -18 -53 -48.5t-20 -64.5q0 -57 41.5 -89.5t114.5 -32.5z" />
    <glyph glyph-name="quotesingle" unicode="'" horiz-adv-x="176" 
d="M67 412l-13 3q2 56 0.5 107t-4 83l-2.5 32l83 14l7 -9l-4.5 -31.5t-12.5 -81t-19 -101.5z" />
    <glyph glyph-name="parenleft" unicode="(" horiz-adv-x="282" 
d="M237 -146l-18 9t-45 30t-54 56.5t-45.5 88t-18.5 125.5v173q0 74 19 127t46 89t54.5 57.5t46 30.5l18.5 9h7l21 -36l-1 -5l-12.5 -8t-31 -25.5t-37.5 -47t-31.5 -73t-12.5 -103.5v-173q0 -65 13 -113t32.5 -81t39 -53t33 -29l13.5 -9v-6l-30 -33h-6z" />
    <glyph glyph-name="parenright" unicode=")" horiz-adv-x="281" 
d="M34 -146l-21 36l1 5l13 8t31 25.5t37 47t31.5 73t12.5 103.5v173q0 65 -13 113t-32.5 81t-39 53t-32.5 29l-13 9v6l29 33h6l18 -9t45.5 -30t54 -56.5t45 -88t18.5 -125.5v-173q0 -73 -18.5 -126.5t-46 -89.5t-55 -57.5t-46 -30.5l-18.5 -9h-7z" />
    <glyph glyph-name="asterisk" unicode="*" horiz-adv-x="437" 
d="M146 429l-11 4.5t-26.5 11.5t-29.5 17v9l12.5 12.5t33.5 30t46 34.5l32 -18l3 -7q-16 -22 -29.5 -43.5t-22 -36zM164 563q-26 9 -50.5 15.5t-41 10l-16.5 3.5l0.5 12t3 28.5t7.5 32.5l9 4l15 -8.5t38.5 -23t47.5 -32.5l-7 -37zM277 411l-10 2l-7 16t-17.5 41t-19.5 55
l27 25l9 1q16 -22 31.5 -42t26.5 -32.5l11 -12.5l-7 -9t-18.5 -21.5t-25.5 -22.5zM196 612l-7 4q0 27 -1 53t-2.5 42l-1.5 16l11.5 3.5t28 6.5t32.5 3l7 -8l-3.5 -17t-10 -43t-16.5 -55zM261 568l-15 32l1 9q27 8 50.5 17t38.5 15.5l15 6.5l6.5 -9.5t15 -24.5t13.5 -31
l-5 -9l-17.5 -1.5t-44.5 -3.5t-58 -1z" />
    <glyph glyph-name="plus" unicode="+" horiz-adv-x="506" 
d="M222 28l-10 6v17.5t0.5 45t0.5 61v65.5h-65t-61.5 -0.5t-45.5 -0.5h-17l-7 10l13 67h28t71 -0.5t84 -0.5l1 192l68 9l11 -7l-1 -18.5t-2 -48.5t-2 -64t-1 -63q30 0 63.5 1t63.5 2t49 2l19 1l6 -11l-9 -69l-192 -1q0 -42 0.5 -84.5t0.5 -70.5v-28z" />
    <glyph glyph-name="comma" unicode="," horiz-adv-x="282" 
d="M75 -150l-27 22v13q33 22 54.5 54.5t21.5 63.5q0 20 -9 39t-22 32l2 14q14 10 32 20t35 10q25 0 41.5 -22t16.5 -61q0 -38 -22 -72.5t-55.5 -63t-67.5 -49.5z" />
    <glyph glyph-name="hyphen" unicode="-" horiz-adv-x="368" 
d="M66 203l-8 10l6 63l170 20q38 4 53.5 6.5l15.5 2.5l8 -11l-7 -65z" />
    <glyph glyph-name="period" unicode="." horiz-adv-x="291" 
d="M142 -11q-32 0 -48 18.5t-16 45.5q0 31 19.5 51t50.5 20q32 0 48.5 -18.5t16.5 -46.5q0 -29 -19 -49.5t-52 -20.5z" />
    <glyph glyph-name="slash" unicode="/" horiz-adv-x="329" 
d="M36 -110l-8 9l8.5 29.5t22 77t29.5 105.5t31 115l115 449h61l10 -12l-8.5 -30.5t-22 -80.5t-30 -109.5t-32.5 -119t-29 -108.5q-16 -62 -30.5 -120t-26.5 -104.5t-19 -73.5l-7 -27h-64z" />
    <glyph glyph-name="zero" unicode="0" horiz-adv-x="519" 
d="M247 -12q-65 0 -113 30.5t-74.5 86.5t-26.5 131q0 79 30.5 140.5t85 96t125.5 34.5q64 0 112 -30t74.5 -85t26.5 -129q0 -80 -31 -142.5t-85 -97.5t-124 -35zM264 88q71 0 113.5 41t42.5 108q0 50 -21 87t-58 58t-88 21q-70 0 -111.5 -41.5t-41.5 -111.5q0 -48 20.5 -85
t57.5 -57t86 -20z" />
    <glyph glyph-name="one" unicode="1" horiz-adv-x="349" 
d="M41 -12l7 54q36 3 55.5 12.5t27 31t7.5 60.5v223q0 37 -13 47t-40 10q-15 0 -33.5 -3l-18.5 -3l-4 5l5 48q5 1 23 3t42.5 5.5t48.5 6.5q50 8 74.5 12t33 5.5l8.5 1.5l8 -22q-18 -15 -26 -31.5t-11 -50.5q-3 -47 -5 -99.5t-2.5 -100.5t-0.5 -83q0 -38 10 -52.5t37 -14.5
q18 0 34.5 1.5l16.5 1.5l2 -5l-10 -55l-14 1t-35.5 1.5t-45.5 1t-42 0.5q-21 0 -45 -2t-45 -4t-35 -4z" />
    <glyph glyph-name="two" unicode="2" horiz-adv-x="479" 
d="M22 14l77 86q55 63 89.5 110.5t51 82.5t16.5 61q0 33 -18.5 51t-51.5 18q-32 0 -63.5 -22.5t-54.5 -60.5h-11l-14 57q21 33 50.5 57.5t63 38.5t66.5 14q66 0 106 -34t40 -90q0 -30 -18.5 -67t-62 -92t-121.5 -142l4 -7h128q35 0 54.5 7.5t31 27t19.5 56.5l56 6
l-3.5 -15.5t-8 -41t-9.5 -56t-8 -58.5l-13 -9l-25 0.5t-64.5 2t-85 3t-86.5 2t-68 0.5l-58 -11z" />
    <glyph glyph-name="three" unicode="3" horiz-adv-x="423" 
d="M90 -103q-38 0 -53.5 19.5t-17.5 66.5l8 9q41 -11 83 -11q46 0 83 15.5t58.5 42t21.5 59.5q0 47 -40 69t-125 23l-7 7l-6 47l65 15q38 17 61 47t23 61q0 29 -20 46t-51 17q-26 0 -57 -13.5t-55 -36.5q-2 0 -5 -0.5t-6 -0.5l-14 55q4 4 21.5 15.5t42.5 24.5t54 23t56 10
q62 0 99.5 -31t37.5 -83q0 -41 -30 -78.5t-80 -61.5v-6q68 -17 102.5 -49t34.5 -78q0 -40 -25 -79.5t-66.5 -72t-91.5 -52t-101 -19.5z" />
    <glyph glyph-name="four" unicode="4" horiz-adv-x="461" 
d="M255 -103l-7 10l1 15.5t2 41.5t2 56t1 58q-58 2 -122.5 3t-121.5 1q1 12 2 25t2 25l271 374q1 0 2.5 0.5t2.5 0.5l54 -10v-348h88l8 -9l-9 -67l-23.5 1t-62.5 2q1 -39 2.5 -75.5t2.5 -60l1 -23.5l-6 -8zM99 149h155v204h-9z" />
    <glyph glyph-name="five" unicode="5" horiz-adv-x="429" 
d="M80 -103q-33 0 -50.5 17.5t-20.5 68.5l9 9q21 -5 42 -8t41 -3q49 0 87.5 15t61 41.5t22.5 60.5q0 31 -19 52t-62.5 36t-118.5 27l-9 11q4 46 7.5 91.5t6 82.5t3.5 59l1 22l8 8l191 8q29 1 42 9t21 30l42 4l-25 -131l-9 -8l-29 2t-77 4t-104 2l-8 -111q71 -14 125 -35.5
t84 -53t30 -78.5q0 -46 -27 -87t-70.5 -74t-95 -52t-99.5 -19z" />
    <glyph glyph-name="six" unicode="6" horiz-adv-x="464" 
d="M229 -12q-55 0 -97 26.5t-65.5 74.5t-23.5 111q0 66 23.5 126.5t67.5 112.5t106.5 92.5t140.5 66.5l8 -5l15 -41q-127 -54 -195 -144t-68 -205q0 -71 28.5 -112t78.5 -41q45 0 69.5 29.5t24.5 80.5q0 35 -14 61.5t-38 42.5t-55 16q-24 0 -53.5 -12t-51.5 -31l20 79
l14 -10q33 20 60 32t40 13q50 0 88.5 -21.5t61 -59t22.5 -85.5q0 -58 -26.5 -102t-73.5 -69.5t-107 -25.5z" />
    <glyph glyph-name="seven" unicode="7" horiz-adv-x="423" 
d="M171 -103l-73 22l-10 23l239 470l-157 -8q-33 -1 -50 -9t-25 -27t-15 -55l-48 -6l2 17.5t5.5 45.5t6.5 61t5 63l6 5l17.5 -1t45.5 -2t59 -1h214l29 -37q-40 -82 -72 -150.5t-57.5 -125t-45.5 -103t-37 -84.5l-27 -98h-12z" />
    <glyph glyph-name="eight" unicode="8" horiz-adv-x="483" 
d="M226 -12q-48 0 -88.5 16.5t-65 47.5t-24.5 75t21.5 75.5t50 51.5t50.5 30q-42 25 -74 59t-32 89q0 44 24.5 82t67 61t97.5 23q42 0 79 -15.5t60.5 -46t23.5 -74.5q0 -37 -15 -65t-37 -46.5t-43 -29.5q31 -17 56.5 -37.5t41 -48t15.5 -66.5q0 -50 -27.5 -91t-74.5 -65.5
t-106 -24.5zM247 44q40 0 69.5 26.5t29.5 67.5q0 31 -19 52t-49.5 37.5t-64.5 33.5q-14 -7 -32 -20.5t-31 -35t-13 -54.5q0 -27 14 -52t39 -40t57 -15zM275 344q17 12 34 34.5t17 61.5q0 47 -25.5 72.5t-62.5 25.5q-39 0 -61.5 -23.5t-22.5 -54.5q0 -28 17.5 -48t45 -36
t58.5 -32z" />
    <glyph glyph-name="nine" unicode="9" horiz-adv-x="459" 
d="M85 -103l-9 5l-14 41q127 55 195 145t68 204q0 71 -28.5 112t-78.5 41q-45 0 -69.5 -29t-24.5 -81q0 -34 14 -61t38.5 -43t54.5 -16q24 0 53.5 12t51.5 31l-20 -79l-14 10q-34 -20 -60.5 -32t-40.5 -13q-49 0 -87.5 21.5t-61 59.5t-22.5 85q0 58 26.5 102t73.5 69.5
t107 25.5q55 0 97 -26.5t65.5 -74.5t23.5 -111q0 -66 -23.5 -126.5t-67.5 -112.5t-106.5 -92.5t-140.5 -66.5z" />
    <glyph glyph-name="colon" unicode=":" horiz-adv-x="238" 
d="M139 -11q-32 0 -48 18.5t-16 45.5q0 31 19.5 51t50.5 20q32 0 48.5 -18.5t16.5 -46.5q0 -29 -19 -49.5t-52 -20.5zM139 266q-32 0 -48 18.5t-16 45.5q0 31 19.5 51t50.5 20q32 0 48.5 -18.5t16.5 -46.5q0 -29 -19 -49.5t-52 -20.5z" />
    <glyph glyph-name="semicolon" unicode=";" horiz-adv-x="238" 
d="M75 -150l-27 22v13q33 22 54.5 54.5t21.5 63.5q0 20 -9 39t-22 32l2 14q14 10 32 20t35 10q25 0 41.5 -22t16.5 -61q0 -38 -22 -72.5t-55.5 -63t-67.5 -49.5zM139 266q-32 0 -48 18.5t-16 45.5q0 31 19.5 51t50.5 20q32 0 48.5 -18.5t16.5 -46.5q0 -29 -19 -49.5
t-52 -20.5z" />
    <glyph glyph-name="less" unicode="&#x3c;" horiz-adv-x="491" 
d="M410 64l-16.5 7.5t-42.5 19.5t-57.5 26.5t-61.5 27.5q-27 12 -60 26t-64 27t-50.5 21.5l-19.5 8.5l-8 12l1 68l198 84q33 15 67 28.5t61.5 25.5t45 18.5l17.5 6.5l11 -6l12 -61l-17.5 -6.5t-46 -17t-61.5 -23.5t-63 -25l-141 -56v-6l155 -66q40 -18 80 -35t66.5 -29
l26.5 -12l3 -13z" />
    <glyph glyph-name="equal" unicode="=" horiz-adv-x="506" 
d="M24 306l-7 10l13 67h24t61 -0.5t78 -0.5h74q30 0 66.5 1t71 2t56 2l21.5 1l6 -11l-9 -69l-227 -1h-73t-74.5 -0.5t-58 -0.5h-22.5zM24 140l-7 10l13 67h24t61 -0.5t78 -0.5h74q30 0 66.5 1t71 2t56 2l21.5 1l6 -11l-9 -69l-227 -1h-73t-74.5 -0.5t-58 -0.5h-22.5z" />
    <glyph glyph-name="greater" unicode="&#x3e;" horiz-adv-x="491" 
d="M71 64l-11 6l-13 62l18 6.5t46.5 16.5t61 23t62.5 26l141 55v7l-154 66q-40 17 -80 34.5t-67 29l-27 11.5l-2 14l35 50l16.5 -7.5t42.5 -19.5t57.5 -26t61.5 -27q26 -12 59.5 -26.5t64 -27t50.5 -21l20 -8.5l8 -12l-2 -69l-198 -84q-33 -14 -66.5 -28t-61.5 -25.5
t-45 -18.5z" />
    <glyph glyph-name="question" unicode="?" horiz-adv-x="364" 
d="M115 206l-10 5l-24 122l3 14l114 71q23 15 39 34.5t16 45.5q0 55 -53 83.5t-141 33.5l-5 12l35 66l14 6q67 -2 121 -25t86 -60t32 -84q0 -39 -13.5 -66.5t-37 -49t-53 -41.5t-61.5 -42l-3 -9l18 -89l-4 -10zM147 -11q-32 0 -48 18.5t-16 45.5q0 31 19 51t51 20
q31 0 48 -18.5t17 -46.5q0 -29 -19.5 -49.5t-51.5 -20.5z" />
    <glyph glyph-name="at" unicode="@" horiz-adv-x="845" 
d="M444 -215q-101 4 -178.5 35.5t-130 86t-79.5 125t-27 152.5q0 68 20.5 133t59.5 121t93 98t121.5 65.5t145.5 23.5q105 0 182.5 -40.5t121 -111t43.5 -160.5q0 -65 -21.5 -123.5t-63.5 -104t-104 -71.5t-143 -26q-19 0 -29.5 9t-10.5 25q0 6 4 24.5t9.5 44t10.5 51
t9.5 45t5.5 24.5l-6 2q-48 -89 -90.5 -142t-85.5 -83q-47 0 -71 38.5t-24 101.5t21 122.5t55 107.5t75.5 76t82.5 28l94 -16l9 24l8 3l52 -15l8 -14l-6 -22t-15.5 -60t-20.5 -86.5t-21.5 -101.5t-17.5 -105l4 -5q68 0 113.5 28t68.5 78.5t23 115.5q0 87 -36.5 148t-103 93
t-156.5 32q-76 0 -137.5 -28t-106 -77t-68 -112.5t-23.5 -136.5q0 -100 39 -181.5t119.5 -131t205.5 -55.5v-5v-6zM325 84q17 0 46.5 37t65 101t68.5 144q-5 4 -20.5 11.5t-35 14t-40.5 6.5q-26 0 -51.5 -31t-42 -80.5t-16.5 -106.5q0 -38 7.5 -67t18.5 -29z" />
    <glyph glyph-name="A" unicode="A" horiz-adv-x="603" 
d="M334 -9l-4 7l4 48q34 4 52 7.5t25 10.5t7 20q0 8 -1.5 18.5t-5.5 22.5l-28 95q-18 1 -48.5 1h-49.5q-27 0 -56.5 -2.5t-46.5 -4.5l-32 -92q-8 -24 -8 -35q0 -20 13 -28.5t41 -8.5h51l3 -5l-6 -51l-22 1.5t-55 3t-65 1.5q-26 0 -52.5 -0.5t-44.5 -1.5l-18 -1l8 55
q26 4 42 19.5t30 53.5l188 509l104 17l9 -3l7 -24.5t18.5 -67t26.5 -96.5t32 -113t34.5 -117.5t33.5 -108.5q12 -36 31 -51t58 -19l3 -5l-7 -49l-20.5 1t-47 1.5t-46.5 0.5q-39 0 -75.5 -2.5t-59 -4.5zM202 279h81q18 0 43 1.5t41 2.5l-69 244h-10z" />
    <glyph glyph-name="B" unicode="B" horiz-adv-x="611" 
d="M177 0q-21 0 -43 -2t-41.5 -3.5t-31.5 -3.5l-12 -2l6 55q46 9 61 26t15 57l1 407q0 31 -7 42t-28 11q-9 0 -21.5 -1l-12.5 -1l-4 5l8 52l13.5 -0.5t34 -1l41 -1t34.5 -0.5q11 0 27.5 0.5t34.5 1t34.5 1.5t26.5 1.5l10 0.5q99 0 151.5 -39.5t52.5 -114.5q0 -50 -30 -89.5
t-82 -63.5q45 -10 78 -31t51.5 -51t18.5 -69q0 -55 -32 -99.5t-88 -70.5t-126 -26q-14 0 -32 1.5t-36 3.5t-36.5 3.5t-35.5 1.5zM232 290l-5 -169q0 -35 24.5 -50t81.5 -15q55 0 86.5 30.5t31.5 83.5q0 99 -121 122zM234 359l13 -1t32 -3.5t35 -3.5t23 -1l12.5 5.5t29 18.5
t29 36t12.5 60q0 58 -39 86t-121 28q-10 0 -13.5 -4.5t-4.5 -17.5q-2 -29 -3.5 -64.5t-3 -70.5t-1.5 -68z" />
    <glyph glyph-name="C" unicode="C" horiz-adv-x="621" 
d="M333 -12q-91 0 -158 38t-103.5 108t-36.5 166q0 78 25.5 142.5t72 111t110 72t141.5 25.5q31 0 63.5 -3.5t59 -8.5t43 -8.5l16.5 -3.5l4 -9l-5 -23.5t-11 -64t-9 -89.5l-70 -5l1.5 16.5t1.5 34.5q0 45 -32 67t-99 22q-61 0 -104 -29t-66.5 -82.5t-23.5 -131.5
q0 -85 25 -147t70 -95.5t107 -33.5t98.5 36t52.5 113l70 6l-3 -16t-7 -42t-8 -56.5t-6 -59.5l-7 -10l-28 -10t-75.5 -20t-108.5 -10z" />
    <glyph glyph-name="D" unicode="D" horiz-adv-x="699" 
d="M317 -12l-15 2t-38 4t-48.5 4t-45.5 2q-25 0 -53 -3t-47.5 -5.5l-19.5 -2.5l6 55q45 9 60 26.5t15 59.5l1 402q0 32 -6.5 43t-27.5 11q-10 0 -22 -1l-12 -1l-4 6l8 52l12 -0.5t30.5 -1t38 -1t33.5 -0.5q17 0 43 0.5t51.5 1.5t43 1.5l17.5 0.5q100 0 173 -36.5t113.5 -104
t40.5 -158.5q0 -77 -26 -141.5t-73 -113t-110 -75t-138 -26.5zM275 578q-19 0 -25.5 -4t-7.5 -19q-6 -152 -10 -261t-4 -157q0 -32 9 -50t32.5 -25.5t66.5 -7.5q99 0 153.5 68.5t54.5 194.5q0 87 -30 145t-90 87t-149 29z" />
    <glyph glyph-name="E" unicode="E" horiz-adv-x="593" 
d="M49 -10l6 55q44 6 60 24t16 61l1 403q0 32 -6.5 43t-28.5 11q-6 0 -15.5 -0.5t-17.5 -1.5l-4 6l8 51q20 0 47.5 -1t57 -1.5t53.5 -0.5q77 0 132.5 1t96.5 4t73 7l5 -8q-5 -25 -10 -55.5t-8 -61t-5 -56.5l-67 -5q1 9 1.5 22t0.5 20q0 23 -4 36.5t-18 20t-42.5 9t-76.5 2.5
q-29 0 -42 -2t-16.5 -10t-4.5 -25l-10 -226l-3 -193q0 -26 4.5 -39t19.5 -17t48 -4q54 0 87 4t50.5 16t26 36t13.5 63l62 6l5 -7q-8 -34 -15.5 -84t-12.5 -92l-7 -8q-57 2 -116 3.5t-109 2.5t-81 1q-34 0 -77.5 -2.5t-76.5 -7.5zM218 287l8 74h26t41 -0.5t39 -0.5t52 3t68 7
l5 -7l-14 -71q-27 1 -67 2t-68 1q-21 0 -46 -2.5t-44 -5.5z" />
    <glyph glyph-name="F" unicode="F" horiz-adv-x="521" 
d="M49 -12l6 56q46 8 61 26t15 60l1 403q0 32 -6.5 43t-28.5 11q-9 0 -21 -1l-12 -1l-4 6l8 51l15 -0.5t39 -1t52 -1t52 -0.5q67 0 118.5 1t92 4t70.5 7l5 -8l-4 -24.5t-9.5 -64.5t-8.5 -86l-66 -5l1 17t1 27q0 31 -8 45t-34 18.5t-80 4.5q-29 0 -42 -2t-16.5 -10t-4.5 -25
l-8 -194l99 -1q16 0 40.5 2.5t44.5 5l20 2.5l6 -7l-14 -71l-20.5 1t-49 1.5t-51.5 0.5q-22 0 -43 -2.5t-34 -4.5l-3 -146q0 -39 8.5 -52.5t34.5 -13.5q11 0 27.5 1t29 2l12.5 1l4 -7l-9 -60l-16.5 0.5t-40.5 1.5t-50 1.5t-45 0.5q-31 0 -62 -3t-51.5 -6z" />
    <glyph glyph-name="G" unicode="G" horiz-adv-x="661" 
d="M330 -12q-91 0 -157 38t-102 108t-36 166q0 107 43.5 185.5t123 122t186.5 43.5q32 0 66.5 -3.5t63.5 -8.5t47.5 -8.5l18.5 -3.5l5 -9l-5 -23.5t-11.5 -63t-9.5 -87.5l-69 -5l1.5 16.5t1.5 37.5q0 45 -31 64t-101 19q-69 0 -117 -27.5t-72.5 -82t-24.5 -133.5
q0 -86 25 -148t70 -95t107 -33q36 0 63 8t42 16.5l15 8.5v109q0 32 -9.5 42t-40.5 10h-25.5h-25.5h-11l-3 6l9 59q6 0 26.5 -1t49 -1.5t57.5 -0.5q23 0 44 1t34.5 2.5l13.5 1.5l6 -30q-15 -10 -22.5 -27t-10.5 -47.5t-3 -83.5q0 -27 2 -50.5t5 -37.5l-7 -10l-30 -11
t-82.5 -22t-119.5 -11z" />
    <glyph glyph-name="H" unicode="H" horiz-adv-x="751" 
d="M49 -11l7 54q45 9 60 26.5t15 59.5l1 404q0 32 -7 43t-30 11q-6 0 -15.5 -0.5t-16.5 -1.5l-4 6l8 50q24 0 58.5 -1t55.5 -1q20 0 55 2.5t71 5.5l-4 -54q-27 -4 -40 -11t-17.5 -23t-6.5 -48l-6 -154l151 -1q32 0 61.5 1.5t73.5 6.5l1 169q0 32 -7 43t-30 11q-7 0 -16 -0.5
t-16 -1.5l-4 6l7 50q5 0 25.5 -0.5t45 -1t40.5 -0.5q21 0 57.5 2.5t74.5 5.5l-5 -54q-37 -5 -49 -16t-14 -40q-3 -52 -5.5 -110.5t-4 -116t-2.5 -107t-1 -83.5q0 -40 9 -53.5t34 -13.5q10 0 22 1t19 2l4 -5l-9 -54q-27 1 -66.5 2t-66.5 1q-13 0 -35.5 -0.5t-46.5 -0.5
t-44 -1l9 54q30 1 46 9t22 29.5t6 61.5v141q-20 0 -45 0.5t-49 0.5h-39q-9 0 -34 -1t-57 -3.5t-64 -5.5l-3 -163q0 -40 8.5 -54t32.5 -14q11 0 22.5 1t19.5 2l3 -5l-9 -54q-5 1 -24 1.5t-40.5 1t-36.5 0.5q-27 0 -60.5 -1.5t-60 -4t-34.5 -5.5z" />
    <glyph glyph-name="I" unicode="I" horiz-adv-x="363" 
d="M48 -11l6 54q46 9 61.5 26.5t15.5 59.5l1 404q0 32 -7.5 43t-29.5 11q-7 0 -18.5 -0.5t-20.5 -1.5l-3 6l7 50q29 0 65.5 -1t62.5 -1q20 0 55 2.5t72 5.5l-5 -54q-40 -5 -53.5 -16t-15.5 -40q-3 -52 -5.5 -110t-4 -115.5t-2.5 -107t-1 -83.5q0 -40 8.5 -54t32.5 -14
q13 0 26.5 1t22.5 2l3 -5l-9 -54q-20 1 -46 1.5t-51 1t-41 0.5q-23 0 -58 -3t-68 -8z" />
    <glyph glyph-name="J" unicode="J" horiz-adv-x="329" 
d="M39 -148l-22 36l3 9q40 27 61.5 54t30.5 66.5t9 100.5v415q0 32 -6.5 42.5t-29.5 10.5q-6 0 -16.5 -1t-19 -2l-8.5 -1l-4 6l7 51h115q28 0 58 2t51.5 4.5l21.5 2.5l-4 -55q-34 -5 -43.5 -15t-11.5 -41q-2 -27 -3.5 -69.5t-3 -92.5t-3 -100.5t-2.5 -93.5t-1 -71
q-1 -101 -43.5 -162.5t-135.5 -95.5z" />
    <glyph glyph-name="K" unicode="K" horiz-adv-x="641" 
d="M255 333l165 175q29 29 29 51q0 13 -14.5 20.5t-44.5 9.5l-3 5l8 51l12 -1t31.5 -2l39 -2t34.5 -1q14 0 31.5 0.5t34 1.5t26.5 1.5l10 0.5l5 -8l-7 -48q-19 -6 -35.5 -16.5t-36.5 -29.5t-50 -51l-136 -147l153 -211q33 -45 60 -65t61 -21l6 -6l-7 -43l-13 -1.5t-31 -4
t-33.5 -4t-20.5 -1.5q-28 0 -56 21.5t-55 63.5l-165 244zM132 533q0 32 -7 43t-30 11q-9 0 -20.5 -1l-11.5 -1l-4 6l8 51l13.5 -0.5t34 -1t40.5 -1t33 -0.5q16 0 36.5 1.5t39.5 2.5t31.5 2.5l12.5 1.5l-4 -54q-37 -7 -50.5 -19t-14.5 -40l-11 -413q-1 -40 8 -54t33 -14
q16 0 29.5 1.5l13.5 1.5l3 -5l-9 -54l-14 0.5t-35.5 1t-43.5 1t-39 0.5h-42t-41 -0.5t-31 -1l-12 -0.5l10 53q46 6 59.5 20.5t13.5 57.5z" />
    <glyph glyph-name="L" unicode="L" horiz-adv-x="517" 
d="M57 -10l6 55q39 6 53.5 24t14.5 61v403q0 32 -7 43t-29 11q-9 0 -20.5 -1l-11.5 -1l-4 6l7 50q6 0 27.5 -0.5t48 -1t46.5 -0.5q17 0 38.5 1.5t42 2.5t34 2.5l13.5 1.5l-5 -56q-34 -3 -48 -11.5t-17 -25.5t-6 -47q-4 -59 -6.5 -127t-4 -133t-1.5 -118q0 -30 5.5 -45
t21.5 -20t49 -5q40 0 65 5.5t40 21t24.5 44.5t16.5 76l61 6l5 -7l-5 -29t-11 -75.5t-12 -101.5l-7 -8l-27.5 1.5t-70.5 3t-90 3t-86 1.5q-40 0 -74.5 -2.5t-55 -5z" />
    <glyph glyph-name="M" unicode="M" horiz-adv-x="844" 
d="M385 -18q-31 94 -61.5 182.5t-59.5 170.5t-54 154h-7q0 -4 -2 -33.5t-5.5 -73t-7.5 -92.5t-7.5 -93.5t-5.5 -75t-2 -37.5q0 -31 32 -31q7 0 21.5 0.5t16.5 0.5l3 -5l-10 -53q-4 0 -24 1t-43 2t-39 1q-14 0 -29.5 -1t-30 -3t-23.5 -3l-9 -1l6 55q31 3 44.5 19t17.5 56
q2 14 6 48.5t8.5 80t9 92.5t9 90t7 72t2.5 35q0 18 -8 28.5t-25.5 16.5t-47.5 8l-4 6l8 45q8 0 30 -1t46.5 -2.5t39.5 -1.5q16 0 34 1t32.5 2t19.5 1q28 -94 54 -174.5t47 -142t34 -99t15 -45.5h6q2 7 15.5 45t35 99.5t48.5 141.5t57 173q6 0 22 -1t34.5 -1h32.5
q16 0 40.5 1.5t43.5 3t22 1.5l3 -4l-6 -47q-43 -4 -60 -16t-17 -38q0 -11 1.5 -42t4.5 -74.5t6.5 -92.5t7 -97t6.5 -88q6 -56 15.5 -74.5t32.5 -18.5q9 0 18 1t10 1l3 -5l-9 -53q-2 0 -19 1t-39 1.5t-39 0.5t-37 -1t-39.5 -3t-32 -3t-13.5 -1l6 55q30 4 43.5 15.5t13.5 34.5
q0 8 -2 37.5t-5 71t-6.5 87.5t-6.5 87.5t-5.5 71t-2.5 37.5h-7q-19 -53 -40 -112t-44 -123t-46 -130t-46 -134z" />
    <glyph glyph-name="N" unicode="N" horiz-adv-x="723" 
d="M550 -34q-66 105 -127 196.5t-108 160.5t-74.5 108.5l-27.5 39.5h-7l-4 -376q1 -23 8 -32.5t25 -9.5q5 0 16.5 0.5t21.5 0.5h10l3 -5l-9 -53l-12 0.5t-30 1.5t-38 1.5t-36 0.5q-23 0 -47.5 -2t-41.5 -4l-17 -2l6 55q31 4 45.5 18t15.5 45l13 419q0 32 -17.5 44.5
t-67.5 17.5l-4 7l7 46l17 -1t40 -2.5t42 -1.5t37 1t30 2l12 1q46 -71 90 -138.5t83 -126t69.5 -102t47.5 -68l17 -24.5h7l-1 359q0 23 -8 33t-25 10q-12 0 -23.5 -0.5t-12.5 -0.5l-3 6l8 52l11.5 -0.5t29 -1.5t36 -1.5t33.5 -0.5q22 0 47 1.5t42.5 3.5l17.5 2l-5 -55
q-34 -4 -49.5 -19t-16.5 -44l-14 -549z" />
    <glyph glyph-name="O" unicode="O" horiz-adv-x="684" 
d="M316 -12q-85 0 -148 38.5t-98 109t-35 164.5q0 76 24 140t68.5 111.5t104.5 73.5t131 26q88 0 152 -38.5t99.5 -108t35.5 -163.5q0 -77 -25 -141.5t-69.5 -111.5t-105.5 -73.5t-134 -26.5zM345 54q57 0 98.5 29.5t65 83.5t23.5 127q0 88 -25 150.5t-69.5 96.5t-105.5 34
q-55 0 -96 -29.5t-63.5 -83t-22.5 -126.5q0 -87 24 -150t68 -97.5t103 -34.5z" />
    <glyph glyph-name="P" unicode="P" horiz-adv-x="562" 
d="M53 -8l7 55q43 8 57 24t14 59l1 403q0 32 -7 43t-28 11q-9 0 -21.5 -1l-12.5 -1l-4 5l8 51q5 0 25.5 -0.5t46 -1t45.5 -0.5q12 0 34 0.5t46 1.5t40.5 1.5l16.5 0.5q60 0 102.5 -13t70 -38t40.5 -59t13 -74q0 -44 -19 -83.5t-52 -71t-74.5 -49.5t-87.5 -18h-85l-1 -88
q0 -41 3 -62t13 -27.5t29 -6.5q14 0 32 1.5l18 1.5l2 -5l-9 -54l-11.5 0.5t-28.5 1t-35 1t-31 0.5q-20 0 -46.5 -1t-51.5 -2t-41.5 -2.5t-17.5 -2.5zM330 295q108 20 108 147q0 71 -41 104t-129 33q-17 0 -20.5 -2t-4.5 -14q-4 -61 -7 -127t-5 -127z" />
    <glyph glyph-name="Q" unicode="Q" horiz-adv-x="689" 
d="M697 -221q-34 0 -66 8t-72 30t-98 63t-145 108q-85 0 -148 38.5t-98 109t-35 164.5q0 76 24 140t68.5 111.5t104.5 73.5t131 26q88 0 152 -38.5t99.5 -108t35.5 -163.5q0 -81 -29 -148.5t-80 -116t-118 -69.5v-7q64 -44 115 -71t94 -40t81 -13q35 0 58.5 5l23.5 5l6 -4
l8 -29l-9.5 -7.5t-23.5 -18.5t-29.5 -22t-28.5 -18.5t-21 -7.5zM345 54q57 0 98.5 29.5t65 83.5t23.5 127q0 88 -25 150.5t-69.5 96.5t-105.5 34q-55 0 -96 -29.5t-63.5 -83t-22.5 -126.5q0 -87 24 -150t68 -97.5t103 -34.5z" />
    <glyph glyph-name="R" unicode="R" horiz-adv-x="625" 
d="M513 -16q-28 0 -56 25t-52 69l-97 186h-78l-2 -133q0 -35 4.5 -52t20 -22t47.5 -6l2 -4l-9 -51l-12 0.5t-30 1t-38 1t-38 0.5q-27 1 -56.5 0t-50 -2.5l-20.5 -1.5l9 55q45 5 59.5 21t14.5 59l1 405q0 30 -7 41t-28 11q-9 0 -21.5 -1l-12.5 -1l-4 5l8 52l12.5 -0.5
t31.5 -1t39 -1t34 -0.5t36.5 0.5t45.5 1.5t38.5 1.5l15.5 0.5q102 0 159 -42.5t57 -120.5q0 -59 -36.5 -109t-104.5 -82l100 -160q29 -46 55.5 -66t63.5 -20l5 -6l-7 -42zM330 324q3 2 18.5 9t34 22t32 41t13.5 66q0 61 -41.5 91.5t-126.5 30.5q-10 0 -13.5 -4.5t-4.5 -18.5
q-4 -71 -6.5 -124t-3.5 -103z" />
    <glyph glyph-name="S" unicode="S" horiz-adv-x="534" 
d="M220 -12q-50 0 -87 9t-58 18l-21 9l-6 11l2 14.5t4.5 38t5 55t2.5 65.5l61 5q0 -64 10 -98.5t36.5 -47.5t75.5 -13q55 0 89.5 26t34.5 70q0 31 -22 53t-56 41t-72 38q-40 20 -77 44t-60.5 56t-23.5 77q0 56 32 99t87.5 68t126.5 25q47 0 83 -6t57 -13l21 -7l4 -9
l-4.5 -23t-9.5 -62t-9 -85l-54 -5l-8 6l1.5 12.5t1.5 32.5q0 49 -24.5 68.5t-85.5 19.5q-49 0 -81 -24.5t-32 -61.5q0 -28 19 -49.5t49.5 -39.5t65.5 -35q43 -21 85 -46t69.5 -57.5t27.5 -80.5q0 -59 -32.5 -103.5t-91 -69.5t-136.5 -25z" />
    <glyph glyph-name="T" unicode="T" horiz-adv-x="556" 
d="M118 -5l8 53q46 4 67 12.5t27 31.5t6 71v420q-51 -1 -80 -5t-43.5 -16t-21 -37.5t-11.5 -69.5l-63 -5q4 32 6.5 66t4.5 67t3 59l10 9l90 -11h311l92 11l10 -9q1 -28 2.5 -61.5t4.5 -66t6 -59.5l-63 -5q-6 46 -13 72t-20.5 38.5t-40.5 16.5t-74 6q-3 -32 -5.5 -86
t-4 -118.5t-3 -131.5t-1.5 -125q0 -37 13 -52.5t43 -15.5q27 0 54 3l3 -5l-9 -56q-23 2 -53.5 2.5t-58.5 1t-46 0.5q-17 0 -43 -0.5t-54.5 -2t-52.5 -2.5z" />
    <glyph glyph-name="U" unicode="U" horiz-adv-x="670" 
d="M322 -12q-109 0 -166.5 56t-57.5 163v326q0 32 -6.5 43t-28.5 11q-9 0 -21 -1l-12 -1l-2 4l7 53l22.5 -1t51.5 -1.5t53 -0.5q15 0 34.5 1.5t36.5 2.5t28.5 2.5l11.5 1.5l-6 -55q-34 -4 -46.5 -15.5t-13.5 -39.5l-8 -293q0 -89 38.5 -137t110.5 -48t110 39t38 114
q0 20 -0.5 58.5t-1.5 83.5t-1.5 85.5t-1 67l-0.5 26.5q-2 34 -8 44t-27 10q-9 0 -24 -1l-15 -1l-2 4l8 53l12 -0.5t30.5 -1t38 -1t33.5 -0.5q24 0 48.5 1.5t41.5 4l17 2.5l-5 -54q-40 -7 -52.5 -16.5t-12.5 -38.5v-325q0 -108 -65.5 -166.5t-186.5 -58.5z" />
    <glyph glyph-name="V" unicode="V" horiz-adv-x="616" 
d="M241 -16l-7 24t-18.5 65.5t-28 96t-34.5 115.5t-37 123t-37 119q-9 30 -29 44t-55 15l-3 5l7 51l13 -0.5t32.5 -1t40 -1t34.5 -0.5q24 0 51 1.5t52 3.5t40.5 3.5l15.5 1.5l4 -8l-5 -48q-34 -2 -52 -6.5t-24.5 -12t-6.5 -21.5q0 -8 6 -35t15.5 -67t21.5 -86t24 -90.5
t21.5 -81.5t16 -59l6.5 -22h11q11 27 25.5 67t31.5 87t33 94.5t29.5 88.5t21.5 69t8 35q0 19 -14 27.5t-47 8.5h-47l-3 5l6 51l23 -1.5t56.5 -3t66.5 -1.5q25 0 51 0.5t43.5 1.5l17.5 1l-7 -56q-28 -1 -39.5 -10.5t-21.5 -38.5l-202 -532z" />
    <glyph glyph-name="W" unicode="W" horiz-adv-x="946" 
d="M234 -16l-6.5 24t-18 66t-26.5 96t-32.5 115t-36 123t-36.5 119q-9 30 -28.5 44t-53.5 15q-1 1 -1.5 2.5t-1.5 2.5l7 51l21.5 -1t49.5 -1.5t46 -0.5q38 0 72.5 2.5t57.5 5l23 2.5l4 -8l-5 -48q-33 -2 -50.5 -6.5t-24 -12t-6.5 -20.5q0 -9 6 -37t15.5 -68t21.5 -86
t23.5 -90.5t21 -81t15 -58l5.5 -21.5h10q11 30 23.5 65.5t26 74.5t26.5 79.5t26 79.5t25 74q-3 13 -6 25.5t-7 24.5q-8 28 -27.5 39t-55.5 12l-4 5l8 51l13.5 -0.5t33.5 -1t41 -1t35 -0.5q33 0 68.5 2.5t60 5l24.5 2.5l4 -8l-5 -48q-33 -2 -50.5 -6t-24 -12t-6.5 -22
q0 -8 5.5 -35t15.5 -67.5t21.5 -86t23 -90t21.5 -81.5t16 -59l6 -22h9q10 27 24 67.5t30.5 88t32.5 95t29 89t21 70t8 35.5q0 18 -14 25t-47 7h-44l-4 5l8 51l22 -1.5t54.5 -3t64.5 -1.5q24 0 49 0.5t42 1.5l17 1l-7 -56q-26 -1 -37 -10.5t-22 -38.5l-195 -532l-104 -21
q-1 7 -10 42t-23.5 90t-33.5 123t-41 140h-8l-126 -374z" />
    <glyph glyph-name="X" unicode="X" horiz-adv-x="667" 
d="M362 -7l-4 7l5 48q34 2 50.5 9t16.5 23q0 8 -4.5 18t-13.5 22l-99 149l-81 -110q-24 -34 -34 -50.5t-10 -28.5q0 -27 54 -30l3 -6l-6 -50l-13 1t-33 2t-39.5 2t-33.5 1q-15 0 -33 -0.5t-34.5 -1.5t-27.5 -1.5l-11 -0.5l-4 8l7 49q26 9 51 27.5t50.5 46.5t52.5 63l106 134
l-121 180q-17 27 -37 43.5t-43.5 26t-53.5 14.5l-2 4l6 50l15 -0.5t38.5 -1t49.5 -1t48 -0.5q27 0 52.5 1t45.5 3t32.5 3l12.5 1l3 -8l-3 -45q-37 -2 -53.5 -9.5t-16.5 -23.5q0 -14 28.5 -59.5t73.5 -114.5q16 21 35.5 48t38 53t31 47t12.5 30q0 13 -12.5 19t-41.5 9l-2 4
l6 48q5 0 26.5 -1.5t47 -3t45.5 -1.5q22 0 46 1t41 2l17 1l4 -7l-6 -48q-30 -7 -50.5 -19t-39.5 -32t-44 -54l-116 -151l134 -194q28 -40 59 -60t76 -24l2 -4l-7 -53l-13.5 0.5t-33.5 1t-41.5 1t-38.5 0.5q-16 0 -37.5 -0.5t-43.5 -1.5t-41.5 -2.5t-31 -2z" />
    <glyph glyph-name="Y" unicode="Y" horiz-adv-x="564" 
d="M141 -11l6 55q37 6 55 16.5t23 30.5t5 55v38q0 28 -5.5 51t-23.5 58l-93 186q-18 36 -32 58.5t-33.5 34t-55.5 16.5l-2 4l7 50l12 -0.5t30.5 -1t39 -1t36.5 -0.5q20 0 45.5 1t49.5 3t39.5 3l15.5 1l4 -8l-5 -45q-40 -3 -54 -10t-14 -24q0 -8 9.5 -33t24 -57.5t29 -64.5
t25.5 -54.5t12 -25.5h7l99 192q15 29 15 49q0 12 -14 18.5t-44 8.5l-2 4l7 47q5 0 26.5 -1t48 -2.5t45.5 -1.5q22 0 44 1t37.5 2l15.5 1l4 -7l-7 -48q-31 -7 -50.5 -21t-35.5 -39t-41 -69l-98 -177q-9 -18 -13.5 -37.5t-5.5 -48t-1 -75.5q-1 -38 8.5 -52.5t36.5 -14.5
q16 0 32.5 1.5l16.5 1.5l3 -5l-9 -56l-15.5 1t-38.5 1.5t-47.5 1t-42.5 0.5q-20 0 -42.5 -2t-43 -4t-33 -3.5z" />
    <glyph glyph-name="Z" unicode="Z" horiz-adv-x="573" 
d="M46 -4l-18 38l363 549l-153 -7q-45 -3 -70.5 -16t-38 -40.5t-17.5 -76.5l-64 -5l2.5 18t6 49t6 67t3.5 70l10 9l176 -11l273 -5l14 -34q-68 -91 -128.5 -177t-110 -160t-84.5 -128.5t-52 -81.5l183 9q51 2 81 40.5t44 120.5l63 6l-3 -19.5t-7.5 -52t-8.5 -70t-5 -74.5
l-17 -17l-375 6z" />
    <glyph glyph-name="bracketleft" unicode="[" horiz-adv-x="312" 
d="M286 -135l-196 11l1 29t3 74.5t3.5 97t2.5 98.5t1 77t-1 77t-2.5 99.5t-3.5 98.5t-3 75l-1 29l198 11l4 -7l-6 -42l-110 -22v-635l112 -22l4 -8z" />
    <glyph glyph-name="backslash" unicode="\" horiz-adv-x="329" 
d="M232 -110l-7 27t-19 73.5t-27 104.5t-31 120q-13 49 -29 108.5t-32.5 119t-30 109.5t-22 80.5l-8.5 30.5l10 12h61l115 -449q15 -57 31 -115t30 -105.5t22.5 -77l8.5 -29.5l-8 -9h-64z" />
    <glyph glyph-name="bracketright" unicode="]" horiz-adv-x="312" 
d="M24 -135l-4 7l7 42l109 22v635l-112 22l-4 8l7 41l196 -11l-1 -29t-2.5 -74.5t-3.5 -97t-3 -98.5t-1 -77t1 -77t2.5 -99t3.5 -98.5t3 -75.5l1 -29z" />
    <glyph glyph-name="asciicircum" unicode="^" horiz-adv-x="499" 
d="M289 474l8.5 -20t21 -51t27 -64.5t26.5 -60.5q13 -30 27.5 -61.5t26.5 -57.5t19.5 -42.5l7.5 -16.5l-51 -35l-13 3l-11.5 26.5t-29.5 66.5t-35 80l-66 155h-6l-56 -141q-13 -30 -25.5 -63t-23 -61.5t-17 -46l-6.5 -17.5l-61 12l-6 11l6.5 17.5t18 45t25.5 61.5t28 67
l84 198l69 3z" />
    <glyph glyph-name="underscore" unicode="_" horiz-adv-x="456" 
d="M0 -159l-7 11l11 60h31.5t62 -0.5t75 -0.5h71.5q30 0 65.5 1t68.5 2q35 1 57 1.5t22 1.5l6 -12l-9 -63h-101h-108.5t-103.5 -0.5t-86 -0.5h-55z" />
    <glyph glyph-name="grave" unicode="`" horiz-adv-x="398" 
d="M246 522q-43 36 -84 66.5t-66.5 49l-25.5 18.5l-2 13l45 53l12 1l13.5 -15t36.5 -40.5t51 -55.5l56 -60l-24 -27z" />
    <glyph glyph-name="a" unicode="a" horiz-adv-x="474" 
d="M377 -12q-42 0 -66 20t-28 59l-6 2q-22 -22 -43.5 -39.5t-38.5 -27.5t-28 -10q-38 0 -68 17.5t-47 47.5t-17 68q0 30 15 52.5t40 29.5l191 49l1 35q0 46 -22.5 72.5t-64.5 26.5q-28 0 -59.5 -13.5t-59.5 -35.5l-6 4l-15 50q28 16 62 33t64.5 28.5t46.5 11.5
q50 0 83.5 -16.5t50.5 -46t17 -69.5q0 -13 -3 -41t-7 -62t-6.5 -65.5t-2.5 -50.5q0 -21 10.5 -32.5t28.5 -11.5q15 0 30.5 7.5t23.5 14.5l15 -19q-9 -15 -23.5 -33.5t-32 -33.5t-35.5 -21zM193 72q17 0 40 11.5t42 28.5l4 98l-123 -35q-26 -8 -26 -38q0 -27 17.5 -46
t45.5 -19z" />
    <glyph glyph-name="b" unicode="b" horiz-adv-x="510" 
d="M229 -11q-36 0 -68.5 3.5t-53 6.5l-20.5 3l-10 9v602q0 30 -9 42.5t-30 12.5q-7 0 -14 -1t-8 -1l-4 4l5 42q30 3 60 8.5t56 10.5t41.5 8l15.5 3l6 -16q-5 -7 -9.5 -49.5t-8 -113t-6.5 -164.5q43 31 74.5 49.5t40.5 18.5q58 0 101 -27t67 -75.5t24 -114.5q0 -74 -33 -133
t-89.5 -93.5t-127.5 -34.5zM254 56q59 0 92 41.5t33 114.5q0 51 -15 90.5t-41.5 62t-60.5 22.5q-19 0 -45 -13t-47 -32l-3 -268q14 -7 39 -12.5t48 -5.5z" />
    <glyph glyph-name="c" unicode="c" horiz-adv-x="427" 
d="M245 -12q-65 0 -113 28t-74.5 78t-26.5 119q0 73 31 130.5t84.5 91t121.5 33.5q34 0 61.5 -4.5t43.5 -10l16 -5.5l4 -7l-4.5 -19.5t-9.5 -52.5t-8 -74l-51 -3v32q0 36 -20 56.5t-54 20.5q-54 0 -83 -39.5t-29 -112.5q0 -85 33 -132.5t92 -47.5q27 0 52.5 8.5t41 16
l15.5 7.5l7 -3l14 -40l-14.5 -10.5t-37 -24.5t-47.5 -24.5t-45 -10.5z" />
    <glyph glyph-name="d" unicode="d" horiz-adv-x="537" 
d="M445 -12q-83 0 -94 71l-7 3q-50 -35 -80 -53t-41 -18q-57 0 -100.5 27t-67.5 75t-24 113q0 74 33 133t90.5 93.5t127.5 34.5q13 0 28 -1t33 -2v149q0 29 -9 42t-30 13q-8 0 -16.5 -2l-8.5 -2l5 47q30 4 60 9t55.5 10.5t40 8.5l14.5 3l8 -15q-5 -7 -9 -43.5t-8 -96.5
t-7 -135t-4.5 -160.5t-1.5 -174.5q0 -21 10 -32.5t27 -11.5q15 0 27 5.5t19.5 11l7.5 5.5l15 -19l-7.5 -11t-20 -27t-29.5 -30t-36 -20zM248 69q17 0 33.5 6.5t30.5 15.5t22.5 15.5l8.5 6.5v264l-23.5 10.5t-63.5 10.5q-58 0 -91.5 -41.5t-33.5 -115.5q0 -49 15.5 -88.5
t42 -61.5t59.5 -22z" />
    <glyph glyph-name="e" unicode="e" horiz-adv-x="454" 
d="M249 -12q-66 0 -115 28t-76 78.5t-27 118.5q0 53 18 99t49.5 81t72.5 55t88 20q158 0 158 -156q0 -14 -2.5 -29t-4.5 -24l-12 -11h-268q0 -80 32 -126t90.5 -52t137.5 30l6 -3l14 -38q-21 -15 -49.5 -31.5t-58 -28t-53.5 -11.5zM132 293l161 8q13 2 17.5 6.5t4.5 18.5
q0 39 -19 59t-55 20q-43 0 -72.5 -29.5t-36.5 -82.5z" />
    <glyph glyph-name="f" unicode="f" horiz-adv-x="335" 
d="M39 -5l6 49q29 4 43 18.5t14 39.5v254q-1 24 -14 32t-50 9l-4 6l7 41l61 11v6q0 87 29.5 150t83 97t126.5 34q51 0 82.5 -10l31.5 -10l4 -12l-10.5 -21.5t-22.5 -53.5l-12 -3l-14.5 9.5t-39 18.5t-56.5 9q-37 0 -60 -18t-35 -56t-13 -98v-48q36 0 66 1t48.5 1.5l18.5 0.5
l4 -3l-11 -60l-17 1t-46 1.5t-64 0.5l-4 -288q0 -51 47 -51q25 0 43 1l18 1l2 -4l-8 -54l-14.5 1t-36.5 1t-44 0.5t-38 0.5q-21 0 -42 -0.5t-39 -2t-29 -2z" />
    <glyph glyph-name="g" unicode="g" horiz-adv-x="505" 
d="M217 -242q-50 0 -86.5 16.5t-56.5 47.5t-20 72q13 16 40 38.5t59 44.5v6q-50 9 -77 34.5t-29 65.5q18 18 38.5 34.5t44.5 31.5v16l59 -18q-27 -15 -39 -27t-12 -24q0 -19 24.5 -28t62 -13t80.5 -9t81 -16t62 -32t24 -59q0 -34 -21 -66.5t-57.5 -58.5t-82 -41t-94.5 -15z
M253 -182q36 0 66 12t48.5 32t18.5 44q0 18 -13.5 29t-52.5 19.5t-115 18.5q-25 -19 -38 -41.5t-13 -44.5q0 -31 26.5 -50t72.5 -19zM253 183q42 0 65 27t23 76q0 55 -27.5 88t-73.5 33q-42 0 -65 -27.5t-23 -77.5q0 -54 27.5 -86.5t73.5 -32.5zM233 129q-53 0 -93 19.5
t-62.5 55t-22.5 81.5q0 52 26 93t70.5 66t98.5 25q30 0 55 -5.5t46 -5.5q20 2 57 10.5t82 21.5l4 -5l-12 -65q-20 -3 -42.5 -4.5t-37.5 -3.5l-4 -5q40 -43 40 -101q0 -50 -27.5 -90t-73.5 -63.5t-104 -23.5z" />
    <glyph glyph-name="h" unicode="h" horiz-adv-x="538" 
d="M31 48q28 3 39 14.5t11 39.5v511q0 29 -9 41.5t-31 12.5h-21l-5 4l5 41q26 3 57.5 8.5t62.5 11t53 10.5l6 -16q-5 -7 -10 -51.5t-8.5 -118.5t-6.5 -169q10 9 28.5 22.5t40 27t41.5 22.5t32 9q68 0 105.5 -33.5t37.5 -95.5q0 -14 -2.5 -44.5t-6 -67.5t-6 -70.5t-2.5 -53.5
q0 -28 7.5 -40.5t25.5 -12.5q6 0 16 0.5t17 1.5l2 -4l-8 -51q-19 1 -48.5 2t-49.5 1q-12 0 -30 -1.5t-38 -3.5t-39 -5l5 50q28 7 40 21.5t12 39.5l5 187q0 47 -19 71.5t-56 24.5q-22 0 -53.5 -14t-57.5 -35q-1 -33 -1.5 -69t-1 -76.5t-0.5 -87.5q0 -29 8 -40t25 -11
q6 0 15 0.5t16 0.5l2 -4l-9 -51q-20 1 -49 2t-50 1t-51 -0.5t-53 -2.5z" />
    <glyph glyph-name="i" unicode="i" horiz-adv-x="287" 
d="M36 -12l6 51q30 7 43 22.5t13 41.5v237q0 29 -9 42t-30 13q-7 0 -15.5 -2l-8.5 -2l4 46q30 5 59 10t53 10t38.5 8l14.5 3l7 -14q-5 -10 -9.5 -43t-7.5 -81.5t-4.5 -107t-1.5 -121.5q0 -26 7.5 -38t25.5 -12q8 0 20 1l12 1l2 -5l-9 -51l-9.5 0.5t-24.5 1t-32 1t-32 0.5
q-23 0 -49 -3t-44.5 -6zM136 571q-29 0 -43.5 18t-14.5 42q0 29 19 49t49 20q28 0 43 -17.5t15 -42.5q0 -29 -18.5 -49t-49.5 -20z" />
    <glyph glyph-name="j" unicode="j" horiz-adv-x="260" 
d="M35 -242l-23 23l2 10q29 29 44.5 60t22 75.5t6.5 110.5v303q0 31 -8 43t-30 12q-9 0 -18.5 -1.5l-9.5 -1.5l5 46q26 3 54.5 8t53.5 10.5t40.5 8.5l15.5 3l6 -14q-9 -17 -14 -137t-5 -331q0 -71 -37 -130.5t-105 -97.5zM129 590q-27 0 -42.5 16.5t-15.5 43.5q0 30 19 49
t49 19q26 0 42 -16t16 -44q0 -30 -19 -49t-49 -19z" />
    <glyph glyph-name="k" unicode="k" horiz-adv-x="506" 
d="M30 44q25 4 35.5 13.5t13 28.5t2.5 49v478q0 53 -33 54q-9 1 -18.5 -0.5t-13.5 -1.5q0 5 0.5 9t0.5 7l3 31q30 3 60 8.5t56 10.5t41.5 8l15.5 3l6 -16q-4 -7 -8.5 -43t-8 -95.5t-6.5 -136.5t-4.5 -166t-1.5 -184q0 -28 8 -39.5t25 -11.5q8 0 19.5 1l11.5 1l3 -5l-10 -51
l-10 1t-25.5 1.5t-32 1t-31.5 0.5q-22 0 -46.5 -1.5t-41 -3l-16.5 -1.5zM191 234l2 19l109 107q13 12 17.5 19.5t4.5 14.5q0 11 -12.5 16t-40.5 5l-3 5l9 38l18.5 -0.5t44 -1t46.5 -0.5t44.5 1.5t40 2.5l16.5 1l3 -5l-9 -42q-34 -10 -67.5 -37t-66 -59t-63.5 -62l96 -132
q31 -41 57 -59.5t56 -19.5l3 -6l-6 -38l-14.5 -3.5t-32 -7t-27.5 -4.5q-11 0 -21 2t-18 6q-20 7 -37 24.5t-39 51.5z" />
    <glyph glyph-name="l" unicode="l" horiz-adv-x="253" 
d="M22 -11l6 51q26 6 37 17.5t13.5 30t2.5 47.5v478q0 26 -4.5 37.5t-18 14.5t-39.5 1l-4 3l5 43q43 5 86.5 12.5t86.5 17.5l6 -16q-4 -10 -8.5 -47.5t-8 -97.5t-6.5 -136.5t-4.5 -164t-1.5 -179.5q0 -27 7.5 -39t25.5 -12l34 2l2 -5l-9 -50q-21 1 -50 2t-50 1
q-19 0 -48.5 -3t-59.5 -8z" />
    <glyph glyph-name="m" unicode="m" horiz-adv-x="835" 
d="M322 40q27 7 39 21.5t13 39.5l3 187q0 47 -19 71.5t-56 24.5q-20 0 -41.5 -8.5t-38.5 -19t-27 -18.5q-1 -26 -2.5 -61l-3 -70t-2.5 -63.5t-1 -41.5q0 -28 7.5 -39.5t25.5 -11.5q8 0 19.5 1l11.5 1l3 -4l-10 -52l-16.5 1t-39 1.5t-41.5 0.5q-23 0 -48 -0.5t-42.5 -1.5
l-17.5 -1l7 51q29 3 40.5 14.5t11.5 39.5v230q0 34 -11 47t-38 13h-12l-3 5l4 41q39 7 75.5 13.5t60 12l23.5 5.5l8 -9l-5 -20.5t-7 -46.5l3 -3q10 7 29 20.5t40 27t40 22t31 8.5q51 0 86 -21t48 -60q8 7 26 20.5t40.5 27t43 23.5t33.5 10q66 0 104.5 -34.5t38.5 -94.5
q0 -14 -2.5 -44.5t-6 -67.5t-5.5 -70.5t-2 -53.5q0 -29 8 -41t26 -12q9 0 21 1l12 1l2 -4l-10 -51l-10 0.5t-25.5 1t-32 1t-31.5 0.5t-32.5 -1t-33.5 -2t-26.5 -1.5l-10.5 -0.5l6 50q26 4 37 16.5t12 39.5l3 187q0 47 -19 71.5t-56 24.5q-20 0 -40.5 -7.5t-37.5 -18
t-27 -18.5l-12 -237q0 -28 7.5 -40.5t25.5 -12.5q9 0 20.5 1l11.5 1l2 -4l-9 -51l-9.5 0.5t-24.5 1t-31.5 1t-30.5 0.5q-15 0 -33.5 -1.5t-35 -3.5t-27.5 -3.5l-11 -1.5z" />
    <glyph glyph-name="n" unicode="n" horiz-adv-x="554" 
d="M324 40q27 7 39 21.5t12 39.5l4 187q0 47 -19 71.5t-56 24.5q-21 0 -42.5 -8.5t-38.5 -19t-26 -17.5q-1 -27 -2.5 -62t-3.5 -70t-3 -63.5t-1 -41.5q0 -28 8 -39.5t26 -11.5q8 0 19.5 1l11.5 1l2 -4l-9 -52l-16.5 1t-39 1.5t-42.5 0.5q-23 0 -48 -1.5t-42.5 -3l-17.5 -1.5
l7 51q29 4 40.5 16.5t11.5 40.5v230q0 34 -10.5 47t-37.5 13h-12l-4 5l4 41q40 7 76.5 13.5t60 12l23.5 5.5l7 -9l-4.5 -20.5t-6.5 -46.5l3 -4q10 8 29 21.5t40 26.5t40 22t30 9q67 0 105 -34.5t38 -94.5q0 -14 -2.5 -44.5t-5.5 -67.5t-5.5 -70.5t-2.5 -53.5q0 -28 8 -40.5
t26 -12.5q8 0 20.5 1l12.5 1l2 -4l-9 -51l-9.5 0.5t-25 1t-32 1t-30.5 0.5q-16 0 -34 -1.5t-35 -3.5t-27.5 -3.5l-10.5 -1.5z" />
    <glyph glyph-name="o" unicode="o" horiz-adv-x="506" 
d="M236 -12q-60 0 -105.5 28t-71 79t-25.5 118q0 74 30.5 131.5t84.5 90.5t121 33q61 0 106.5 -28t70.5 -78.5t25 -118.5q0 -73 -30.5 -131t-84 -91t-121.5 -33zM260 49q50 0 78.5 40.5t28.5 113.5q0 61 -15.5 105.5t-43 68.5t-65.5 24q-49 0 -77.5 -41t-28.5 -114
q0 -62 15 -106t43 -67.5t65 -23.5z" />
    <glyph glyph-name="p" unicode="p" horiz-adv-x="532" 
d="M38 -237l6 49q31 4 40 17t9 51q1 18 1.5 47.5t1 60.5t0.5 53v291q0 34 -10.5 47t-37.5 13h-12l-4 5l4 41q40 7 76.5 13.5t59.5 12l23 5.5l8 -9l-4.5 -18.5t-6.5 -39.5l4 -6q42 33 70.5 51t38.5 18q59 0 102.5 -27t68.5 -75.5t25 -112.5q0 -56 -19.5 -103.5t-54.5 -83
t-81.5 -55t-101.5 -19.5q-10 0 -23.5 1t-24.5 1.5l-11 0.5v-48v-50q0 -43 8.5 -59t34.5 -16q9 0 19.5 1t17.5 1l2 -4l-9 -48h-23t-27.5 0.5t-29 0.5h-27.5q-28 0 -54 -1.5t-42.5 -3.5zM276 56q58 0 91.5 41.5t33.5 114.5q0 51 -15 89t-42 60t-60 22q-18 0 -43 -11t-47 -29
q-2 -40 -3.5 -87.5t-2.5 -95t-1 -87.5q16 -6 40.5 -11.5t48.5 -5.5z" />
    <glyph glyph-name="q" unicode="q" horiz-adv-x="516" 
d="M265 -234l5 48q43 2 55.5 13t13.5 48l4 185q-48 -34 -79 -52.5t-41 -18.5q-57 0 -100.5 27t-67.5 76t-24 114q0 74 33 133t90.5 93.5t127.5 34.5q22 0 48 -2t52 -7q25 9 42.5 16.5l17.5 7.5l9 -10q-4 -11 -8 -56.5t-6.5 -120.5t-4 -176t-1.5 -223q0 -48 6.5 -62t27.5 -14
q11 0 18.5 0.5l7.5 0.5l2 -2l-7 -49h-107q-17 0 -37.5 -0.5t-37.5 -1.5t-28 -1.5zM248 67q17 0 33.5 7t30.5 16t22.5 16l8.5 7v264l-23.5 10.5t-63.5 10.5q-58 0 -91.5 -41.5t-33.5 -115.5q0 -50 15.5 -89.5t42 -62t59.5 -22.5z" />
    <glyph glyph-name="r" unicode="r" horiz-adv-x="396" 
d="M52 45q30 3 40 18.5t10 58.5v210q0 34 -9 47.5t-31 13.5q-7 0 -13.5 -1.5l-6.5 -1.5l-5 7l4 40q37 7 72.5 14t59.5 12.5l24 5.5l8 -7l-2.5 -15.5t-4.5 -38t-2 -45.5l4 -3q32 46 70.5 74.5t70.5 28.5q16 0 24.5 -2l8.5 -2l3 -6l-2 -14.5t-5.5 -38.5t-6 -52.5t-4.5 -54.5
l-50 -3q0 44 -5 58t-23 14q-19 0 -40.5 -15t-40.5 -42l-1 -18t-2 -45.5t-2.5 -56.5t-2.5 -51t-1 -28q0 -30 9.5 -41.5t34.5 -11.5q13 0 30 1.5l17 1.5l2 -5l-10 -54l-11.5 0.5t-29.5 1t-37.5 1t-35.5 0.5q-30 0 -56 -1t-42 -2l-16 -1z" />
    <glyph glyph-name="s" unicode="s" horiz-adv-x="405" 
d="M170 -12q-37 0 -65.5 6t-44 12l-15.5 6l-4 8q2 13 4.5 37.5t5 51.5t2.5 44l44 5q1 -59 23 -85t71 -26q33 0 56 15t23 37q0 15 -9 28t-32.5 28.5t-67.5 36.5q-58 29 -84.5 60t-26.5 69q0 43 25 76t69.5 52t99.5 19q45 0 75.5 -8.5l30.5 -8.5l3 -7l-3.5 -18t-8 -46
t-7.5 -61l-46 -4l1 9t1 15q0 36 -18.5 52.5t-57.5 16.5q-31 0 -52 -14.5t-21 -35.5q0 -22 18.5 -40.5t60.5 -40.5q56 -27 87 -49.5t43.5 -44.5t12.5 -49q0 -40 -26 -73.5t-70 -53t-97 -19.5z" />
    <glyph glyph-name="t" unicode="t" horiz-adv-x="331" 
d="M206 -12q-69 0 -99.5 28.5t-30.5 93.5v236q0 28 -11.5 39t-44.5 12l-6 7l5 38q28 14 54 30.5t46.5 32t32 25.5l11.5 10l24 -10l-3 -21t-7 -60l134 3l4 -3l-10 -60l-132 3q-3 -45 -5 -104t-2 -131q0 -47 16.5 -67.5t55.5 -20.5q23 0 43.5 8.5l20.5 8.5l11 -29l-12.5 -10.5
t-31 -24t-36 -24t-27.5 -10.5z" />
    <glyph glyph-name="u" unicode="u" horiz-adv-x="543" 
d="M83 342q0 26 -8.5 39t-26.5 13q-9 0 -17.5 -1.5l-8.5 -1.5l5 46q27 4 55 9.5t52 10.5t39 8l15 3l7 -14q-5 -13 -9.5 -43t-8.5 -71t-6 -86.5t-2 -90.5q0 -90 72 -90q29 0 56 16.5t50 31.5v220q0 30 -10 41t-38 11q-3 0 -11.5 -0.5l-8.5 -0.5l5 46q30 4 59.5 9t54 9.5
t40 7.5l15.5 3l7 -14q-6 -15 -11.5 -65t-9 -121.5t-3.5 -149.5q0 -21 10.5 -32.5t27.5 -11.5q15 0 27 5.5t20 11l8 5.5l15 -18l-9 -13t-23.5 -30t-31 -30.5t-31.5 -15.5q-86 0 -95 79l-6 3q-44 -36 -79 -59t-48 -23q-69 0 -106 31t-37 90z" />
    <glyph glyph-name="v" unicode="v" horiz-adv-x="455" 
d="M171 -16l-6.5 21.5t-17 57.5t-23.5 78t-25.5 85t-23.5 78t-18 55q-17 49 -66 51l-2 4l7 43h16.5t37.5 -0.5t34 -0.5q32 0 61 2t47.5 3.5l18.5 1.5l2 -5l-7 -43q-32 -1 -43 -6.5t-11 -19.5q0 -6 5 -30t14 -57.5t18 -68.5t18 -66t14 -50l5 -19h7q32 84 56 144.5t36.5 97
t12.5 47.5q0 13 -8.5 17.5t-30.5 4.5h-33l-4 6l6 42h17.5t42.5 -0.5t49 -0.5q19 0 38.5 0.5t33 0.5h13.5l-7 -47q-22 -4 -32.5 -16t-27.5 -52l-135 -342z" />
    <glyph glyph-name="w" unicode="w" horiz-adv-x="720" 
d="M171 -16l-6 21.5t-16.5 57.5t-23 78t-25 85t-23 78t-17.5 55q-16 50 -64 51l-2 4l7 43h16t36 -0.5t33 -0.5q32 0 60.5 2t46.5 3.5l18 1.5l2 -5l-7 -43q-32 -1 -42.5 -6.5t-10.5 -19.5q0 -7 5.5 -31t14 -57.5t17.5 -68.5t17.5 -65.5t13.5 -50l5 -19.5h7l24 62t22.5 61
t20 55t17 45.5t11.5 33.5q-8 28 -21.5 41.5t-42.5 13.5l-3 5l7 43h16t36 -0.5t33 -0.5q32 0 60 1.5t46 3l18 1.5l2 -5l-7 -43q-33 -2 -43 -6.5t-10 -18.5q0 -6 5.5 -30t13.5 -57.5t17.5 -69t18 -66t13.5 -50l5 -19.5h7q32 84 55 144.5t35.5 97.5t12.5 48q0 13 -8 18t-29 5
h-32l-4 6l6 42l16 -0.5t39.5 -1t46.5 -0.5q18 0 38 0.5t34 0.5h14l-8 -47q-20 -3 -31 -15.5t-27 -52.5l-133 -342l-85 -16q-1 5 -8.5 32.5t-19.5 69t-25 87t-25 86.5h-8l-95 -259z" />
    <glyph glyph-name="x" unicode="x" horiz-adv-x="484" 
d="M253 -6l-2 5l6 39q23 1 33 6t10 14q0 6 -3.5 14t-11.5 19l-67 93q-16 -20 -37 -46t-36.5 -48t-15.5 -30q0 -11 8.5 -14.5t32.5 -4.5l2 -5l-6 -40l-10.5 0.5t-26 1.5t-30 1.5t-23.5 0.5q-14 0 -30 -0.5t-26.5 -1.5l-10.5 -1l-3 6l6 38q16 9 28.5 19t27 26.5t35.5 42.5
l84 98l-72 102q-21 29 -36 45t-31 24t-39 12l-2 4l6 44l18 -0.5t43 -1t47 -0.5q30 0 55 1t40.5 2l15.5 1l2 -5l-6 -40q-42 0 -42 -19q0 -11 6.5 -22t16.5 -24l50 -71l54 71q13 16 20.5 27t7.5 21q0 8 -8 10.5t-31 2.5l-2 4l5 41h80q16 0 33.5 1t30.5 1.5l13 0.5l3 -5l-6 -42
q-19 -7 -40.5 -27t-44.5 -47l-83 -102l85 -119q26 -36 48 -53t52 -20l2 -4l-7 -42l-17 0.5t-39 1t-37 0.5t-36 -1t-41.5 -2t-34 -2z" />
    <glyph glyph-name="y" unicode="y" horiz-adv-x="454" 
d="M43 -241q-5 0 -14.5 8t-19 19.5t-16.5 22.5t-7 17l6 10q61 2 109.5 45t82.5 115l-22.5 67.5t-27 78.5t-28.5 82t-27 77t-24 62q-10 25 -25.5 35t-38.5 11l-2 4l6 44h18t33.5 -0.5t29.5 -0.5q24 0 47.5 1t43 2.5t31.5 2.5l12 1l2 -5l-7 -43q-31 -1 -42 -6.5t-11 -18.5
q0 -9 6 -32.5t15 -55t19 -65t19 -62t15 -46.5l6 -18h6q17 40 35 85t33.5 86t26 70t10.5 36q0 13 -8 18.5t-27 5.5h-40l-2 4l7 44l16 -1t40 -2t48 -1q17 0 36 0.5t33.5 0.5h18.5l-7 -48q-22 -4 -33 -15t-21 -38l-127 -306q-35 -84 -63.5 -140.5t-55 -90t-54 -47.5t-61.5 -13z
" />
    <glyph glyph-name="z" unicode="z" horiz-adv-x="459" 
d="M29 25l263 382l-110 -6q-33 -3 -52 -11.5t-27.5 -26.5t-11.5 -51l-45 -6l1.5 14.5t3.5 38t4 50.5t2 51l7 6l129 -8l219 -4l10 -25q-66 -86 -122.5 -164.5t-96 -135.5t-55.5 -82l129 9q42 4 64 32t31 88l46 5l-2.5 -16t-6 -41.5t-6 -55.5t-2.5 -58l-16 -16l-289 8l-54 -5z
" />
    <glyph glyph-name="braceleft" unicode="{" horiz-adv-x="314" 
d="M223 -131q-40 0 -69 16t-45 42.5t-16 57.5q0 30 11 62.5t22 62.5t11 50q0 35 -26 55t-66 30l4 32q35 10 61.5 29.5t26.5 49.5q0 23 -11 54t-22 63.5t-11 61.5q0 48 36 82t100 34q15 0 29.5 -2t24.5 -3.5l10 -1.5l5 -7l-10 -41l-16 2.5t-28 2.5q-31 0 -45 -19.5t-14 -45.5
q0 -21 7 -51.5t13.5 -62t6.5 -55.5q0 -43 -22.5 -66t-50.5 -31v-6q31 -10 52 -34t21 -68q0 -25 -6.5 -57.5t-13.5 -64t-7 -53.5q0 -27 14.5 -46.5t46.5 -19.5q14 0 30 3l16 3l5 -8l-9 -39l-18 -5.5t-47 -5.5z" />
    <glyph glyph-name="bar" unicode="|" horiz-adv-x="356" 
d="M147 -269l-10 8v27v72v102v117.5t0.5 117t0.5 101.5l1 520l71 11l13 -8l-0.5 -26t-1 -69t-1.5 -97t-1.5 -111t-1 -110t-0.5 -95v-100v-118.5t0.5 -120.5t0.5 -106.5v-75.5v-28z" />
    <glyph glyph-name="braceright" unicode="}" horiz-adv-x="314" 
d="M85 -131q-15 0 -29.5 2t-24.5 3.5l-10 1.5l-4 8l10 40l15.5 -2.5t27.5 -2.5q32 0 45.5 19.5t13.5 46.5q0 21 -6.5 51.5t-13.5 62.5t-7 56q0 43 23 66t50 31v6q-29 11 -51 35t-22 67q0 25 7 57t13.5 63t6.5 53q0 27 -14 46.5t-46 19.5q-15 0 -30.5 -3l-15.5 -3l-5 8l9 39
l18 5.5t47 5.5q40 0 69 -16t44.5 -42.5t15.5 -57.5q0 -29 -10.5 -61.5t-21.5 -61.5t-11 -49q0 -36 26.5 -56.5t64.5 -28.5l-4 -33q-35 -9 -61 -29t-26 -50q0 -23 11 -54t21.5 -63.5t10.5 -61.5q0 -48 -35.5 -83t-100.5 -35z" />
    <glyph glyph-name="asciitilde" unicode="~" horiz-adv-x="506" 
d="M64 192l-28 28v7l83 94l17 4q19 0 51 -6t68 -14t66.5 -14.5t46.5 -6.5q10 0 21.5 8.5t22 19.5t17.5 19.5l7 8.5h8l28 -28v-8l-82 -94l-18 -4q-19 0 -51 6t-68 14.5t-66 14.5t-47 6q-10 0 -21.5 -8.5t-22 -19t-17.5 -19l-7 -8.5h-8z" />
    <glyph glyph-name="uni00A0" unicode="&#xa0;" horiz-adv-x="187" 
 />
    <glyph glyph-name="exclamdown" unicode="&#xa1;" horiz-adv-x="285" 
d="M84 -242l-12 14l56 465l43 9l14 -11l13 -444l-9 -13zM158 333q-31 0 -47.5 18.5t-16.5 45.5q0 31 19 51t52 20q32 0 48 -19t16 -46q0 -29 -19 -49.5t-52 -20.5z" />
    <glyph glyph-name="cent" unicode="&#xa2;" horiz-adv-x="427" 
d="M293 658l6 -9l-81 -800l-44 -5l-6 7l81 801zM245 -12q-65 0 -113 28t-74.5 78t-26.5 119q0 73 31 130.5t84.5 91t121.5 33.5q34 0 61.5 -4.5t43.5 -10l16 -5.5l4 -7l-4.5 -19.5t-9.5 -52.5t-8 -74l-51 -3v32q0 36 -20 56.5t-54 20.5q-54 0 -83 -39.5t-29 -112.5
q0 -85 33 -132.5t92 -47.5q27 0 52.5 8.5t41 16l15.5 7.5l7 -3l14 -40l-14.5 -10.5t-37 -24.5t-47.5 -24.5t-45 -10.5z" />
    <glyph glyph-name="sterling" unicode="&#xa3;" horiz-adv-x="522" 
d="M394 -12q-34 0 -75.5 12t-84 23.5t-80.5 11.5q-48 0 -95 -33l-9 5l-17 45q99 64 99 151v46q-1 23 -13 30.5t-50 9.5l-4 6l7 42l60 10v19q0 51 16 93.5t44 73.5t66.5 48t83.5 17q31 0 61 -4t46 -11l5 -11l-27 -77l-19 -3q-34 18 -59.5 26.5t-46.5 8.5q-39 0 -59.5 -27.5
t-22.5 -84.5l-3 -73q39 0 75 1t59 1.5l23 0.5l3 -4l-10 -60l-22 1t-56.5 1.5t-73.5 0.5l-2 -70q-1 -37 -16 -69t-40 -53l55 11q26 0 53.5 -5t55 -10.5t50.5 -5.5q32 0 49.5 19t20.5 56l21 -1q8 -16 12.5 -34t4.5 -35q0 -43 -24.5 -71t-60.5 -28z" />
    <glyph glyph-name="currency" unicode="&#xa4;" horiz-adv-x="479" 
d="M90 159l-14 3l-34 53q4 3 24 21.5t43 41.5q-22 34 -22 78t24 80q-18 18 -34.5 34t-27 26l-10.5 10l3 14l52 37q4 -4 23.5 -25t43.5 -46q17 10 37 16t41 6t41 -6t36 -16q18 19 33.5 36.5t25.5 28.5l10 11l15 -3l37 -54l-71 -68q12 -17 18.5 -38t6.5 -43t-5.5 -41
t-15.5 -35q27 -25 49.5 -46l22.5 -21l-3 -13l-53 -40l-66 68q-37 -24 -81 -24q-45 0 -82 24q-26 -27 -46.5 -48zM239 262q39 0 66.5 27.5t27.5 66.5q0 38 -27.5 66t-66.5 28q-38 0 -65.5 -28t-27.5 -66q0 -39 27.5 -66.5t65.5 -27.5z" />
    <glyph glyph-name="yen" unicode="&#xa5;" horiz-adv-x="551" 
d="M152 -9l5 50q34 5 48.5 14t18 29.5t3.5 56.5h-63.5t-60.5 -0.5t-52 -0.5l-6 7l6 41h171l-8 22t-11 24l-22 40q-36 0 -70 -0.5t-60 -0.5l-6 7l7 41h101q-16 29 -29 52t-26.5 40t-31.5 27.5t-44 12.5q-1 4 -0.5 8t-0.5 7q2 10 4 19t3 18l16.5 -0.5t40 -1.5t42.5 -1
q11 0 27.5 1t34 2t33.5 2t25.5 1.5t10.5 0.5l5 -10l-4 -41q-37 -4 -46.5 -8.5t-9.5 -13.5q0 -7 3.5 -16.5t10.5 -23.5q1 -3 1.5 -5t1.5 -5l66 -125l81 147q4 7 7.5 15t3.5 16q0 7 -6.5 9.5t-17.5 4.5t-25 5q1 3 0.5 6.5t-0.5 5.5l5 37q5 0 23 -1t41 -2.5t42 -1.5q18 0 37 1
t32.5 1.5l13.5 0.5l5 -7l-6 -44q-26 -6 -40.5 -14t-25.5 -22.5t-27 -39.5l-34 -55q29 1 56.5 1t49.5 1l7 -10l-4 -41h-139l-31 -52q-3 -6 -5.5 -15.5t-4.5 -18.5q33 1 64.5 1.5t60 1.5t52.5 1l6 -9l-3 -42h-185v-24.5v-24.5q0 -24 6.5 -33t23.5 -9q4 -1 9 -0.5t10 0.5
q12 1 21 1h9l2 -7l-8 -47l-13.5 1t-33.5 1t-41 0.5t-36 0.5q-16 0 -36 -1.5t-38 -3.5t-30 -3z" />
    <glyph glyph-name="brokenbar" unicode="&#xa6;" horiz-adv-x="356" 
d="M144 365l-6 5q0 107 0.5 213.5t0.5 212.5l71 11l13 -8l-0.5 -27t-1.5 -71.5t-1.5 -100t-1.5 -114t-1 -110.5zM147 -269l-10 8v93v104.5v112v114.5l74 13l6 -6v-118t0.5 -115.5t0.5 -99.5v-69.5v-25.5z" />
    <glyph glyph-name="section" unicode="&#xa7;" horiz-adv-x="507" 
d="M372 47q1 -33 -22 -68t-63.5 -58.5t-91.5 -23.5q-35 0 -63 10.5t-45 28.5t-17 40q0 26 6 54.5t14 39.5l17 -1q9 -49 40 -79.5t73 -30.5q29 0 48.5 17.5t19.5 44.5q0 28 -19 51t-47.5 43.5t-61.5 42.5t-62 46.5t-47.5 56t-18.5 71.5q0 31 15.5 61t44 56.5t63.5 45.5
l18 -35q-34 -20 -49 -41t-15 -50t19 -54t49 -48.5t63.5 -47t63.5 -49.5t49 -56t19 -67zM335 95q30 18 45.5 41t15.5 52q0 28 -19 52t-48.5 47.5t-63 47.5t-63 49.5t-48.5 55t-19 63.5q0 41 21.5 74.5t57.5 53.5t80 20q29 0 53.5 -7t40 -18t15.5 -24q0 -14 -3.5 -32.5
t-9.5 -34.5t-11 -22h-16q-13 33 -39.5 53.5t-54.5 20.5q-22 0 -36.5 -15.5t-14.5 -39.5q0 -27 18.5 -50.5t48 -44.5t62 -42.5t62 -46.5t48 -55t18.5 -68q0 -33 -16 -66t-43.5 -59.5t-63.5 -43.5z" />
    <glyph glyph-name="dieresis" unicode="&#xa8;" horiz-adv-x="398" 
d="M280 549q-24 0 -36.5 15t-12.5 35q0 24 16 41t41 17q24 0 36.5 -14.5t12.5 -36.5q0 -24 -15.5 -40.5t-41.5 -16.5zM109 549q-24 0 -36.5 15t-12.5 35q0 24 15.5 41t41.5 17q24 0 36.5 -14.5t12.5 -36.5q0 -24 -16 -40.5t-41 -16.5z" />
    <glyph glyph-name="copyright" unicode="&#xa9;" horiz-adv-x="694" 
d="M347 -12q-63 0 -118.5 24t-97 65.5t-65 97t-23.5 118.5t23.5 118.5t65 97t97 65.5t118.5 24t118.5 -24t97 -65.5t65.5 -97t24 -118.5t-24 -118.5t-65.5 -97t-97 -65.5t-118.5 -24zM338 130q-51 0 -84.5 21t-50 57t-16.5 80q0 51 21 91t61 62t94 22q23 0 46 -3t38.5 -6
l15.5 -3l3 -5l-6 -27.5t-8 -67.5l-45 -2l0.5 8t0.5 16q0 20 -12.5 31.5t-44.5 11.5q-40 0 -62.5 -27t-22.5 -84q0 -60 21 -95t66 -35q31 0 47.5 17t22.5 54l44 3l-3 -15t-5.5 -36t-2.5 -41l-5 -8l-15 -4.5t-40 -9.5t-58 -5zM347 32q53 0 100 20t83 56t56 83.5t20 101.5
t-20 101.5t-56 83.5t-83 56t-100 20q-54 0 -100.5 -20t-82 -56t-56 -83.5t-20.5 -101.5t20.5 -101.5t56 -83.5t82 -56t100.5 -20z" />
    <glyph glyph-name="ordfeminine" unicode="&#xaa;" horiz-adv-x="330" 
d="M258 338q-60 0 -65 50l-5 1q-20 -19 -40 -33.5t-32 -14.5q-38 0 -63.5 26.5t-25.5 66.5q0 19 10.5 34t27.5 19l125 28v16q0 27 -14.5 42t-40.5 15q-19 0 -37 -7t-28.5 -14.5l-10.5 -7.5l-6 2l-11 38l14 7.5t33.5 17.5t39.5 17t31 7q39 0 62.5 -11.5t34.5 -31t11 -44.5
q0 -11 -3 -37t-6 -53t-3 -41q0 -26 23 -26q12 0 22 5.5l10 5.5l9 -13l-5.5 -8.5t-14 -20t-19.5 -21.5t-23 -14zM140 402q10 0 23 5t24 13l2 61l-70 -19q-16 -5 -16 -21q0 -17 10.5 -28t26.5 -11z" />
    <glyph glyph-name="guillemotleft" unicode="&#xab;" horiz-adv-x="437" 
d="M366 45q-28 30 -58 59.5t-55 54.5t-40.5 39.5l-15.5 14.5v18l15.5 15t40.5 40.5t55 56.5t58 62l30 -20l2 -12l-50 -74t-49 -72q24 -35 49 -73.5t50 -76.5l-2 -13zM192 45q-28 30 -58 59.5t-55 54.5t-40.5 39.5l-15.5 14.5v18l15.5 15t40.5 40.5t55 56.5t58 62l30 -20
l2 -12l-50 -74t-49 -72q24 -35 49 -73.5t50 -76.5l-2 -13z" />
    <glyph glyph-name="logicalnot" unicode="&#xac;" horiz-adv-x="506" 
d="M384 26l-10 7v17.5t0.5 47t0.5 64v68.5l-123 -1h-73t-74.5 -0.5t-58 -0.5h-22.5l-7 10l13 67h24t61 -0.5t78 -0.5h74q29 0 61 1t60.5 2t46 2l17.5 1l6 -11l-2 -19t-4 -47.5t-3 -58.5q0 -35 0.5 -66t0.5 -50v-19z" />
    <glyph glyph-name="uni00AD" unicode="&#xad;" horiz-adv-x="368" 
d="M66 203l-8 10l6 63l170 20q38 4 53.5 6.5l15.5 2.5l8 -11l-7 -65z" />
    <glyph glyph-name="registered" unicode="&#xae;" horiz-adv-x="468" 
d="M234 303q-56 0 -102.5 27.5t-74 74t-27.5 102.5q0 57 27.5 103t74 73.5t102.5 27.5q57 0 103 -27.5t73.5 -73.5t27.5 -103q0 -56 -27.5 -102.5t-73.5 -74t-103 -27.5zM234 339q47 0 84.5 23t60.5 61t23 84q0 47 -23 84.5t-60.5 60.5t-84.5 23q-46 0 -84 -23t-61 -60.5
t-23 -84.5q0 -46 23 -84t61 -61t84 -23zM297 408q-12 0 -21 7t-17 24l-27 53h-24q-1 -9 -1 -16.5v-13.5q0 -18 3.5 -22.5t20.5 -4.5q1 -1 1 -2t1 -2l-2 -18l-6 0.5t-14 0.5h-15h-12q-13 0 -29 -1l-16 -1l2 22q17 2 20.5 8.5t3.5 27.5v109q0 11 -2.5 14.5t-8.5 3.5h-6h-5
l-2 3l3 19q2 0 17.5 -0.5t25.5 -0.5h11q9 1 20 1.5t13 0.5q39 0 61 -14t22 -41q0 -25 -14 -39.5t-32 -22.5l27 -41q10 -15 19.5 -23t19.5 -8l3 -4q-1 -8 -4.5 -12.5t-11.5 -5.5t-24 -1zM237 518q9 3 19 11.5t10 28.5q0 19 -13 27t-36 8q-6 0 -6 -8q-1 -16 -1.5 -32t-0.5 -32
q5 0 13 -1t15 -2z" />
    <glyph glyph-name="macron" unicode="&#xaf;" horiz-adv-x="398" 
d="M58 572l-8 10l12 58h15.5t39.5 -0.5t50.5 -0.5h48.5q25 0 54.5 1.5t51.5 3l22 1.5l7 -11l-9 -60l-142 -1h-62.5t-56.5 -0.5z" />
    <glyph glyph-name="degree" unicode="&#xb0;" horiz-adv-x="302" 
d="M151 395q-35 0 -64 17.5t-46.5 46.5t-17.5 64q0 36 17.5 65t46.5 46t64 17q36 0 64.5 -17t46 -46t17.5 -65q0 -35 -17.5 -64t-46 -46.5t-64.5 -17.5zM151 444q33 0 56 23.5t23 55.5q0 33 -23 56t-56 23t-56 -23t-23 -56q0 -32 23 -55.5t56 -23.5z" />
    <glyph glyph-name="plusminus" unicode="&#xb1;" horiz-adv-x="506" 
d="M222 50l-10 7l0.5 28t0.5 69.5v83.5h-65t-61.5 -0.5t-45.5 -0.5h-17l-7 10l13 66h28t71 -0.5t84 -0.5q0 47 0.5 92.5t0.5 91.5l68 9l11 -6l-1 -17.5t-2 -46t-2 -61t-1 -62.5q30 1 63.5 2t63.5 2t49 1.5l19 0.5l6 -11l-9 -68q-47 0 -95.5 -0.5t-96.5 -0.5q0 -41 0.5 -81.5
t0.5 -67v-26.5zM28 -85l-7 11l11 60h30.5h61h73.5h70q30 0 65 0.5t67 1.5q36 1 57.5 1.5t21.5 1.5l7 -12l-9 -62h-100.5t-107.5 -0.5t-101.5 -1t-84 -0.5h-54.5z" />
    <glyph glyph-name="uni00B2" unicode="&#xb2;" horiz-adv-x="339" 
d="M23 375l74 81q44 53 66 92.5t21 67.5q0 41 -47 41q-52 0 -89 -58h-9l-11 50q22 34 59 56.5t73 22.5q51 0 82 -24.5t31 -63.5q0 -27 -13 -58t-43.5 -72t-82.5 -99l3 -6h71q31 0 43.5 12t19.5 46l48 5l-3.5 -19.5t-8 -47t-6.5 -53.5l-10 -8l-24 1t-60 2t-71.5 2t-58.5 1
l-48 -6z" />
    <glyph glyph-name="uni00B3" unicode="&#xb3;" horiz-adv-x="300" 
d="M79 338q-27 0 -38.5 15t-13.5 50l9 9q13 -4 27 -6.5t28 -2.5q39 0 64 16.5t25 41.5q0 28 -23 40.5t-74 12.5l-6 7l-5 39l43 8q22 11 36 27.5t14 34.5q0 17 -11 27t-30 10q-35 0 -72 -27h-8l-12 44q8 6 27.5 16.5t44.5 19t47 8.5q43 0 69.5 -21t26.5 -55
q0 -27 -19.5 -50.5t-52.5 -37.5v-6q46 -13 68 -35.5t22 -55.5q0 -31 -27.5 -60.5t-69.5 -49t-89 -19.5z" />
    <glyph glyph-name="acute" unicode="&#xb4;" horiz-adv-x="398" 
d="M159 521l-11 3l-25 27q28 30 55.5 60.5t50.5 56t36.5 41.5l13.5 16l11 -2l46 -52l-1 -12l-25.5 -19t-66 -50.5t-84.5 -68.5z" />
    <glyph glyph-name="uni00B5" unicode="&#xb5;" horiz-adv-x="546" 
d="M229 -6q-57 30 -88 86l-42 -21l41 131q15 -48 32.5 -67.5t41.5 -19.5q41 0 72.5 38.5t58.5 107.5q1 58 5 108.5t9 90.5l25 18q23 -9 42 -20t37 -25q-25 -98 -48.5 -173t-45.5 -132l-13 5q-20 -46 -40.5 -74t-41.5 -40.5t-45 -12.5zM85 -239l-16 11l27 497l9 -128
q-20 66 -29.5 114t-8.5 94t10 104l20 13h14l70 -28l-49 -363q5 -77 19 -150t35 -148q-20 -5 -46.5 -9t-54.5 -7zM472 -10q-54 0 -80 31.5t-29 104.5l-6 130l46 19l-3 -79q0 -45 11.5 -68.5t40.5 -27.5t80 10l7 -10q-6 -34 -22.5 -61.5t-44.5 -48.5z" />
    <glyph glyph-name="paragraph" unicode="&#xb6;" horiz-adv-x="564" 
d="M225 -103q-35 0 -66.5 11t-51 32.5t-19.5 51.5q0 22 12 50.5t28 47.5h16q1 -65 27.5 -99.5t68.5 -34.5q39 0 60 17t28.5 55t7.5 100v443q0 10 -3.5 12t-23.5 2q-45 0 -67.5 -40t-22.5 -105q0 -71 16.5 -118t50.5 -94v-19q-68 5 -125.5 31.5t-92 76.5t-34.5 123
q0 57 27 103t76 73t115 27q38 0 76 -2t60 -2q13 0 35.5 0.5t44.5 1t37.5 1l15.5 0.5l-6 -51l-2 -4q-43 1 -57 -9t-16 -36q-3 -17 -5 -53t-3 -81.5t-1.5 -93.5t-1 -88.5t-0.5 -64.5q0 -59 -10.5 -108t-34 -83.5t-62.5 -53.5t-97 -19z" />
    <glyph glyph-name="periodcentered" unicode="&#xb7;" horiz-adv-x="238" 
d="M116 165q-32 0 -48 19t-16 46q0 30 19 50.5t51 20.5q31 0 48 -19t17 -46q0 -30 -19.5 -50.5t-51.5 -20.5z" />
    <glyph glyph-name="cedilla" unicode="&#xb8;" horiz-adv-x="398" 
d="M167 -235q-16 0 -32.5 4.5t-28 13.5t-11.5 21q0 11 10.5 29t19.5 30h9q1 -28 15.5 -42t38.5 -14q19 0 31.5 9.5t12.5 24.5q0 12 -13 25t-32.5 25.5t-39.5 23.5l32 110h47l-23 -73q18 -10 38.5 -24.5t36 -31t15.5 -36.5q0 -26 -19 -47.5t-47.5 -34.5t-59.5 -13z" />
    <glyph glyph-name="uni00B9" unicode="&#xb9;" horiz-adv-x="256" 
d="M31 339l4 40q30 2 44 12.5t14 36.5v204q0 23 -7.5 29.5t-25.5 6.5q-9 0 -20.5 -1.5l-11.5 -1.5l-4 4l3 36q10 2 33 4.5t45 5.5q32 5 51 7.5t28 4l9 1.5l6 -18q-10 -10 -16 -20.5t-8 -30.5q-2 -18 -3 -46.5t-2 -61t-1.5 -64.5t-0.5 -57q0 -24 6.5 -33.5t22.5 -9.5
q11 0 21 1l10 1l3 -4l-8 -41l-16.5 0.5t-38 1t-37.5 0.5q-20 0 -43.5 -1.5t-40 -3.5z" />
    <glyph glyph-name="ordmasculine" unicode="&#xba;" horiz-adv-x="345" 
d="M163 338q-62 0 -99.5 40t-37.5 107q0 48 19.5 84.5t55 57.5t82.5 21q63 0 99.5 -39.5t36.5 -106.5q0 -48 -19.5 -85t-54.5 -58t-82 -21zM176 386q28 0 42.5 22t14.5 65q0 61 -17 91t-49 30q-28 0 -42.5 -21.5t-14.5 -64.5q0 -60 17.5 -91t48.5 -31z" />
    <glyph glyph-name="guillemotright" unicode="&#xbb;" horiz-adv-x="437" 
d="M245 45l-30 19l-2 13q25 37 50 74.5t49 70.5q-24 36 -49 74t-50 77l2 12l30 20q29 -30 58.5 -60t54 -54.5t40.5 -39.5l16 -15v-17l-16 -15t-40.5 -41t-54 -56.5t-58.5 -61.5zM71 45l-30 19l-2 13q25 37 50 74.5t49 70.5q-24 36 -49 74t-50 77l2 12l30 20q29 -30 58.5 -60
t54 -54.5t40.5 -39.5l16 -15v-17l-16 -15t-40.5 -41t-54 -56.5t-58.5 -61.5z" />
    <glyph glyph-name="onequarter" unicode="&#xbc;" horiz-adv-x="718" 
d="M31 257l4 40q30 2 44 12.5t14 37.5v203q0 23 -7.5 29.5t-25.5 6.5q-9 0 -20.5 -1l-11.5 -1l-4 3l3 37q10 1 33 3.5t45 6.5q32 4 51 7t28 4l9 1l6 -18q-10 -10 -16 -20.5t-8 -29.5t-3 -47.5t-2 -61t-1.5 -64t-0.5 -57.5q0 -24 6.5 -33.5t22.5 -9.5q11 0 21 1l10 1l3 -3
l-8 -42l-16.5 0.5t-38 1t-37.5 0.5q-20 0 -43.5 -1.5t-40 -3.5zM134 -94l-49 22l-6 13l14 20.5t36.5 55.5t51 78t58 88.5t55.5 86.5l258 408l49 -21l6 -17l-18.5 -27.5t-48.5 -73t-65.5 -99.5t-70 -107.5t-60.5 -95.5q-27 -43 -56 -89.5t-57 -89.5t-49.5 -77.5t-34.5 -54.5z
M561 -7l-5 6l1 15.5t2 39t1 46.5l-154 2l1 42l172 237l4 1l52 -7v-220h53l6 -7l-6 -52l-52 2q1 -34 2.5 -63l1.5 -29l-5 -6zM472 155h88v116h-6z" />
    <glyph glyph-name="onehalf" unicode="&#xbd;" horiz-adv-x="747" 
d="M31 257l4 40q30 2 44 12.5t14 37.5v203q0 23 -7.5 29.5t-25.5 6.5q-9 0 -20.5 -1l-11.5 -1l-4 3l3 37q10 1 33 3.5t45 6.5q32 4 51 7t28 4l9 1l6 -18q-10 -10 -16 -20.5t-8 -29.5t-3 -47.5t-2 -61t-1.5 -64t-0.5 -57.5q0 -24 6.5 -33.5t22.5 -9.5q11 0 21 1l10 1l3 -3
l-8 -42l-16.5 0.5t-38 1t-37.5 0.5q-20 0 -43.5 -1.5t-40 -3.5zM134 -94l-49 22l-6 13l14 20.5t36.5 55.5t51 78t58 88.5t55.5 86.5l258 408l49 -21l6 -17l-18.5 -27.5t-48.5 -73t-65.5 -99.5t-70 -107.5t-60.5 -95.5q-27 -43 -56 -89.5t-57 -89.5t-49.5 -77.5t-34.5 -54.5z
M431 28l74 82q44 53 66 92.5t21 67.5q0 41 -47 41q-52 0 -89 -58h-9l-11 50q22 34 59 56.5t73 22.5q51 0 82 -24.5t31 -64.5q0 -26 -13 -57t-43.5 -72t-82.5 -99l3 -6h71q31 0 43.5 12t19.5 46l48 5l-3.5 -19.5t-8 -47t-6.5 -53.5l-10 -8l-24 1t-60 2t-71.5 2t-58.5 1
l-48 -6z" />
    <glyph glyph-name="threequarters" unicode="&#xbe;" horiz-adv-x="720" 
d="M79 256q-27 0 -38.5 15t-13.5 50l9 9q13 -4 27 -6.5t28 -2.5q39 0 64 16.5t25 41.5q0 29 -23 41.5t-74 12.5l-6 6l-5 39l43 9q22 10 36 26.5t14 35.5q0 17 -11 27t-30 10q-35 0 -72 -28h-8l-12 44q8 7 27.5 17t44.5 18.5t47 8.5q43 0 69.5 -21t26.5 -55q0 -26 -19.5 -50
t-52.5 -38v-6q46 -13 68 -35.5t22 -54.5q0 -31 -27.5 -61t-69.5 -49.5t-89 -19.5zM136 -94l-49 22l-6 13l14 20.5t36.5 55.5t51 78t58 88.5t55.5 86.5l258 408l49 -21l6 -17l-18.5 -27.5t-48.5 -73t-65.5 -99.5t-70 -107.5t-60.5 -95.5q-27 -43 -56 -89.5t-57 -89.5
t-49.5 -77.5t-34.5 -54.5zM563 -7l-5 6l1 15.5t2 39t1 46.5l-154 2l1 42l172 237l4 1l52 -7v-220h53l6 -7l-6 -52l-52 2q1 -34 2.5 -63l1.5 -29l-5 -6zM474 155h88v116h-6z" />
    <glyph glyph-name="questiondown" unicode="&#xbf;" horiz-adv-x="364" 
d="M261 -242q-66 2 -120.5 24.5t-86.5 60.5t-32 84q0 38 13.5 66t37 49.5t53 41t62.5 42.5l3 8l-19 90l4 9l73 18l10 -5l24 -123l-3 -14l-114 -70q-23 -15 -39 -34.5t-16 -45.5q0 -55 53 -83.5t142 -33.5l4 -12l-34 -67zM211 333q-31 0 -47.5 18.5t-16.5 45.5q0 31 19 51
t52 20q32 0 47.5 -19t15.5 -46q0 -29 -18.5 -49.5t-51.5 -20.5z" />
    <glyph glyph-name="Agrave" unicode="&#xc0;" horiz-adv-x="603" 
d="M334 -9l-4 7l4 48q34 4 52 7.5t25 10.5t7 20q0 8 -1.5 18.5t-5.5 22.5l-28 95q-18 1 -48.5 1h-49.5q-27 0 -56.5 -2.5t-46.5 -4.5l-32 -92q-8 -24 -8 -35q0 -20 13 -28.5t41 -8.5h51l3 -5l-6 -51l-22 1.5t-55 3t-65 1.5q-26 0 -52.5 -0.5t-44.5 -1.5l-18 -1l8 55
q26 4 42 19.5t30 53.5l188 509l104 17l9 -3l7 -24.5t18.5 -67t26.5 -96.5t32 -113t34.5 -117.5t33.5 -108.5q12 -36 31 -51t58 -19l3 -5l-7 -49l-20.5 1t-47 1.5t-46.5 0.5q-39 0 -75.5 -2.5t-59 -4.5zM202 279h81q18 0 43 1.5t41 2.5l-69 244h-10zM374 701q-40 14 -79 26.5
t-70 22t-49 15.5l-18 6l-4 11l20 60l10 6l18.5 -10t49 -25.5t67.5 -34.5t75 -37l-10 -34z" />
    <glyph glyph-name="Aacute" unicode="&#xc1;" horiz-adv-x="603" 
d="M334 -9l-4 7l4 48q34 4 52 7.5t25 10.5t7 20q0 8 -1.5 18.5t-5.5 22.5l-28 95q-18 1 -48.5 1h-49.5q-27 0 -56.5 -2.5t-46.5 -4.5l-32 -92q-8 -24 -8 -35q0 -20 13 -28.5t41 -8.5h51l3 -5l-6 -51l-22 1.5t-55 3t-65 1.5q-26 0 -52.5 -0.5t-44.5 -1.5l-18 -1l8 55
q26 4 42 19.5t30 53.5l188 509l104 17l9 -3l7 -24.5t18.5 -67t26.5 -96.5t32 -113t34.5 -117.5t33.5 -108.5q12 -36 31 -51t58 -19l3 -5l-7 -49l-20.5 1t-47 1.5t-46.5 0.5q-39 0 -75.5 -2.5t-59 -4.5zM202 279h81q18 0 43 1.5t41 2.5l-69 244h-10zM253 701l-11 6l-9 34
q38 18 75 37t67.5 34.5t49 25.5l18.5 10l10 -6l20 -60l-5 -11l-18 -6t-48.5 -15.5t-69.5 -22t-79 -26.5z" />
    <glyph glyph-name="Acircumflex" unicode="&#xc2;" horiz-adv-x="603" 
d="M334 -9l-4 7l4 48q34 4 52 7.5t25 10.5t7 20q0 8 -1.5 18.5t-5.5 22.5l-28 95q-18 1 -48.5 1h-49.5q-27 0 -56.5 -2.5t-46.5 -4.5l-32 -92q-8 -24 -8 -35q0 -20 13 -28.5t41 -8.5h51l3 -5l-6 -51l-22 1.5t-55 3t-65 1.5q-26 0 -52.5 -0.5t-44.5 -1.5l-18 -1l8 55
q26 4 42 19.5t30 53.5l188 509l104 17l9 -3l7 -24.5t18.5 -67t26.5 -96.5t32 -113t34.5 -117.5t33.5 -108.5q12 -36 31 -51t58 -19l3 -5l-7 -49l-20.5 1t-47 1.5t-46.5 0.5q-39 0 -75.5 -2.5t-59 -4.5zM202 279h81q18 0 43 1.5t41 2.5l-69 244h-10zM183 710l-12 2l-18 30
q25 19 51 39.5t47.5 38t34.5 28.5l13 11h16l13 -10.5t34.5 -28t47.5 -38.5t51 -40l-18 -30l-12 -2q-35 19 -69 35.5t-55 26.5q-21 -10 -54.5 -26.5t-69.5 -35.5z" />
    <glyph glyph-name="Atilde" unicode="&#xc3;" horiz-adv-x="603" 
d="M334 -9l-4 7l4 48q34 4 52 7.5t25 10.5t7 20q0 8 -1.5 18.5t-5.5 22.5l-28 95q-18 1 -48.5 1h-49.5q-27 0 -56.5 -2.5t-46.5 -4.5l-32 -92q-8 -24 -8 -35q0 -20 13 -28.5t41 -8.5h51l3 -5l-6 -51l-22 1.5t-55 3t-65 1.5q-26 0 -52.5 -0.5t-44.5 -1.5l-18 -1l8 55
q26 4 42 19.5t30 53.5l188 509l104 17l9 -3l7 -24.5t18.5 -67t26.5 -96.5t32 -113t34.5 -117.5t33.5 -108.5q12 -36 31 -51t58 -19l3 -5l-7 -49l-20.5 1t-47 1.5t-46.5 0.5q-39 0 -75.5 -2.5t-59 -4.5zM202 279h81q18 0 43 1.5t41 2.5l-69 244h-10zM167 694l-30 28v7l77 87
l17 4q12 0 32.5 -5.5t43 -12t42 -11.5t29.5 -5q9 0 20 7.5t21 16.5t16.5 16.5l6.5 7.5h8l30 -28v-7l-77 -86l-16 -4q-13 0 -33.5 5t-42.5 11.5t-41.5 11.5t-30.5 5q-9 0 -20 -7.5t-21 -16.5t-16.5 -16.5l-6.5 -7.5h-8z" />
    <glyph glyph-name="Adieresis" unicode="&#xc4;" horiz-adv-x="603" 
d="M334 -9l-4 7l4 48q34 4 52 7.5t25 10.5t7 20q0 8 -1.5 18.5t-5.5 22.5l-28 95q-18 1 -48.5 1h-49.5q-27 0 -56.5 -2.5t-46.5 -4.5l-32 -92q-8 -24 -8 -35q0 -20 13 -28.5t41 -8.5h51l3 -5l-6 -51l-22 1.5t-55 3t-65 1.5q-26 0 -52.5 -0.5t-44.5 -1.5l-18 -1l8 55
q26 4 42 19.5t30 53.5l188 509l104 17l9 -3l7 -24.5t18.5 -67t26.5 -96.5t32 -113t34.5 -117.5t33.5 -108.5q12 -36 31 -51t58 -19l3 -5l-7 -49l-20.5 1t-47 1.5t-46.5 0.5q-39 0 -75.5 -2.5t-59 -4.5zM202 279h81q18 0 43 1.5t41 2.5l-69 244h-10zM388 709q-24 0 -36.5 15
t-12.5 35q0 25 16 41.5t41 16.5q24 0 36.5 -14.5t12.5 -36.5q0 -24 -15.5 -40.5t-41.5 -16.5zM217 709q-24 0 -36.5 15t-12.5 35q0 25 15.5 41.5t41.5 16.5q24 0 36.5 -14.5t12.5 -36.5q0 -24 -16 -40.5t-41 -16.5z" />
    <glyph glyph-name="Aring" unicode="&#xc5;" horiz-adv-x="603" 
d="M334 -9l-4 7l4 48q34 4 52 7.5t25 10.5t7 20q0 8 -1.5 18.5t-5.5 22.5l-28 95q-18 1 -48.5 1h-49.5q-27 0 -56.5 -2.5t-46.5 -4.5l-32 -92q-8 -24 -8 -35q0 -20 13 -28.5t41 -8.5h51l3 -5l-6 -51l-22 1.5t-55 3t-65 1.5q-26 0 -52.5 -0.5t-44.5 -1.5l-18 -1l8 55
q26 4 42 19.5t30 53.5l188 509l104 17l9 -3l7 -24.5t18.5 -67t26.5 -96.5t32 -113t34.5 -117.5t33.5 -108.5q12 -36 31 -51t58 -19l3 -5l-7 -49l-20.5 1t-47 1.5t-46.5 0.5q-39 0 -75.5 -2.5t-59 -4.5zM202 279h81q18 0 43 1.5t41 2.5l-69 244h-10zM302 676q-39 0 -60 23.5
t-21 60.5q0 38 24.5 63.5t64.5 25.5q44 0 63 -25t19 -55q0 -36 -23 -64.5t-67 -28.5zM309 720q11 0 26.5 6.5t15.5 31.5q0 20 -12.5 32.5t-35.5 12.5q-21 0 -32 -10t-11 -27q0 -25 17 -35.5t32 -10.5z" />
    <glyph glyph-name="AE" unicode="&#xc6;" horiz-adv-x="836" 
d="M309 46q55 5 73 14.5t18 35.5q0 15 -2 29.5t-4 29.5l-15 109l-94 -9l-88 -12l-60 -121q-8 -16 -11 -25.5t-3 -16.5q0 -16 13 -23t42 -7l47 -2l-6 -54l-14.5 0.5t-37.5 2t-49 2.5t-49 1q-13 0 -29.5 -1t-28.5 -2l-12 -1l-7 46q4 1 23.5 23.5t38.5 59.5l231 443
q-2 11 -8 15t-18 4q-8 0 -20 -1l-12 -1l-4 6l7 51h15t41.5 -1t61.5 -1.5t77 -0.5q58 0 106 0.5t85.5 2t66.5 4t50 5.5l5 -8l-4.5 -24t-10 -63.5t-8.5 -85.5l-67 -5l1 16t1 26q0 31 -9 45t-39.5 18.5t-96.5 4.5q-40 0 -50.5 -5t-11.5 -25l28 -208l109 11l94 16l7 -7l-13 -66
l-88 -5l-100 -10l24 -149q6 -37 24 -52.5t54 -15.5q49 0 79 4t46 16t24.5 36t13.5 63l62 6l4 -7l-5 -25.5t-11 -65t-11 -85.5l-7 -8l-27 1t-70.5 2.5t-91.5 2.5t-91 1h-35q-39 0 -74 -2.5t-57 -4.5l-22 -2l-3 7zM304 318l68 6l-27 202h-11l-106 -213z" />
    <glyph glyph-name="Ccedilla" unicode="&#xc7;" horiz-adv-x="621" 
d="M333 -12q-91 0 -158 38t-103.5 108t-36.5 166q0 78 25.5 142.5t72 111t110 72t141.5 25.5q31 0 63.5 -3.5t59 -8.5t43 -8.5l16.5 -3.5l4 -9l-5 -23.5t-11 -64t-9 -89.5l-70 -5l1.5 16.5t1.5 34.5q0 45 -32 67t-99 22q-61 0 -104 -29t-66.5 -82.5t-23.5 -131.5
q0 -85 25 -147t70 -95.5t107 -33.5t98.5 36t52.5 113l70 6l-3 -16t-7 -42t-8 -56.5t-6 -59.5l-7 -10l-28 -10t-75.5 -20t-108.5 -10zM311 -235q-16 0 -32.5 4.5t-28 13.5t-11.5 21q0 11 10.5 29t19.5 30h9q1 -28 15.5 -42t38.5 -14q19 0 31.5 9.5t12.5 24.5q0 12 -13 25
t-32.5 25.5t-39.5 23.5l32 110h47l-23 -73q18 -10 38.5 -24.5t36 -31t15.5 -36.5q0 -26 -19 -47.5t-47.5 -34.5t-59.5 -13z" />
    <glyph glyph-name="Egrave" unicode="&#xc8;" horiz-adv-x="593" 
d="M49 -10l6 55q44 6 60 24t16 61l1 403q0 32 -6.5 43t-28.5 11q-6 0 -15.5 -0.5t-17.5 -1.5l-4 6l8 51q20 0 47.5 -1t57 -1.5t53.5 -0.5q77 0 132.5 1t96.5 4t73 7l5 -8q-5 -25 -10 -55.5t-8 -61t-5 -56.5l-67 -5q1 9 1.5 22t0.5 20q0 23 -4 36.5t-18 20t-42.5 9t-76.5 2.5
q-29 0 -42 -2t-16.5 -10t-4.5 -25l-10 -226l-3 -193q0 -26 4.5 -39t19.5 -17t48 -4q54 0 87 4t50.5 16t26 36t13.5 63l62 6l5 -7q-8 -34 -15.5 -84t-12.5 -92l-7 -8q-57 2 -116 3.5t-109 2.5t-81 1q-34 0 -77.5 -2.5t-76.5 -7.5zM218 287l8 74h26t41 -0.5t39 -0.5t52 3t68 7
l5 -7l-14 -71q-27 1 -67 2t-68 1q-21 0 -46 -2.5t-44 -5.5zM374 701q-40 14 -79 26.5t-70 22t-49 15.5l-18 6l-4 11l20 60l10 6l18.5 -10t49 -25.5t67.5 -34.5t75 -37l-10 -34z" />
    <glyph glyph-name="Eacute" unicode="&#xc9;" horiz-adv-x="593" 
d="M49 -10l6 55q44 6 60 24t16 61l1 403q0 32 -6.5 43t-28.5 11q-6 0 -15.5 -0.5t-17.5 -1.5l-4 6l8 51q20 0 47.5 -1t57 -1.5t53.5 -0.5q77 0 132.5 1t96.5 4t73 7l5 -8q-5 -25 -10 -55.5t-8 -61t-5 -56.5l-67 -5q1 9 1.5 22t0.5 20q0 23 -4 36.5t-18 20t-42.5 9t-76.5 2.5
q-29 0 -42 -2t-16.5 -10t-4.5 -25l-10 -226l-3 -193q0 -26 4.5 -39t19.5 -17t48 -4q54 0 87 4t50.5 16t26 36t13.5 63l62 6l5 -7q-8 -34 -15.5 -84t-12.5 -92l-7 -8q-57 2 -116 3.5t-109 2.5t-81 1q-34 0 -77.5 -2.5t-76.5 -7.5zM218 287l8 74h26t41 -0.5t39 -0.5t52 3t68 7
l5 -7l-14 -71q-27 1 -67 2t-68 1q-21 0 -46 -2.5t-44 -5.5zM259 701l-11 6l-9 34q38 18 75 37t67.5 34.5t49 25.5l18.5 10l10 -6l20 -60l-5 -11l-18 -6t-48.5 -15.5t-69.5 -22t-79 -26.5z" />
    <glyph glyph-name="Ecircumflex" unicode="&#xca;" horiz-adv-x="593" 
d="M49 -10l6 55q44 6 60 24t16 61l1 403q0 32 -6.5 43t-28.5 11q-6 0 -15.5 -0.5t-17.5 -1.5l-4 6l8 51q20 0 47.5 -1t57 -1.5t53.5 -0.5q77 0 132.5 1t96.5 4t73 7l5 -8q-5 -25 -10 -55.5t-8 -61t-5 -56.5l-67 -5q1 9 1.5 22t0.5 20q0 23 -4 36.5t-18 20t-42.5 9t-76.5 2.5
q-29 0 -42 -2t-16.5 -10t-4.5 -25l-10 -226l-3 -193q0 -26 4.5 -39t19.5 -17t48 -4q54 0 87 4t50.5 16t26 36t13.5 63l62 6l5 -7q-8 -34 -15.5 -84t-12.5 -92l-7 -8q-57 2 -116 3.5t-109 2.5t-81 1q-34 0 -77.5 -2.5t-76.5 -7.5zM218 287l8 74h26t41 -0.5t39 -0.5t52 3t68 7
l5 -7l-14 -71q-27 1 -67 2t-68 1q-21 0 -46 -2.5t-44 -5.5zM190 710l-12 2l-18 30q25 19 51 39.5t47.5 38t34.5 28.5l13 11h16l13 -10.5t34.5 -28t47.5 -38.5t51 -40l-18 -30l-12 -2q-35 19 -69 35.5t-55 26.5q-21 -10 -54.5 -26.5t-69.5 -35.5z" />
    <glyph glyph-name="Edieresis" unicode="&#xcb;" horiz-adv-x="593" 
d="M49 -10l6 55q44 6 60 24t16 61l1 403q0 32 -6.5 43t-28.5 11q-6 0 -15.5 -0.5t-17.5 -1.5l-4 6l8 51q20 0 47.5 -1t57 -1.5t53.5 -0.5q77 0 132.5 1t96.5 4t73 7l5 -8q-5 -25 -10 -55.5t-8 -61t-5 -56.5l-67 -5q1 9 1.5 22t0.5 20q0 23 -4 36.5t-18 20t-42.5 9t-76.5 2.5
q-29 0 -42 -2t-16.5 -10t-4.5 -25l-10 -226l-3 -193q0 -26 4.5 -39t19.5 -17t48 -4q54 0 87 4t50.5 16t26 36t13.5 63l62 6l5 -7q-8 -34 -15.5 -84t-12.5 -92l-7 -8q-57 2 -116 3.5t-109 2.5t-81 1q-34 0 -77.5 -2.5t-76.5 -7.5zM218 287l8 74h26t41 -0.5t39 -0.5t52 3t68 7
l5 -7l-14 -71q-27 1 -67 2t-68 1q-21 0 -46 -2.5t-44 -5.5zM394 709q-24 0 -36.5 15t-12.5 35q0 25 16 41.5t41 16.5q24 0 36.5 -14.5t12.5 -36.5q0 -24 -15.5 -40.5t-41.5 -16.5zM223 709q-24 0 -36.5 15t-12.5 35q0 25 15.5 41.5t41.5 16.5q24 0 36.5 -14.5t12.5 -36.5
q0 -24 -16 -40.5t-41 -16.5z" />
    <glyph glyph-name="Igrave" unicode="&#xcc;" horiz-adv-x="363" 
d="M48 -11l6 54q46 9 61.5 26.5t15.5 59.5l1 404q0 32 -7.5 43t-29.5 11q-7 0 -18.5 -0.5t-20.5 -1.5l-3 6l7 50q29 0 65.5 -1t62.5 -1q20 0 55 2.5t72 5.5l-5 -54q-40 -5 -53.5 -16t-15.5 -40q-3 -52 -5.5 -110t-4 -115.5t-2.5 -107t-1 -83.5q0 -40 8.5 -54t32.5 -14
q13 0 26.5 1t22.5 2l3 -5l-9 -54q-20 1 -46 1.5t-51 1t-41 0.5q-23 0 -58 -3t-68 -8zM236 693q-40 14 -79 26.5t-70 22t-49 15.5l-18 6l-4 11l20 60l10 6l18.5 -10t49 -25.5t67.5 -34.5t75 -37l-10 -34z" />
    <glyph glyph-name="Iacute" unicode="&#xcd;" horiz-adv-x="363" 
d="M48 -11l6 54q46 9 61.5 26.5t15.5 59.5l1 404q0 32 -7.5 43t-29.5 11q-7 0 -18.5 -0.5t-20.5 -1.5l-3 6l7 50q29 0 65.5 -1t62.5 -1q20 0 55 2.5t72 5.5l-5 -54q-40 -5 -53.5 -16t-15.5 -40q-3 -52 -5.5 -110t-4 -115.5t-2.5 -107t-1 -83.5q0 -40 8.5 -54t32.5 -14
q13 0 26.5 1t22.5 2l3 -5l-9 -54q-20 1 -46 1.5t-51 1t-41 0.5q-23 0 -58 -3t-68 -8zM97 701l-11 6l-9 34q38 18 75 37t67.5 34.5t49 25.5l18.5 10l10 -6l20 -60l-5 -11l-18 -6t-48.5 -15.5t-69.5 -22t-79 -26.5z" />
    <glyph glyph-name="Icircumflex" unicode="&#xce;" horiz-adv-x="363" 
d="M48 -11l6 54q46 9 61.5 26.5t15.5 59.5l1 404q0 32 -7.5 43t-29.5 11q-7 0 -18.5 -0.5t-20.5 -1.5l-3 6l7 50q29 0 65.5 -1t62.5 -1q20 0 55 2.5t72 5.5l-5 -54q-40 -5 -53.5 -16t-15.5 -40q-3 -52 -5.5 -110t-4 -115.5t-2.5 -107t-1 -83.5q0 -40 8.5 -54t32.5 -14
q13 0 26.5 1t22.5 2l3 -5l-9 -54q-20 1 -46 1.5t-51 1t-41 0.5q-23 0 -58 -3t-68 -8zM58 710l-12 2l-18 30q25 19 51 39.5t47.5 38t34.5 28.5l13 11h16l13 -10.5t34.5 -28t47.5 -38.5t51 -40l-18 -30l-12 -2q-35 19 -69 35.5t-55 26.5q-21 -10 -54.5 -26.5t-69.5 -35.5z" />
    <glyph glyph-name="Eth" unicode="&#xd0;" horiz-adv-x="711" 
d="M328 -12l-15.5 2t-38.5 4t-48 4t-45 2q-26 0 -54 -3t-47.5 -5.5l-19.5 -2.5l6 55q33 7 49 16.5t21.5 32t5.5 66.5v137h-126l-7 7l8 44h125v185q0 32 -6.5 43t-27.5 11q-10 0 -22 -1l-12 -1l-3 6l7 52l12.5 -0.5t30.5 -1t37.5 -1t34.5 -0.5q16 0 41.5 0.5t51.5 1.5t44 1.5
l18 0.5q97 0 171 -37.5t114.5 -104.5t40.5 -157q0 -77 -26 -141.5t-73 -113t-110 -75t-137 -26.5zM244 347l150 1l6 -8l-6 -44h-152l-4 -159q0 -32 9 -50t32.5 -25.5t66.5 -7.5q99 0 154 68.5t55 194.5q0 87 -30.5 145t-90.5 87t-149 29q-19 0 -25.5 -4t-7.5 -19z" />
    <glyph glyph-name="Ntilde" unicode="&#xd1;" horiz-adv-x="723" 
d="M550 -34q-66 105 -127 196.5t-108 160.5t-74.5 108.5l-27.5 39.5h-7l-4 -376q1 -23 8 -32.5t25 -9.5q5 0 16.5 0.5t21.5 0.5h10l3 -5l-9 -53l-12 0.5t-30 1.5t-38 1.5t-36 0.5q-23 0 -47.5 -2t-41.5 -4l-17 -2l6 55q31 4 45.5 18t15.5 45l13 419q0 32 -17.5 44.5
t-67.5 17.5l-4 7l7 46l17 -1t40 -2.5t42 -1.5t37 1t30 2l12 1q46 -71 90 -138.5t83 -126t69.5 -102t47.5 -68l17 -24.5h7l-1 359q0 23 -8 33t-25 10q-12 0 -23.5 -0.5t-12.5 -0.5l-3 6l8 52l11.5 -0.5t29 -1.5t36 -1.5t33.5 -0.5q22 0 47 1.5t42.5 3.5l17.5 2l-5 -55
q-34 -4 -49.5 -19t-16.5 -44l-14 -549zM233 694l-30 28v7l77 87l17 4q12 0 32.5 -5.5t43 -12t42 -11.5t29.5 -5q9 0 20 7.5t21 16.5t16.5 16.5l6.5 7.5h8l30 -28v-7l-77 -86l-16 -4q-13 0 -33.5 5t-42.5 11.5t-41.5 11.5t-30.5 5q-9 0 -20 -7.5t-21 -16.5t-16.5 -16.5
l-6.5 -7.5h-8z" />
    <glyph glyph-name="Ograve" unicode="&#xd2;" horiz-adv-x="684" 
d="M316 -12q-85 0 -148 38.5t-98 109t-35 164.5q0 76 24 140t68.5 111.5t104.5 73.5t131 26q88 0 152 -38.5t99.5 -108t35.5 -163.5q0 -77 -25 -141.5t-69.5 -111.5t-105.5 -73.5t-134 -26.5zM345 54q57 0 98.5 29.5t65 83.5t23.5 127q0 88 -25 150.5t-69.5 96.5t-105.5 34
q-55 0 -96 -29.5t-63.5 -83t-22.5 -126.5q0 -87 24 -150t68 -97.5t103 -34.5zM399 701q-40 14 -79 26.5t-70 22t-49 15.5l-18 6l-4 11l20 60l10 6l18.5 -10t49 -25.5t67.5 -34.5t75 -37l-10 -34z" />
    <glyph glyph-name="Oacute" unicode="&#xd3;" horiz-adv-x="684" 
d="M316 -12q-85 0 -148 38.5t-98 109t-35 164.5q0 76 24 140t68.5 111.5t104.5 73.5t131 26q88 0 152 -38.5t99.5 -108t35.5 -163.5q0 -77 -25 -141.5t-69.5 -111.5t-105.5 -73.5t-134 -26.5zM345 54q57 0 98.5 29.5t65 83.5t23.5 127q0 88 -25 150.5t-69.5 96.5t-105.5 34
q-55 0 -96 -29.5t-63.5 -83t-22.5 -126.5q0 -87 24 -150t68 -97.5t103 -34.5zM284 701l-11 6l-9 34q38 18 75 37t67.5 34.5t49 25.5l18.5 10l10 -6l20 -60l-5 -11l-18 -6t-48.5 -15.5t-69.5 -22t-79 -26.5z" />
    <glyph glyph-name="Ocircumflex" unicode="&#xd4;" horiz-adv-x="684" 
d="M316 -12q-85 0 -148 38.5t-98 109t-35 164.5q0 76 24 140t68.5 111.5t104.5 73.5t131 26q88 0 152 -38.5t99.5 -108t35.5 -163.5q0 -77 -25 -141.5t-69.5 -111.5t-105.5 -73.5t-134 -26.5zM345 54q57 0 98.5 29.5t65 83.5t23.5 127q0 88 -25 150.5t-69.5 96.5t-105.5 34
q-55 0 -96 -29.5t-63.5 -83t-22.5 -126.5q0 -87 24 -150t68 -97.5t103 -34.5zM215 710l-12 2l-18 30q25 19 51 39.5t47.5 38t34.5 28.5l13 11h16l13 -10.5t34.5 -28t47.5 -38.5t51 -40l-18 -30l-12 -2q-35 19 -69 35.5t-55 26.5q-21 -10 -54.5 -26.5t-69.5 -35.5z" />
    <glyph glyph-name="Otilde" unicode="&#xd5;" horiz-adv-x="684" 
d="M316 -12q-85 0 -148 38.5t-98 109t-35 164.5q0 76 24 140t68.5 111.5t104.5 73.5t131 26q88 0 152 -38.5t99.5 -108t35.5 -163.5q0 -77 -25 -141.5t-69.5 -111.5t-105.5 -73.5t-134 -26.5zM345 54q57 0 98.5 29.5t65 83.5t23.5 127q0 88 -25 150.5t-69.5 96.5t-105.5 34
q-55 0 -96 -29.5t-63.5 -83t-22.5 -126.5q0 -87 24 -150t68 -97.5t103 -34.5zM198 694l-30 28v7l77 87l17 4q12 0 32.5 -5.5t43 -12t42 -11.5t29.5 -5q9 0 20 7.5t21 16.5t16.5 16.5l6.5 7.5h8l30 -28v-7l-77 -86l-16 -4q-13 0 -33.5 5t-42.5 11.5t-41.5 11.5t-30.5 5
q-9 0 -20 -7.5t-21 -16.5t-16.5 -16.5l-6.5 -7.5h-8z" />
    <glyph glyph-name="multiply" unicode="&#xd7;" horiz-adv-x="506" 
d="M119 69l-12 3l-37 55l20 19.5t50 49t60 59.5q-24 23 -48 47l-44.5 44.5l-33.5 33.5l-13 13l2 12l57 37l12 -12l32 -32l43.5 -43.5t45.5 -46.5q21 22 44 46.5t43.5 46.5t33 35.5l12.5 13.5l12 -3l42 -55l-135 -136q21 -21 45 -43.5t45.5 -42t34.5 -31.5l13 -12l-3 -13
l-55 -42l-133 131q-23 -23 -46.5 -46t-42.5 -43.5t-31.5 -32.5z" />
    <glyph glyph-name="Oslash" unicode="&#xd8;" horiz-adv-x="684" 
d="M227 68l-44 25l266 487l46 -25zM132 -102l-41 16l-3 10l95 169l44 -25zM495 555l-46 25l77 137l43 -17l3 -12zM316 -12q-85 0 -148 38.5t-98 109t-35 164.5q0 76 24 140t68.5 111.5t104.5 73.5t131 26q88 0 152 -38.5t99.5 -108t35.5 -163.5q0 -77 -25 -141.5
t-69.5 -111.5t-105.5 -73.5t-134 -26.5zM345 54q57 0 98.5 29.5t65 83.5t23.5 127q0 88 -25 150.5t-69.5 96.5t-105.5 34q-55 0 -96 -29.5t-63.5 -83t-22.5 -126.5q0 -87 24 -150t68 -97.5t103 -34.5z" />
    <glyph glyph-name="Ugrave" unicode="&#xd9;" horiz-adv-x="670" 
d="M322 -12q-109 0 -166.5 56t-57.5 163v326q0 32 -6.5 43t-28.5 11q-9 0 -21 -1l-12 -1l-2 4l7 53l22.5 -1t51.5 -1.5t53 -0.5q15 0 34.5 1.5t36.5 2.5t28.5 2.5l11.5 1.5l-6 -55q-34 -4 -46.5 -15.5t-13.5 -39.5l-8 -293q0 -89 38.5 -137t110.5 -48t110 39t38 114
q0 20 -0.5 58.5t-1.5 83.5t-1.5 85.5t-1 67l-0.5 26.5q-2 34 -8 44t-27 10q-9 0 -24 -1l-15 -1l-2 4l8 53l12 -0.5t30.5 -1t38 -1t33.5 -0.5q24 0 48.5 1.5t41.5 4l17 2.5l-5 -54q-40 -7 -52.5 -16.5t-12.5 -38.5v-325q0 -108 -65.5 -166.5t-186.5 -58.5zM405 701
q-40 14 -79 26.5t-70 22t-49 15.5l-18 6l-4 11l20 60l10 6l18.5 -10t49 -25.5t67.5 -34.5t75 -37l-10 -34z" />
    <glyph glyph-name="Uacute" unicode="&#xda;" horiz-adv-x="670" 
d="M322 -12q-109 0 -166.5 56t-57.5 163v326q0 32 -6.5 43t-28.5 11q-9 0 -21 -1l-12 -1l-2 4l7 53l22.5 -1t51.5 -1.5t53 -0.5q15 0 34.5 1.5t36.5 2.5t28.5 2.5l11.5 1.5l-6 -55q-34 -4 -46.5 -15.5t-13.5 -39.5l-8 -293q0 -89 38.5 -137t110.5 -48t110 39t38 114
q0 20 -0.5 58.5t-1.5 83.5t-1.5 85.5t-1 67l-0.5 26.5q-2 34 -8 44t-27 10q-9 0 -24 -1l-15 -1l-2 4l8 53l12 -0.5t30.5 -1t38 -1t33.5 -0.5q24 0 48.5 1.5t41.5 4l17 2.5l-5 -54q-40 -7 -52.5 -16.5t-12.5 -38.5v-325q0 -108 -65.5 -166.5t-186.5 -58.5zM290 701l-11 6
l-9 34q38 18 75 37t67.5 34.5t49 25.5l18.5 10l10 -6l20 -60l-5 -11l-18 -6t-48.5 -15.5t-69.5 -22t-79 -26.5z" />
    <glyph glyph-name="Ucircumflex" unicode="&#xdb;" horiz-adv-x="670" 
d="M322 -12q-109 0 -166.5 56t-57.5 163v326q0 32 -6.5 43t-28.5 11q-9 0 -21 -1l-12 -1l-2 4l7 53l22.5 -1t51.5 -1.5t53 -0.5q15 0 34.5 1.5t36.5 2.5t28.5 2.5l11.5 1.5l-6 -55q-34 -4 -46.5 -15.5t-13.5 -39.5l-8 -293q0 -89 38.5 -137t110.5 -48t110 39t38 114
q0 20 -0.5 58.5t-1.5 83.5t-1.5 85.5t-1 67l-0.5 26.5q-2 34 -8 44t-27 10q-9 0 -24 -1l-15 -1l-2 4l8 53l12 -0.5t30.5 -1t38 -1t33.5 -0.5q24 0 48.5 1.5t41.5 4l17 2.5l-5 -54q-40 -7 -52.5 -16.5t-12.5 -38.5v-325q0 -108 -65.5 -166.5t-186.5 -58.5zM220 710l-12 2
l-18 30q25 19 51 39.5t47.5 38t34.5 28.5l13 11h16l13 -10.5t34.5 -28t47.5 -38.5t51 -40l-18 -30l-12 -2q-35 19 -69 35.5t-55 26.5q-21 -10 -54.5 -26.5t-69.5 -35.5z" />
    <glyph glyph-name="Udieresis" unicode="&#xdc;" horiz-adv-x="670" 
d="M322 -12q-109 0 -166.5 56t-57.5 163v326q0 32 -6.5 43t-28.5 11q-9 0 -21 -1l-12 -1l-2 4l7 53l22.5 -1t51.5 -1.5t53 -0.5q15 0 34.5 1.5t36.5 2.5t28.5 2.5l11.5 1.5l-6 -55q-34 -4 -46.5 -15.5t-13.5 -39.5l-8 -293q0 -89 38.5 -137t110.5 -48t110 39t38 114
q0 20 -0.5 58.5t-1.5 83.5t-1.5 85.5t-1 67l-0.5 26.5q-2 34 -8 44t-27 10q-9 0 -24 -1l-15 -1l-2 4l8 53l12 -0.5t30.5 -1t38 -1t33.5 -0.5q24 0 48.5 1.5t41.5 4l17 2.5l-5 -54q-40 -7 -52.5 -16.5t-12.5 -38.5v-325q0 -108 -65.5 -166.5t-186.5 -58.5zM425 709
q-24 0 -36.5 15t-12.5 35q0 25 16 41.5t41 16.5q24 0 36.5 -14.5t12.5 -36.5q0 -24 -15.5 -40.5t-41.5 -16.5zM254 709q-24 0 -36.5 15t-12.5 35q0 25 15.5 41.5t41.5 16.5q24 0 36.5 -14.5t12.5 -36.5q0 -24 -16 -40.5t-41 -16.5z" />
    <glyph glyph-name="Thorn" unicode="&#xde;" horiz-adv-x="556" 
d="M48 -11l6 54q46 9 61.5 26.5t15.5 59.5l1 404q0 32 -7 43t-30 11q-10 0 -24.5 -1l-14.5 -1l-3 6l7 50q6 0 28 -0.5t50 -1t50 -0.5q17 0 38.5 1.5t41.5 2.5t33.5 2.5l13.5 1.5l-5 -54q-41 -5 -54 -15.5t-15 -36.5q-1 -13 -2 -20.5t0 -13.5h80q108 0 163.5 -43t55.5 -126
q0 -52 -32.5 -96t-87 -70t-119.5 -26h-71v-33q0 -36 8.5 -48t32.5 -12q19 0 35 1.5l16 1.5l3 -5l-9 -54l-15 0.5t-37.5 1t-46 1t-41.5 0.5q-20 0 -42 -2t-41.5 -3.5t-31 -3.5zM323 203q106 15 106 120q0 63 -40 92t-128 29q-15 0 -19.5 -2t-5.5 -9q-2 -47 -3.5 -87t-2 -71.5
t-1.5 -55.5q18 -6 46.5 -10.5t47.5 -5.5z" />
    <glyph glyph-name="germandbls" unicode="&#xdf;" horiz-adv-x="612" 
d="M417 -12q-49 0 -85 16t-38 39q0 13 6.5 31t16 37t17.5 29h17q1 -43 25 -68t65 -25q28 0 48.5 22.5t20.5 51.5q0 30 -21.5 51.5t-54 40.5t-65 40t-54 50t-21.5 71q0 27 12.5 49.5t31 41.5t37.5 37t31 37t12 41q0 41 -31 65t-85 24q-36 0 -59.5 -18t-34.5 -55.5t-12 -98.5
l-5 -393q-1 -51 37 -51q20 0 31 0.5l11 0.5l3 -4l-8 -53l-11.5 1t-29 1t-35 0.5t-29.5 0.5q-19 0 -40.5 -0.5t-39.5 -1.5t-29.5 -2l-11.5 -1l6 49q34 5 45.5 19.5t11.5 49.5v243q-2 23 -15 31.5t-49 9.5l-4 6l7 41l61 11q0 135 63.5 211t176.5 76q46 0 84 -18t60.5 -47
t22.5 -65q0 -33 -12 -57.5t-30 -44t-36 -37t-30 -36t-12 -40.5q0 -25 22 -44.5t54 -38t64 -40t54 -51t22 -72.5q0 -44 -25.5 -81.5t-68 -59.5t-94.5 -22z" />
    <glyph glyph-name="agrave" unicode="&#xe0;" horiz-adv-x="472" 
d="M377 -12q-42 0 -66 20t-28 59l-6 2q-22 -22 -43.5 -39.5t-38.5 -27.5t-28 -10q-38 0 -68 17.5t-47 47.5t-17 68q0 30 15 52.5t40 29.5l191 49l1 35q0 46 -22.5 72.5t-64.5 26.5q-28 0 -59.5 -13.5t-59.5 -35.5l-6 4l-15 50q28 16 62 33t64.5 28.5t46.5 11.5
q50 0 83.5 -16.5t50.5 -46t17 -69.5q0 -13 -3 -41t-7 -62t-6.5 -65.5t-2.5 -50.5q0 -21 10.5 -32.5t28.5 -11.5q15 0 30.5 7.5t23.5 14.5l15 -19q-9 -15 -23.5 -33.5t-32 -33.5t-35.5 -21zM193 72q17 0 40 11.5t42 28.5l4 98l-123 -35q-26 -8 -26 -38q0 -27 17.5 -46
t45.5 -19zM269 522q-43 36 -84 66.5t-66.5 49l-25.5 18.5l-2 13l45 53l12 1l13.5 -15t36.5 -40.5t51 -55.5l56 -60l-24 -27z" />
    <glyph glyph-name="aacute" unicode="&#xe1;" horiz-adv-x="472" 
d="M377 -12q-42 0 -66 20t-28 59l-6 2q-22 -22 -43.5 -39.5t-38.5 -27.5t-28 -10q-38 0 -68 17.5t-47 47.5t-17 68q0 30 15 52.5t40 29.5l191 49l1 35q0 46 -22.5 72.5t-64.5 26.5q-28 0 -59.5 -13.5t-59.5 -35.5l-6 4l-15 50q28 16 62 33t64.5 28.5t46.5 11.5
q50 0 83.5 -16.5t50.5 -46t17 -69.5q0 -13 -3 -41t-7 -62t-6.5 -65.5t-2.5 -50.5q0 -21 10.5 -32.5t28.5 -11.5q15 0 30.5 7.5t23.5 14.5l15 -19q-9 -15 -23.5 -33.5t-32 -33.5t-35.5 -21zM193 72q17 0 40 11.5t42 28.5l4 98l-123 -35q-26 -8 -26 -38q0 -27 17.5 -46
t45.5 -19zM183 521l-11 3l-25 27q28 30 55.5 60.5t50.5 56t36.5 41.5l13.5 16l11 -2l46 -52l-1 -12l-25.5 -19t-66 -50.5t-84.5 -68.5z" />
    <glyph glyph-name="acircumflex" unicode="&#xe2;" horiz-adv-x="472" 
d="M377 -12q-42 0 -66 20t-28 59l-6 2q-22 -22 -43.5 -39.5t-38.5 -27.5t-28 -10q-38 0 -68 17.5t-47 47.5t-17 68q0 30 15 52.5t40 29.5l191 49l1 35q0 46 -22.5 72.5t-64.5 26.5q-28 0 -59.5 -13.5t-59.5 -35.5l-6 4l-15 50q28 16 62 33t64.5 28.5t46.5 11.5
q50 0 83.5 -16.5t50.5 -46t17 -69.5q0 -13 -3 -41t-7 -62t-6.5 -65.5t-2.5 -50.5q0 -21 10.5 -32.5t28.5 -11.5q15 0 30.5 7.5t23.5 14.5l15 -19q-9 -15 -23.5 -33.5t-32 -33.5t-35.5 -21zM193 72q17 0 40 11.5t42 28.5l4 98l-123 -35q-26 -8 -26 -38q0 -27 17.5 -46
t45.5 -19zM103 529l-12 2l-20 30q25 26 50.5 53t47 50t34 37l12.5 14h16l12.5 -14t34 -37t47 -50t50.5 -53l-20 -30l-12 -2q-34 28 -67 52t-53 39q-21 -15 -53 -38.5t-67 -52.5z" />
    <glyph glyph-name="atilde" unicode="&#xe3;" horiz-adv-x="472" 
d="M377 -12q-42 0 -66 20t-28 59l-6 2q-22 -22 -43.5 -39.5t-38.5 -27.5t-28 -10q-38 0 -68 17.5t-47 47.5t-17 68q0 30 15 52.5t40 29.5l191 49l1 35q0 46 -22.5 72.5t-64.5 26.5q-28 0 -59.5 -13.5t-59.5 -35.5l-6 4l-15 50q28 16 62 33t64.5 28.5t46.5 11.5
q50 0 83.5 -16.5t50.5 -46t17 -69.5q0 -13 -3 -41t-7 -62t-6.5 -65.5t-2.5 -50.5q0 -21 10.5 -32.5t28.5 -11.5q15 0 30.5 7.5t23.5 14.5l15 -19q-9 -15 -23.5 -33.5t-32 -33.5t-35.5 -21zM193 72q17 0 40 11.5t42 28.5l4 98l-123 -35q-26 -8 -26 -38q0 -27 17.5 -46
t45.5 -19zM79 542l-30 28v8l77 94l16 4q13 0 33.5 -5t43 -11.5t42 -11.5t29.5 -5q9 0 19.5 8.5t21 19t17 19l6.5 8.5h8l30 -28v-7l-77 -94l-17 -4q-12 0 -32.5 5t-43 11.5t-41.5 11.5t-30 5q-9 0 -20.5 -8.5t-21 -19t-16 -19.5l-6.5 -9h-8z" />
    <glyph glyph-name="adieresis" unicode="&#xe4;" horiz-adv-x="472" 
d="M377 -12q-42 0 -66 20t-28 59l-6 2q-22 -22 -43.5 -39.5t-38.5 -27.5t-28 -10q-38 0 -68 17.5t-47 47.5t-17 68q0 30 15 52.5t40 29.5l191 49l1 35q0 46 -22.5 72.5t-64.5 26.5q-28 0 -59.5 -13.5t-59.5 -35.5l-6 4l-15 50q28 16 62 33t64.5 28.5t46.5 11.5
q50 0 83.5 -16.5t50.5 -46t17 -69.5q0 -13 -3 -41t-7 -62t-6.5 -65.5t-2.5 -50.5q0 -21 10.5 -32.5t28.5 -11.5q15 0 30.5 7.5t23.5 14.5l15 -19q-9 -15 -23.5 -33.5t-32 -33.5t-35.5 -21zM193 72q17 0 40 11.5t42 28.5l4 98l-123 -35q-26 -8 -26 -38q0 -27 17.5 -46
t45.5 -19zM302 549q-24 0 -36.5 15t-12.5 35q0 24 16 41t41 17q24 0 36.5 -14.5t12.5 -36.5q0 -24 -15.5 -40.5t-41.5 -16.5zM131 549q-24 0 -36.5 15t-12.5 35q0 24 15.5 41t41.5 17q24 0 36.5 -14.5t12.5 -36.5q0 -24 -16 -40.5t-41 -16.5z" />
    <glyph glyph-name="aring" unicode="&#xe5;" horiz-adv-x="472" 
d="M377 -12q-42 0 -66 20t-28 59l-6 2q-22 -22 -43.5 -39.5t-38.5 -27.5t-28 -10q-38 0 -68 17.5t-47 47.5t-17 68q0 30 15 52.5t40 29.5l191 49l1 35q0 46 -22.5 72.5t-64.5 26.5q-28 0 -59.5 -13.5t-59.5 -35.5l-6 4l-15 50q28 16 62 33t64.5 28.5t46.5 11.5
q50 0 83.5 -16.5t50.5 -46t17 -69.5q0 -13 -3 -41t-7 -62t-6.5 -65.5t-2.5 -50.5q0 -21 10.5 -32.5t28.5 -11.5q15 0 30.5 7.5t23.5 14.5l15 -19q-9 -15 -23.5 -33.5t-32 -33.5t-35.5 -21zM193 72q17 0 40 11.5t42 28.5l4 98l-123 -35q-26 -8 -26 -38q0 -27 17.5 -46
t45.5 -19zM218 544q-37 0 -59 22.5t-22 61.5q0 40 25 64.5t64 24.5q38 0 60 -21.5t22 -58.5q0 -41 -25.5 -67t-64.5 -26zM225 588q20 0 31 10t11 28q0 22 -13 33.5t-35 11.5q-43 0 -43 -37q0 -19 14 -32.5t35 -13.5z" />
    <glyph glyph-name="ae" unicode="&#xe6;" horiz-adv-x="660" 
d="M483 -12q-64 0 -113 27t-74 76q-40 -40 -77 -66.5t-62 -32.5q-38 0 -68 17t-47 47t-17 68q0 31 16 54t42 29l187 46l1 42q0 46 -22 71.5t-63 25.5q-31 0 -59 -12.5t-45.5 -25.5l-17.5 -13l-6 4l-15 50l13 7.5t34.5 18.5t45 21.5t45 18t34.5 7.5q92 0 124 -73
q29 35 68.5 54t82.5 19q68 0 106.5 -40.5t38.5 -112.5q0 -9 -1 -16l-1 -7l-10 -13l-263 -56q5 -72 43 -114.5t97 -42.5q30 0 58.5 8.5t46 17l17.5 8.5l6 -3l14 -38l-15.5 -11t-40 -24.5t-52 -24.5t-51.5 -11zM179 70q19 0 45.5 14.5t57.5 41.5q-12 37 -13 83l-121 -34
q-15 -4 -22.5 -15t-7.5 -25q0 -26 18 -45.5t43 -19.5zM358 267l154 43q19 5 19 16q0 32 -18.5 53t-47.5 21q-49 0 -78 -33.5t-29 -87.5v-12z" />
    <glyph glyph-name="ccedilla" unicode="&#xe7;" horiz-adv-x="427" 
d="M245 -12q-65 0 -113 28t-74.5 78t-26.5 119q0 73 31 130.5t84.5 91t121.5 33.5q34 0 61.5 -4.5t43.5 -10l16 -5.5l4 -7l-4.5 -19.5t-9.5 -52.5t-8 -74l-51 -3v32q0 36 -20 56.5t-54 20.5q-54 0 -83 -39.5t-29 -112.5q0 -85 33 -132.5t92 -47.5q27 0 52.5 8.5t41 16
l15.5 7.5l7 -3l14 -40l-14.5 -10.5t-37 -24.5t-47.5 -24.5t-45 -10.5zM211 -235q-16 0 -32.5 4.5t-28 13.5t-11.5 21q0 11 10.5 29t19.5 30h9q1 -28 15.5 -42t38.5 -14q19 0 31.5 9.5t12.5 24.5q0 12 -13 25t-32.5 25.5t-39.5 23.5l32 110h47l-23 -73q18 -10 38.5 -24.5
t36 -31t15.5 -36.5q0 -26 -19 -47.5t-47.5 -34.5t-59.5 -13z" />
    <glyph glyph-name="egrave" unicode="&#xe8;" horiz-adv-x="454" 
d="M249 -12q-66 0 -115 28t-76 78.5t-27 118.5q0 53 18 99t49.5 81t72.5 55t88 20q158 0 158 -156q0 -14 -2.5 -29t-4.5 -24l-12 -11h-268q0 -80 32 -126t90.5 -52t137.5 30l6 -3l14 -38q-21 -15 -49.5 -31.5t-58 -28t-53.5 -11.5zM132 293l161 8q13 2 17.5 6.5t4.5 18.5
q0 39 -19 59t-55 20q-43 0 -72.5 -29.5t-36.5 -82.5zM293 522q-43 36 -84 66.5t-66.5 49l-25.5 18.5l-2 13l45 53l12 1l13.5 -15t36.5 -40.5t51 -55.5l56 -60l-24 -27z" />
    <glyph glyph-name="eacute" unicode="&#xe9;" horiz-adv-x="454" 
d="M249 -12q-66 0 -115 28t-76 78.5t-27 118.5q0 53 18 99t49.5 81t72.5 55t88 20q158 0 158 -156q0 -14 -2.5 -29t-4.5 -24l-12 -11h-268q0 -80 32 -126t90.5 -52t137.5 30l6 -3l14 -38q-21 -15 -49.5 -31.5t-58 -28t-53.5 -11.5zM132 293l161 8q13 2 17.5 6.5t4.5 18.5
q0 39 -19 59t-55 20q-43 0 -72.5 -29.5t-36.5 -82.5zM206 521l-11 3l-25 27q28 30 55.5 60.5t50.5 56t36.5 41.5l13.5 16l11 -2l46 -52l-1 -12l-25.5 -19t-66 -50.5t-84.5 -68.5z" />
    <glyph glyph-name="ecircumflex" unicode="&#xea;" horiz-adv-x="454" 
d="M249 -12q-66 0 -115 28t-76 78.5t-27 118.5q0 53 18 99t49.5 81t72.5 55t88 20q158 0 158 -156q0 -14 -2.5 -29t-4.5 -24l-12 -11h-268q0 -80 32 -126t90.5 -52t137.5 30l6 -3l14 -38q-21 -15 -49.5 -31.5t-58 -28t-53.5 -11.5zM132 293l161 8q13 2 17.5 6.5t4.5 18.5
q0 39 -19 59t-55 20q-43 0 -72.5 -29.5t-36.5 -82.5zM126 529l-12 2l-20 30q25 26 50.5 53t47 50t34 37l12.5 14h16l12.5 -14t34 -37t47 -50t50.5 -53l-20 -30l-12 -2q-34 28 -67 52t-53 39q-21 -15 -53 -38.5t-67 -52.5z" />
    <glyph glyph-name="edieresis" unicode="&#xeb;" horiz-adv-x="454" 
d="M249 -12q-66 0 -115 28t-76 78.5t-27 118.5q0 53 18 99t49.5 81t72.5 55t88 20q158 0 158 -156q0 -14 -2.5 -29t-4.5 -24l-12 -11h-268q0 -80 32 -126t90.5 -52t137.5 30l6 -3l14 -38q-21 -15 -49.5 -31.5t-58 -28t-53.5 -11.5zM132 293l161 8q13 2 17.5 6.5t4.5 18.5
q0 39 -19 59t-55 20q-43 0 -72.5 -29.5t-36.5 -82.5zM325 549q-24 0 -36.5 15t-12.5 35q0 24 16 41t41 17q24 0 36.5 -14.5t12.5 -36.5q0 -24 -15.5 -40.5t-41.5 -16.5zM154 549q-24 0 -36.5 15t-12.5 35q0 24 15.5 41t41.5 17q24 0 36.5 -14.5t12.5 -36.5q0 -24 -16 -40.5
t-41 -16.5z" />
    <glyph glyph-name="igrave" unicode="&#xec;" horiz-adv-x="287" 
d="M36 -12l6 51q30 7 43 22.5t13 41.5v237q0 29 -9 42t-30 13q-7 0 -15.5 -2l-8.5 -2l4 46q30 5 59 10t53 10t38.5 8l14.5 3l7 -14q-5 -10 -9.5 -43t-7.5 -81.5t-4.5 -107t-1.5 -121.5q0 -26 7.5 -38t25.5 -12q8 0 20 1l12 1l2 -5l-9 -51l-9.5 0.5t-24.5 1t-32 1t-32 0.5
q-23 0 -49 -3t-44.5 -6zM186 522q-43 36 -84 66.5t-66.5 49l-25.5 18.5l-2 13l45 53l12 1l13.5 -15t36.5 -40.5t51 -55.5l56 -60l-24 -27z" />
    <glyph glyph-name="iacute" unicode="&#xed;" horiz-adv-x="287" 
d="M36 -12l6 51q30 7 43 22.5t13 41.5v237q0 29 -9 42t-30 13q-7 0 -15.5 -2l-8.5 -2l4 46q30 5 59 10t53 10t38.5 8l14.5 3l7 -14q-5 -10 -9.5 -43t-7.5 -81.5t-4.5 -107t-1.5 -121.5q0 -26 7.5 -38t25.5 -12q8 0 20 1l12 1l2 -5l-9 -51l-9.5 0.5t-24.5 1t-32 1t-32 0.5
q-23 0 -49 -3t-44.5 -6zM70 521l-11 3l-25 27q28 30 55.5 60.5t50.5 56t36.5 41.5l13.5 16l11 -2l46 -52l-1 -12l-25.5 -19t-66 -50.5t-84.5 -68.5z" />
    <glyph glyph-name="icircumflex" unicode="&#xee;" horiz-adv-x="287" 
d="M36 -12l6 51q30 7 43 22.5t13 41.5v237q0 29 -9 42t-30 13q-7 0 -15.5 -2l-8.5 -2l4 46q30 5 59 10t53 10t38.5 8l14.5 3l7 -14q-5 -10 -9.5 -43t-7.5 -81.5t-4.5 -107t-1.5 -121.5q0 -26 7.5 -38t25.5 -12q8 0 20 1l12 1l2 -5l-9 -51l-9.5 0.5t-24.5 1t-32 1t-32 0.5
q-23 0 -49 -3t-44.5 -6zM28 528l-12 2l-20 30q25 26 50.5 53t47 50t34 37l12.5 14h16l12.5 -14t34 -37t47 -50t50.5 -53l-20 -30l-12 -2q-34 28 -67 52t-53 39q-21 -15 -53 -38.5t-67 -52.5z" />
    <glyph glyph-name="eth" unicode="&#xf0;" horiz-adv-x="508" 
d="M243 -12q-62 0 -108.5 27.5t-72 78t-25.5 118.5q0 67 28.5 122t77 88t109.5 33q14 0 28.5 -6t25.5 -11.5t13 -5.5l2 3q-16 36 -37.5 68t-49.5 60l-132 -64l-9 3l-9 43l110 54q-31 27 -68 50.5t-80 44.5l22 42l12 5q104 -45 183 -107l139 68l9 -5l9 -42l-115 -56
q81 -74 123.5 -164t42.5 -190q0 -73 -29.5 -131.5t-80.5 -92t-118 -33.5zM269 49q46 0 71.5 41t25.5 115q0 81 -17 149q-11 10 -35 22.5t-63 12.5q-36 0 -60.5 -17.5t-37.5 -51.5t-13 -86q0 -57 16 -98.5t45 -64t68 -22.5z" />
    <glyph glyph-name="ntilde" unicode="&#xf1;" horiz-adv-x="565" 
d="M324 40q27 7 39 21.5t12 39.5l4 187q0 47 -19 71.5t-56 24.5q-21 0 -42.5 -8.5t-38.5 -19t-26 -17.5q-1 -27 -2.5 -62t-3.5 -70t-3 -63.5t-1 -41.5q0 -28 8 -39.5t26 -11.5q8 0 19.5 1l11.5 1l2 -4l-9 -52l-16.5 1t-39 1.5t-42.5 0.5q-23 0 -48 -1.5t-42.5 -3l-17.5 -1.5
l7 51q29 4 40.5 16.5t11.5 40.5v230q0 34 -10.5 47t-37.5 13h-12l-4 5l4 41q40 7 76.5 13.5t60 12l23.5 5.5l7 -9l-4.5 -20.5t-6.5 -46.5l3 -4q10 8 29 21.5t40 26.5t40 22t30 9q67 0 105 -34.5t38 -94.5q0 -14 -2.5 -44.5t-5.5 -67.5t-5.5 -70.5t-2.5 -53.5q0 -28 8 -40.5
t26 -12.5q8 0 20.5 1l12.5 1l2 -4l-9 -51l-9.5 0.5t-25 1t-32 1t-30.5 0.5q-16 0 -34 -1.5t-35 -3.5t-27.5 -3.5l-10.5 -1.5zM150 542l-30 28v8l77 94l16 4q13 0 33.5 -5t43 -11.5t42 -11.5t29.5 -5q9 0 19.5 8.5t21 19t17 19l6.5 8.5h8l30 -28v-7l-77 -94l-17 -4
q-12 0 -32.5 5t-43 11.5t-41.5 11.5t-30 5q-9 0 -20.5 -8.5t-21 -19t-16 -19.5l-6.5 -9h-8z" />
    <glyph glyph-name="ograve" unicode="&#xf2;" horiz-adv-x="500" 
d="M236 -12q-60 0 -105.5 28t-71 79t-25.5 118q0 74 30.5 131.5t84.5 90.5t121 33q61 0 106.5 -28t70.5 -78.5t25 -118.5q0 -73 -30.5 -131t-84 -91t-121.5 -33zM260 49q50 0 78.5 40.5t28.5 113.5q0 61 -15.5 105.5t-43 68.5t-65.5 24q-49 0 -77.5 -41t-28.5 -114
q0 -62 15 -106t43 -67.5t65 -23.5zM301 522q-43 36 -84 66.5t-66.5 49l-25.5 18.5l-2 13l45 53l12 1l13.5 -15t36.5 -40.5t51 -55.5l56 -60l-24 -27z" />
    <glyph glyph-name="oacute" unicode="&#xf3;" horiz-adv-x="500" 
d="M236 -12q-60 0 -105.5 28t-71 79t-25.5 118q0 74 30.5 131.5t84.5 90.5t121 33q61 0 106.5 -28t70.5 -78.5t25 -118.5q0 -73 -30.5 -131t-84 -91t-121.5 -33zM260 49q50 0 78.5 40.5t28.5 113.5q0 61 -15.5 105.5t-43 68.5t-65.5 24q-49 0 -77.5 -41t-28.5 -114
q0 -62 15 -106t43 -67.5t65 -23.5zM215 521l-11 3l-25 27q28 30 55.5 60.5t50.5 56t36.5 41.5l13.5 16l11 -2l46 -52l-1 -12l-25.5 -19t-66 -50.5t-84.5 -68.5z" />
    <glyph glyph-name="ocircumflex" unicode="&#xf4;" horiz-adv-x="500" 
d="M236 -12q-60 0 -105.5 28t-71 79t-25.5 118q0 74 30.5 131.5t84.5 90.5t121 33q61 0 106.5 -28t70.5 -78.5t25 -118.5q0 -73 -30.5 -131t-84 -91t-121.5 -33zM260 49q50 0 78.5 40.5t28.5 113.5q0 61 -15.5 105.5t-43 68.5t-65.5 24q-49 0 -77.5 -41t-28.5 -114
q0 -62 15 -106t43 -67.5t65 -23.5zM135 529l-12 2l-20 30q25 26 50.5 53t47 50t34 37l12.5 14h16l12.5 -14t34 -37t47 -50t50.5 -53l-20 -30l-12 -2q-34 28 -67 52t-53 39q-21 -15 -53 -38.5t-67 -52.5z" />
    <glyph glyph-name="otilde" unicode="&#xf5;" horiz-adv-x="500" 
d="M236 -12q-60 0 -105.5 28t-71 79t-25.5 118q0 74 30.5 131.5t84.5 90.5t121 33q61 0 106.5 -28t70.5 -78.5t25 -118.5q0 -73 -30.5 -131t-84 -91t-121.5 -33zM260 49q50 0 78.5 40.5t28.5 113.5q0 61 -15.5 105.5t-43 68.5t-65.5 24q-49 0 -77.5 -41t-28.5 -114
q0 -62 15 -106t43 -67.5t65 -23.5zM111 542l-30 28v8l77 94l16 4q13 0 33.5 -5t43 -11.5t42 -11.5t29.5 -5q9 0 19.5 8.5t21 19t17 19l6.5 8.5h8l30 -28v-7l-77 -94l-17 -4q-12 0 -32.5 5t-43 11.5t-41.5 11.5t-30 5q-9 0 -20.5 -8.5t-21 -19t-16 -19.5l-6.5 -9h-8z" />
    <glyph glyph-name="divide" unicode="&#xf7;" horiz-adv-x="506" 
d="M24 222l-7 10l13 67h24t61 -0.5t78 -0.5h74q30 0 66.5 1t71 2t56 2l21.5 1l6 -11l-9 -69l-227 -1h-73t-74.5 -0.5t-58 -0.5h-22.5zM245 20q-30 0 -45.5 18t-15.5 43q0 30 18.5 49t48.5 19t46 -18t16 -44q0 -28 -18.5 -47.5t-49.5 -19.5zM245 371q-30 0 -45.5 18.5
t-15.5 43.5q0 29 18.5 48.5t48.5 19.5t46 -18t16 -44q0 -29 -18.5 -48.5t-49.5 -19.5z" />
    <glyph glyph-name="oslash" unicode="&#xf8;" horiz-adv-x="506" 
d="M185 58l-44 26l181 332l45 -25zM92 -106l-41 16l-3 10l93 164l44 -26zM367 391l-45 25l76 137l43 -17l3 -12zM237 -12q-60 0 -105.5 28t-71 79t-25.5 118q0 74 30.5 131.5t84.5 90.5t121 33q61 0 106.5 -28t70.5 -78.5t25 -118.5q0 -73 -30.5 -131t-84 -91t-121.5 -33z
M261 49q50 0 78.5 40.5t28.5 113.5q0 61 -15.5 105.5t-43 68.5t-65.5 24q-49 0 -77.5 -41t-28.5 -114q0 -62 15 -106t43 -67.5t65 -23.5z" />
    <glyph glyph-name="ugrave" unicode="&#xf9;" horiz-adv-x="543" 
d="M83 342q0 26 -8.5 39t-26.5 13q-9 0 -17.5 -1.5l-8.5 -1.5l5 46q27 4 55 9.5t52 10.5t39 8l15 3l7 -14q-5 -13 -9.5 -43t-8.5 -71t-6 -86.5t-2 -90.5q0 -90 72 -90q29 0 56 16.5t50 31.5v220q0 30 -10 41t-38 11q-3 0 -11.5 -0.5l-8.5 -0.5l5 46q30 4 59.5 9t54 9.5
t40 7.5l15.5 3l7 -14q-6 -15 -11.5 -65t-9 -121.5t-3.5 -149.5q0 -21 10.5 -32.5t27.5 -11.5q15 0 27 5.5t20 11l8 5.5l15 -18l-9 -13t-23.5 -30t-31 -30.5t-31.5 -15.5q-86 0 -95 79l-6 3q-44 -36 -79 -59t-48 -23q-69 0 -106 31t-37 90zM307 522q-43 36 -84 66.5t-66.5 49
l-25.5 18.5l-2 13l45 53l12 1l13.5 -15t36.5 -40.5t51 -55.5l56 -60l-24 -27z" />
    <glyph glyph-name="uacute" unicode="&#xfa;" horiz-adv-x="543" 
d="M83 342q0 26 -8.5 39t-26.5 13q-9 0 -17.5 -1.5l-8.5 -1.5l5 46q27 4 55 9.5t52 10.5t39 8l15 3l7 -14q-5 -13 -9.5 -43t-8.5 -71t-6 -86.5t-2 -90.5q0 -90 72 -90q29 0 56 16.5t50 31.5v220q0 30 -10 41t-38 11q-3 0 -11.5 -0.5l-8.5 -0.5l5 46q30 4 59.5 9t54 9.5
t40 7.5l15.5 3l7 -14q-6 -15 -11.5 -65t-9 -121.5t-3.5 -149.5q0 -21 10.5 -32.5t27.5 -11.5q15 0 27 5.5t20 11l8 5.5l15 -18l-9 -13t-23.5 -30t-31 -30.5t-31.5 -15.5q-86 0 -95 79l-6 3q-44 -36 -79 -59t-48 -23q-69 0 -106 31t-37 90zM220 521l-11 3l-25 27
q28 30 55.5 60.5t50.5 56t36.5 41.5l13.5 16l11 -2l46 -52l-1 -12l-25.5 -19t-66 -50.5t-84.5 -68.5z" />
    <glyph glyph-name="ucircumflex" unicode="&#xfb;" horiz-adv-x="543" 
d="M83 342q0 26 -8.5 39t-26.5 13q-9 0 -17.5 -1.5l-8.5 -1.5l5 46q27 4 55 9.5t52 10.5t39 8l15 3l7 -14q-5 -13 -9.5 -43t-8.5 -71t-6 -86.5t-2 -90.5q0 -90 72 -90q29 0 56 16.5t50 31.5v220q0 30 -10 41t-38 11q-3 0 -11.5 -0.5l-8.5 -0.5l5 46q30 4 59.5 9t54 9.5
t40 7.5l15.5 3l7 -14q-6 -15 -11.5 -65t-9 -121.5t-3.5 -149.5q0 -21 10.5 -32.5t27.5 -11.5q15 0 27 5.5t20 11l8 5.5l15 -18l-9 -13t-23.5 -30t-31 -30.5t-31.5 -15.5q-86 0 -95 79l-6 3q-44 -36 -79 -59t-48 -23q-69 0 -106 31t-37 90zM140 529l-12 2l-20 30
q25 26 50.5 53t47 50t34 37l12.5 14h16l12.5 -14t34 -37t47 -50t50.5 -53l-20 -30l-12 -2q-34 28 -67 52t-53 39q-21 -15 -53 -38.5t-67 -52.5z" />
    <glyph glyph-name="udieresis" unicode="&#xfc;" horiz-adv-x="543" 
d="M83 342q0 26 -8.5 39t-26.5 13q-9 0 -17.5 -1.5l-8.5 -1.5l5 46q27 4 55 9.5t52 10.5t39 8l15 3l7 -14q-5 -13 -9.5 -43t-8.5 -71t-6 -86.5t-2 -90.5q0 -90 72 -90q29 0 56 16.5t50 31.5v220q0 30 -10 41t-38 11q-3 0 -11.5 -0.5l-8.5 -0.5l5 46q30 4 59.5 9t54 9.5
t40 7.5l15.5 3l7 -14q-6 -15 -11.5 -65t-9 -121.5t-3.5 -149.5q0 -21 10.5 -32.5t27.5 -11.5q15 0 27 5.5t20 11l8 5.5l15 -18l-9 -13t-23.5 -30t-31 -30.5t-31.5 -15.5q-86 0 -95 79l-6 3q-44 -36 -79 -59t-48 -23q-69 0 -106 31t-37 90zM340 549q-24 0 -36.5 15t-12.5 35
q0 24 16 41t41 17q24 0 36.5 -14.5t12.5 -36.5q0 -24 -15.5 -40.5t-41.5 -16.5zM169 549q-24 0 -36.5 15t-12.5 35q0 24 15.5 41t41.5 17q24 0 36.5 -14.5t12.5 -36.5q0 -24 -16 -40.5t-41 -16.5z" />
    <glyph glyph-name="thorn" unicode="&#xfe;" horiz-adv-x="511" 
d="M14 -237l6 49q27 4 38 12.5t14 27.5t3 51l3 183v533q0 22 -5.5 33t-19.5 14t-41 -1l5 47q27 3 58.5 8.5t61.5 11t53 10.5l7 -16q-5 -7 -10 -48.5t-8.5 -112.5t-6.5 -166q29 20 52.5 35.5t40 24t23.5 8.5q57 0 100 -27t67 -76t24 -114q0 -73 -33 -132.5t-89.5 -94
t-127.5 -34.5l-63 3v-100q0 -33 5 -49.5t22.5 -20t54.5 -1.5l2 -4l-9 -48q-13 0 -28 0.5t-29 0.5h-26q-39 0 -77.5 -2t-66.5 -5zM254 56q59 0 92.5 41.5t33.5 114.5q0 51 -15.5 90.5t-42 62t-60.5 22.5q-17 0 -42.5 -12.5t-49.5 -32.5l-3 -268z" />
    <glyph glyph-name="ydieresis" unicode="&#xff;" horiz-adv-x="454" 
d="M43 -241q-5 0 -14.5 8t-19 19.5t-16.5 22.5t-7 17l6 10q61 2 109.5 45t82.5 115l-22.5 67.5t-27 78.5t-28.5 82t-27 77t-24 62q-10 25 -25.5 35t-38.5 11l-2 4l6 44h18t33.5 -0.5t29.5 -0.5q24 0 47.5 1t43 2.5t31.5 2.5l12 1l2 -5l-7 -43q-31 -1 -42 -6.5t-11 -18.5
q0 -9 6 -32.5t15 -55t19 -65t19 -62t15 -46.5l6 -18h6q17 40 35 85t33.5 86t26 70t10.5 36q0 13 -8 18.5t-27 5.5h-40l-2 4l7 44l16 -1t40 -2t48 -1q17 0 36 0.5t33.5 0.5h18.5l-7 -48q-22 -4 -33 -15t-21 -38l-127 -306q-35 -84 -63.5 -140.5t-55 -90t-54 -47.5t-61.5 -13z
M318 549q-24 0 -36.5 15t-12.5 35q0 24 16 41t41 17q24 0 36.5 -14.5t12.5 -36.5q0 -24 -15.5 -40.5t-41.5 -16.5zM147 549q-24 0 -36.5 15t-12.5 35q0 24 15.5 41t41.5 17q24 0 36.5 -14.5t12.5 -36.5q0 -24 -16 -40.5t-41 -16.5z" />
    <glyph glyph-name="Amacron" unicode="&#x100;" horiz-adv-x="603" 
d="M334 -9l-4 7l4 48q34 4 52 7.5t25 10.5t7 20q0 8 -1.5 18.5t-5.5 22.5l-28 95q-18 1 -48.5 1h-49.5q-27 0 -56.5 -2.5t-46.5 -4.5l-32 -92q-8 -24 -8 -35q0 -20 13 -28.5t41 -8.5h51l3 -5l-6 -51l-22 1.5t-55 3t-65 1.5q-26 0 -52.5 -0.5t-44.5 -1.5l-18 -1l8 55
q26 4 42 19.5t30 53.5l188 509l104 17l9 -3l7 -24.5t18.5 -67t26.5 -96.5t32 -113t34.5 -117.5t33.5 -108.5q12 -36 31 -51t58 -19l3 -5l-7 -49l-20.5 1t-47 1.5t-46.5 0.5q-39 0 -75.5 -2.5t-59 -4.5zM202 279h81q18 0 43 1.5t41 2.5l-69 244h-10zM165 714l-8 10l12 58
h15.5t39.5 -0.5t50.5 -0.5h48.5q25 0 54.5 1.5t51.5 3l22 1.5l7 -11l-9 -60l-142 -1h-62.5t-56.5 -0.5z" />
    <glyph glyph-name="amacron" unicode="&#x101;" horiz-adv-x="472" 
d="M377 -12q-42 0 -66 20t-28 59l-6 2q-22 -22 -43.5 -39.5t-38.5 -27.5t-28 -10q-38 0 -68 17.5t-47 47.5t-17 68q0 30 15 52.5t40 29.5l191 49l1 35q0 46 -22.5 72.5t-64.5 26.5q-28 0 -59.5 -13.5t-59.5 -35.5l-6 4l-15 50q28 16 62 33t64.5 28.5t46.5 11.5
q50 0 83.5 -16.5t50.5 -46t17 -69.5q0 -13 -3 -41t-7 -62t-6.5 -65.5t-2.5 -50.5q0 -21 10.5 -32.5t28.5 -11.5q15 0 30.5 7.5t23.5 14.5l15 -19q-9 -15 -23.5 -33.5t-32 -33.5t-35.5 -21zM193 72q17 0 40 11.5t42 28.5l4 98l-123 -35q-26 -8 -26 -38q0 -27 17.5 -46
t45.5 -19zM80 572l-8 10l12 58h15.5t39.5 -0.5t50.5 -0.5h48.5q25 0 54.5 1.5t51.5 3l22 1.5l7 -11l-9 -60l-142 -1h-62.5t-56.5 -0.5z" />
    <glyph glyph-name="Abreve" unicode="&#x102;" horiz-adv-x="603" 
d="M334 -9l-4 7l4 48q34 4 52 7.5t25 10.5t7 20q0 8 -1.5 18.5t-5.5 22.5l-28 95q-18 1 -48.5 1h-49.5q-27 0 -56.5 -2.5t-46.5 -4.5l-32 -92q-8 -24 -8 -35q0 -20 13 -28.5t41 -8.5h51l3 -5l-6 -51l-22 1.5t-55 3t-65 1.5q-26 0 -52.5 -0.5t-44.5 -1.5l-18 -1l8 55
q26 4 42 19.5t30 53.5l188 509l104 17l9 -3l7 -24.5t18.5 -67t26.5 -96.5t32 -113t34.5 -117.5t33.5 -108.5q12 -36 31 -51t58 -19l3 -5l-7 -49l-20.5 1t-47 1.5t-46.5 0.5q-39 0 -75.5 -2.5t-59 -4.5zM202 279h81q18 0 43 1.5t41 2.5l-69 244h-10zM305 703q-37 0 -64 15.5
t-43.5 40t-24.5 50.5l21 20l12 2q13 -27 40 -40.5t59 -13.5q33 0 59.5 13.5t39.5 40.5l12 -2l21 -20q-8 -26 -24.5 -50.5t-43 -40t-64.5 -15.5z" />
    <glyph glyph-name="abreve" unicode="&#x103;" horiz-adv-x="472" 
d="M377 -12q-42 0 -66 20t-28 59l-6 2q-22 -22 -43.5 -39.5t-38.5 -27.5t-28 -10q-38 0 -68 17.5t-47 47.5t-17 68q0 30 15 52.5t40 29.5l191 49l1 35q0 46 -22.5 72.5t-64.5 26.5q-28 0 -59.5 -13.5t-59.5 -35.5l-6 4l-15 50q28 16 62 33t64.5 28.5t46.5 11.5
q50 0 83.5 -16.5t50.5 -46t17 -69.5q0 -13 -3 -41t-7 -62t-6.5 -65.5t-2.5 -50.5q0 -21 10.5 -32.5t28.5 -11.5q15 0 30.5 7.5t23.5 14.5l15 -19q-9 -15 -23.5 -33.5t-32 -33.5t-35.5 -21zM193 72q17 0 40 11.5t42 28.5l4 98l-123 -35q-26 -8 -26 -38q0 -27 17.5 -46
t45.5 -19zM223 534q-37 0 -64 17t-43.5 44.5t-24.5 56.5l21 21l12 1q13 -33 40 -49.5t59 -16.5q33 0 59.5 16.5t39.5 49.5l12 -1l21 -21q-8 -29 -24.5 -56.5t-43 -44.5t-64.5 -17z" />
    <glyph glyph-name="Aogonek" unicode="&#x104;" horiz-adv-x="603" 
d="M334 -9l-4 7l4 48q34 4 52 7.5t25 10.5t7 20q0 8 -1.5 18.5t-5.5 22.5l-28 95q-18 1 -48.5 1h-49.5q-27 0 -56.5 -2.5t-46.5 -4.5l-32 -92q-8 -24 -8 -35q0 -20 13 -28.5t41 -8.5h51l3 -5l-6 -51l-22 1.5t-55 3t-65 1.5q-26 0 -52.5 -0.5t-44.5 -1.5l-18 -1l8 55
q26 4 42 19.5t30 53.5l188 509l104 17l9 -3l7 -24.5t18.5 -67t26.5 -96.5t32 -113t34.5 -117.5t33.5 -108.5q12 -36 31 -51t58 -19l3 -5l-7 -49l-20.5 1t-47 1.5t-46.5 0.5q-39 0 -75.5 -2.5t-59 -4.5zM202 279h81q18 0 43 1.5t41 2.5l-69 244h-10zM509 -241q-50 0 -82 26
t-32 67q0 18 5 33.5t19 35t40 48.5t69 73h50q-43 -49 -66.5 -78.5t-32 -49t-8.5 -37.5q0 -23 13.5 -36.5t36.5 -13.5q16 0 37 6.5t37 16.5l17 -26q-24 -22 -52 -40t-51 -25z" />
    <glyph glyph-name="aogonek" unicode="&#x105;" horiz-adv-x="472" 
d="M375 -241q-52 0 -83 26t-31 70q0 17 8 36t26.5 43.5t49.5 57.5q-57 11 -62 75l-6 2q-22 -22 -43.5 -39.5t-38.5 -27.5t-28 -10q-38 0 -68 17.5t-47 47.5t-17 68q0 30 15 52.5t40 29.5l191 49l1 35q0 46 -22.5 72.5t-64.5 26.5q-29 0 -55.5 -11.5t-43.5 -23.5t-20 -14
l-6 4l-15 50q5 3 26.5 14.5t49.5 25t54.5 23.5t42.5 10q44 0 78 -14t53.5 -43t19.5 -75q0 -10 -3 -39.5t-7 -66t-6.5 -68t-2.5 -45.5q0 -21 10.5 -32.5t28.5 -11.5q14 0 26 5.5t19.5 10.5t8.5 6l16 -21q-33 -37 -58 -67t-41.5 -54t-24.5 -43.5t-8 -35.5q0 -21 14 -34t37 -13
q17 0 33 5.5t27 11l13 6.5l17 -26q-5 -4 -20.5 -17t-37 -27t-45.5 -21zM193 72q17 0 40 11.5t42 28.5l4 98l-123 -35q-26 -10 -26 -38q0 -27 17.5 -46t45.5 -19z" />
    <glyph glyph-name="Cacute" unicode="&#x106;" horiz-adv-x="621" 
d="M333 -12q-91 0 -158 38t-103.5 108t-36.5 166q0 78 25.5 142.5t72 111t110 72t141.5 25.5q31 0 63.5 -3.5t59 -8.5t43 -8.5l16.5 -3.5l4 -9l-5 -23.5t-11 -64t-9 -89.5l-70 -5l1.5 16.5t1.5 34.5q0 45 -32 67t-99 22q-61 0 -104 -29t-66.5 -82.5t-23.5 -131.5
q0 -85 25 -147t70 -95.5t107 -33.5t98.5 36t52.5 113l70 6l-3 -16t-7 -42t-8 -56.5t-6 -59.5l-7 -10l-28 -10t-75.5 -20t-108.5 -10zM300 701l-11 6l-9 34q38 18 75 37t67.5 34.5t49 25.5l18.5 10l10 -6l20 -60l-5 -11l-18 -6t-48.5 -15.5t-69.5 -22t-79 -26.5z" />
    <glyph glyph-name="cacute" unicode="&#x107;" horiz-adv-x="427" 
d="M245 -12q-65 0 -113 28t-74.5 78t-26.5 119q0 73 31 130.5t84.5 91t121.5 33.5q34 0 61.5 -4.5t43.5 -10l16 -5.5l4 -7l-4.5 -19.5t-9.5 -52.5t-8 -74l-51 -3v32q0 36 -20 56.5t-54 20.5q-54 0 -83 -39.5t-29 -112.5q0 -85 33 -132.5t92 -47.5q27 0 52.5 8.5t41 16
l15.5 7.5l7 -3l14 -40l-14.5 -10.5t-37 -24.5t-47.5 -24.5t-45 -10.5zM209 521l-11 3l-25 27q28 30 55.5 60.5t50.5 56t36.5 41.5l13.5 16l11 -2l46 -52l-1 -12l-25.5 -19t-66 -50.5t-84.5 -68.5z" />
    <glyph glyph-name="Ccircumflex" unicode="&#x108;" horiz-adv-x="621" 
d="M333 -12q-91 0 -158 38t-103.5 108t-36.5 166q0 78 25.5 142.5t72 111t110 72t141.5 25.5q31 0 63.5 -3.5t59 -8.5t43 -8.5l16.5 -3.5l4 -9l-5 -23.5t-11 -64t-9 -89.5l-70 -5l1.5 16.5t1.5 34.5q0 45 -32 67t-99 22q-61 0 -104 -29t-66.5 -82.5t-23.5 -131.5
q0 -85 25 -147t70 -95.5t107 -33.5t98.5 36t52.5 113l70 6l-3 -16t-7 -42t-8 -56.5t-6 -59.5l-7 -10l-28 -10t-75.5 -20t-108.5 -10zM221 703l-12 2l-20 30q25 26 50.5 53t47 50t34 37l12.5 14h16l12.5 -14t34 -37t47 -50t50.5 -53l-20 -30l-12 -2q-34 28 -67 52t-53 39
q-21 -15 -53 -38.5t-67 -52.5z" />
    <glyph glyph-name="ccircumflex" unicode="&#x109;" horiz-adv-x="427" 
d="M245 -12q-65 0 -113 28t-74.5 78t-26.5 119q0 73 31 130.5t84.5 91t121.5 33.5q34 0 61.5 -4.5t43.5 -10l16 -5.5l4 -7l-4.5 -19.5t-9.5 -52.5t-8 -74l-51 -3v32q0 36 -20 56.5t-54 20.5q-54 0 -83 -39.5t-29 -112.5q0 -85 33 -132.5t92 -47.5q27 0 52.5 8.5t41 16
l15.5 7.5l7 -3l14 -40l-14.5 -10.5t-37 -24.5t-47.5 -24.5t-45 -10.5zM146 528l-12 2l-20 30q25 26 50.5 53t47 50t34 37l12.5 14h16l12.5 -14t34 -37t47 -50t50.5 -53l-20 -30l-12 -2q-34 28 -67 52t-53 39q-21 -15 -53 -38.5t-67 -52.5z" />
    <glyph glyph-name="Cdotaccent" unicode="&#x10a;" horiz-adv-x="621" 
d="M333 -12q-91 0 -158 38t-103.5 108t-36.5 166q0 78 25.5 142.5t72 111t110 72t141.5 25.5q31 0 63.5 -3.5t59 -8.5t43 -8.5l16.5 -3.5l4 -9l-5 -23.5t-11 -64t-9 -89.5l-70 -5l1.5 16.5t1.5 34.5q0 45 -32 67t-99 22q-61 0 -104 -29t-66.5 -82.5t-23.5 -131.5
q0 -85 25 -147t70 -95.5t107 -33.5t98.5 36t52.5 113l70 6l-3 -16t-7 -42t-8 -56.5t-6 -59.5l-7 -10l-28 -10t-75.5 -20t-108.5 -10zM350 703q-29 0 -43.5 18t-14.5 42q0 29 19 49t49 20q28 0 43 -17.5t15 -43.5q0 -28 -18.5 -48t-49.5 -20z" />
    <glyph glyph-name="cdotaccent" unicode="&#x10b;" horiz-adv-x="427" 
d="M245 -12q-65 0 -113 28t-74.5 78t-26.5 119q0 73 31 130.5t84.5 91t121.5 33.5q34 0 61.5 -4.5t43.5 -10l16 -5.5l4 -7l-4.5 -19.5t-9.5 -52.5t-8 -74l-51 -3v32q0 36 -20 56.5t-54 20.5q-54 0 -83 -39.5t-29 -112.5q0 -85 33 -132.5t92 -47.5q27 0 52.5 8.5t41 16
l15.5 7.5l7 -3l14 -40l-14.5 -10.5t-37 -24.5t-47.5 -24.5t-45 -10.5zM243 571q-29 0 -43.5 18t-14.5 42q0 29 19 49t49 20q28 0 43 -17.5t15 -42.5q0 -29 -18.5 -49t-49.5 -20z" />
    <glyph glyph-name="Ccaron" unicode="&#x10c;" horiz-adv-x="621" 
d="M333 -12q-91 0 -158 38t-103.5 108t-36.5 166q0 78 25.5 142.5t72 111t110 72t141.5 25.5q31 0 63.5 -3.5t59 -8.5t43 -8.5l16.5 -3.5l4 -9l-5 -23.5t-11 -64t-9 -89.5l-70 -5l1.5 16.5t1.5 34.5q0 45 -32 67t-99 22q-61 0 -104 -29t-66.5 -82.5t-23.5 -131.5
q0 -85 25 -147t70 -95.5t107 -33.5t98.5 36t52.5 113l70 6l-3 -16t-7 -42t-8 -56.5t-6 -59.5l-7 -10l-28 -10t-75.5 -20t-108.5 -10zM346 701l-13 11t-34.5 28t-47.5 37.5t-51 39.5l18 30l12 3q35 -19 69.5 -36t54.5 -26q21 9 54.5 25.5t69.5 36.5l12 -3l18 -30
q-25 -19 -51 -39.5t-47.5 -37.5t-34.5 -28l-13 -11h-16z" />
    <glyph glyph-name="ccaron" unicode="&#x10d;" horiz-adv-x="427" 
d="M245 -12q-65 0 -113 28t-74.5 78t-26.5 119q0 73 31 130.5t84.5 91t121.5 33.5q34 0 61.5 -4.5t43.5 -10l16 -5.5l4 -7l-4.5 -19.5t-9.5 -52.5t-8 -74l-51 -3v32q0 36 -20 56.5t-54 20.5q-54 0 -83 -39.5t-29 -112.5q0 -85 33 -132.5t92 -47.5q27 0 52.5 8.5t41 16
l15.5 7.5l7 -3l14 -40l-14.5 -10.5t-37 -24.5t-47.5 -24.5t-45 -10.5zM240 524l-12.5 14.5t-35 38t-48.5 51.5t-53 55l22 31l11 2q36 -30 69.5 -54.5t55.5 -39.5q21 15 55 40t69 54l11 -2l23 -31q-27 -27 -53.5 -55t-48.5 -51.5t-35 -38l-13 -14.5h-17z" />
    <glyph glyph-name="Dcaron" unicode="&#x10e;" horiz-adv-x="699" 
d="M317 -12l-15 2t-38 4t-48.5 4t-45.5 2q-25 0 -53 -3t-47.5 -5.5l-19.5 -2.5l6 55q45 9 60 26.5t15 59.5l1 402q0 32 -6.5 43t-27.5 11q-10 0 -22 -1l-12 -1l-4 6l8 52l12 -0.5t30.5 -1t38 -1t33.5 -0.5q17 0 43 0.5t51.5 1.5t43 1.5l17.5 0.5q100 0 173 -36.5t113.5 -104
t40.5 -158.5q0 -77 -26 -141.5t-73 -113t-110 -75t-138 -26.5zM275 578q-19 0 -25.5 -4t-7.5 -19q-6 -152 -10 -261t-4 -157q0 -32 9 -50t32.5 -25.5t66.5 -7.5q99 0 153.5 68.5t54.5 194.5q0 87 -30 145t-90 87t-149 29zM326 701l-13 11t-34.5 28t-47.5 37.5t-51 39.5
l18 30l12 3q35 -19 69.5 -36t54.5 -26q21 9 54.5 25.5t69.5 36.5l12 -3l18 -30q-25 -19 -51 -39.5t-47.5 -37.5t-34.5 -28l-13 -11h-16z" />
    <glyph glyph-name="dcaron" unicode="&#x10f;" horiz-adv-x="590" 
d="M521 467l-13 3q2 56 0 106.5t-4.5 83l-2.5 32.5l84 14l7 -9l-4.5 -31.5t-12.5 -81t-19 -101.5zM445 -12q-83 0 -94 71l-7 3q-50 -35 -80 -53t-41 -18q-57 0 -100.5 27t-67.5 75t-24 113q0 74 33 133t90.5 93.5t127.5 34.5q13 0 28 -1t33 -2v149q0 29 -9 42t-30 13
q-8 0 -16.5 -2l-8.5 -2l5 47q30 4 60 9t55.5 10.5t40 8.5l14.5 3l8 -15q-5 -7 -9 -43.5t-8 -96.5t-7 -135t-4.5 -160.5t-1.5 -174.5q0 -21 10 -32.5t27 -11.5q15 0 27 5.5t19.5 11l7.5 5.5l15 -19l-7.5 -11t-20 -27t-29.5 -30t-36 -20zM248 69q17 0 33.5 6.5t30.5 15.5
t22.5 15.5l8.5 6.5v264l-23.5 10.5t-63.5 10.5q-58 0 -91.5 -41.5t-33.5 -115.5q0 -49 15.5 -88.5t42 -61.5t59.5 -22z" />
    <glyph glyph-name="Dcroat" unicode="&#x110;" horiz-adv-x="711" 
d="M328 -12l-15.5 2t-38.5 4t-48 4t-45 2q-26 0 -54 -3t-47.5 -5.5l-19.5 -2.5l6 55q33 7 49 16.5t21.5 32t5.5 66.5v137h-126l-7 7l8 44h125v185q0 32 -6.5 43t-27.5 11q-10 0 -22 -1l-12 -1l-3 6l7 52l12.5 -0.5t30.5 -1t37.5 -1t34.5 -0.5q16 0 41.5 0.5t51.5 1.5t44 1.5
l18 0.5q97 0 171 -37.5t114.5 -104.5t40.5 -157q0 -77 -26 -141.5t-73 -113t-110 -75t-137 -26.5zM244 347l150 1l6 -8l-6 -44h-152l-4 -159q0 -32 9 -50t32.5 -25.5t66.5 -7.5q99 0 154 68.5t55 194.5q0 87 -30.5 145t-90.5 87t-149 29q-19 0 -25.5 -4t-7.5 -19z" />
    <glyph glyph-name="dcroat" unicode="&#x111;" horiz-adv-x="537" 
d="M233 529l-10 10l8 43l173 -1l115 5l13 -14l-4 -41l-147 -1zM445 -12q-83 0 -94 71l-7 3q-50 -35 -80 -53t-41 -18q-57 0 -100.5 27t-67.5 75t-24 113q0 74 33 133t90.5 93.5t127.5 34.5q13 0 28 -1t33 -2v149q0 29 -9 42t-30 13q-8 0 -16.5 -2l-8.5 -2l5 47q30 4 60 9
t55.5 10.5t40 8.5l14.5 3l8 -15q-5 -7 -9 -43.5t-8 -96.5t-7 -135t-4.5 -160.5t-1.5 -174.5q0 -21 10 -32.5t27 -11.5q15 0 27 5.5t19.5 11l7.5 5.5l15 -19l-7.5 -11t-20 -27t-29.5 -30t-36 -20zM248 69q17 0 33.5 6.5t30.5 15.5t22.5 15.5l8.5 6.5v264l-23.5 10.5
t-63.5 10.5q-58 0 -91.5 -41.5t-33.5 -115.5q0 -49 15.5 -88.5t42 -61.5t59.5 -22z" />
    <glyph glyph-name="Emacron" unicode="&#x112;" horiz-adv-x="593" 
d="M49 -10l6 55q44 6 60 24t16 61l1 403q0 32 -6.5 43t-28.5 11q-6 0 -15.5 -0.5t-17.5 -1.5l-4 6l8 51q20 0 47.5 -1t57 -1.5t53.5 -0.5q77 0 132.5 1t96.5 4t73 7l5 -8q-5 -25 -10 -55.5t-8 -61t-5 -56.5l-67 -5q1 9 1.5 22t0.5 20q0 23 -4 36.5t-18 20t-42.5 9t-76.5 2.5
q-29 0 -42 -2t-16.5 -10t-4.5 -25l-10 -226l-3 -193q0 -26 4.5 -39t19.5 -17t48 -4q54 0 87 4t50.5 16t26 36t13.5 63l62 6l5 -7q-8 -34 -15.5 -84t-12.5 -92l-7 -8q-57 2 -116 3.5t-109 2.5t-81 1q-34 0 -77.5 -2.5t-76.5 -7.5zM218 287l8 74h26t41 -0.5t39 -0.5t52 3t68 7
l5 -7l-14 -71q-27 1 -67 2t-68 1q-21 0 -46 -2.5t-44 -5.5zM171 714l-8 10l12 58h15.5t39.5 -0.5t50.5 -0.5h48.5q25 0 54.5 1.5t51.5 3l22 1.5l7 -11l-9 -60l-142 -1h-62.5t-56.5 -0.5z" />
    <glyph glyph-name="emacron" unicode="&#x113;" horiz-adv-x="454" 
d="M249 -12q-66 0 -115 28t-76 78.5t-27 118.5q0 53 18 99t49.5 81t72.5 55t88 20q158 0 158 -156q0 -14 -2.5 -29t-4.5 -24l-12 -11h-268q0 -80 32 -126t90.5 -52t137.5 30l6 -3l14 -38q-21 -15 -49.5 -31.5t-58 -28t-53.5 -11.5zM132 293l161 8q13 2 17.5 6.5t4.5 18.5
q0 39 -19 59t-55 20q-43 0 -72.5 -29.5t-36.5 -82.5zM103 572l-8 10l12 58h15.5t39.5 -0.5t50.5 -0.5h48.5q25 0 54.5 1.5t51.5 3l22 1.5l7 -11l-9 -60l-142 -1h-62.5t-56.5 -0.5z" />
    <glyph glyph-name="Ebreve" unicode="&#x114;" horiz-adv-x="593" 
d="M49 -10l6 55q44 6 60 24t16 61l1 403q0 32 -6.5 43t-28.5 11q-6 0 -15.5 -0.5t-17.5 -1.5l-4 6l8 51q20 0 47.5 -1t57 -1.5t53.5 -0.5q77 0 132.5 1t96.5 4t73 7l5 -8q-5 -25 -10 -55.5t-8 -61t-5 -56.5l-67 -5q1 9 1.5 22t0.5 20q0 23 -4 36.5t-18 20t-42.5 9t-76.5 2.5
q-29 0 -42 -2t-16.5 -10t-4.5 -25l-10 -226l-3 -193q0 -26 4.5 -39t19.5 -17t48 -4q54 0 87 4t50.5 16t26 36t13.5 63l62 6l5 -7q-8 -34 -15.5 -84t-12.5 -92l-7 -8q-57 2 -116 3.5t-109 2.5t-81 1q-34 0 -77.5 -2.5t-76.5 -7.5zM218 287l8 74h26t41 -0.5t39 -0.5t52 3t68 7
l5 -7l-14 -71q-27 1 -67 2t-68 1q-21 0 -46 -2.5t-44 -5.5zM327 707q-37 0 -64 17t-43.5 44.5t-24.5 56.5l21 21l12 1q13 -33 40 -49.5t59 -16.5q33 0 59.5 16.5t39.5 49.5l12 -1l21 -21q-8 -29 -24.5 -56.5t-43 -44.5t-64.5 -17z" />
    <glyph glyph-name="ebreve" unicode="&#x115;" horiz-adv-x="454" 
d="M249 -12q-66 0 -115 28t-76 78.5t-27 118.5q0 53 18 99t49.5 81t72.5 55t88 20q158 0 158 -156q0 -14 -2.5 -29t-4.5 -24l-12 -11h-268q0 -80 32 -126t90.5 -52t137.5 30l6 -3l14 -38q-21 -15 -49.5 -31.5t-58 -28t-53.5 -11.5zM132 293l161 8q13 2 17.5 6.5t4.5 18.5
q0 39 -19 59t-55 20q-43 0 -72.5 -29.5t-36.5 -82.5zM256 534q-37 0 -64 17t-43.5 44.5t-24.5 56.5l21 21l12 1q13 -33 40 -49.5t59 -16.5q33 0 59.5 16.5t39.5 49.5l12 -1l21 -21q-8 -29 -24.5 -56.5t-43 -44.5t-64.5 -17z" />
    <glyph glyph-name="Edotaccent" unicode="&#x116;" horiz-adv-x="593" 
d="M49 -10l6 55q44 6 60 24t16 61l1 403q0 32 -6.5 43t-28.5 11q-6 0 -15.5 -0.5t-17.5 -1.5l-4 6l8 51q20 0 47.5 -1t57 -1.5t53.5 -0.5q77 0 132.5 1t96.5 4t73 7l5 -8q-5 -25 -10 -55.5t-8 -61t-5 -56.5l-67 -5q1 9 1.5 22t0.5 20q0 23 -4 36.5t-18 20t-42.5 9t-76.5 2.5
q-29 0 -42 -2t-16.5 -10t-4.5 -25l-10 -226l-3 -193q0 -26 4.5 -39t19.5 -17t48 -4q54 0 87 4t50.5 16t26 36t13.5 63l62 6l5 -7q-8 -34 -15.5 -84t-12.5 -92l-7 -8q-57 2 -116 3.5t-109 2.5t-81 1q-34 0 -77.5 -2.5t-76.5 -7.5zM218 287l8 74h26t41 -0.5t39 -0.5t52 3t68 7
l5 -7l-14 -71q-27 1 -67 2t-68 1q-21 0 -46 -2.5t-44 -5.5zM309 703q-29 0 -43.5 18t-14.5 42q0 29 19 49t49 20q28 0 43 -17.5t15 -43.5q0 -28 -18.5 -48t-49.5 -20z" />
    <glyph glyph-name="edotaccent" unicode="&#x117;" horiz-adv-x="454" 
d="M249 -12q-66 0 -115 28t-76 78.5t-27 118.5q0 53 18 99t49.5 81t72.5 55t88 20q158 0 158 -156q0 -14 -2.5 -29t-4.5 -24l-12 -11h-268q0 -80 32 -126t90.5 -52t137.5 30l6 -3l14 -38q-21 -15 -49.5 -31.5t-58 -28t-53.5 -11.5zM132 293l161 8q13 2 17.5 6.5t4.5 18.5
q0 39 -19 59t-55 20q-43 0 -72.5 -29.5t-36.5 -82.5zM240 571q-29 0 -43.5 18t-14.5 42q0 29 19 49t49 20q28 0 43 -17.5t15 -42.5q0 -29 -18.5 -49t-49.5 -20z" />
    <glyph glyph-name="Eogonek" unicode="&#x118;" horiz-adv-x="593" 
d="M49 -10l6 55q44 6 60 24t16 61l1 403q0 32 -6.5 43t-28.5 11q-6 0 -15.5 -0.5t-17.5 -1.5l-4 6l8 51q20 0 47.5 -1t57 -1.5t53.5 -0.5q77 0 132.5 1t96.5 4t73 7l5 -8q-5 -25 -10 -55.5t-8 -61t-5 -56.5l-67 -5q1 9 1.5 22t0.5 20q0 23 -4 36.5t-18 20t-42.5 9t-76.5 2.5
q-29 0 -42 -2t-16.5 -10t-4.5 -25l-10 -226l-3 -193q0 -26 4.5 -39t19.5 -17t48 -4q54 0 87 4t50.5 16t26 36t13.5 63l62 6l5 -7q-8 -34 -15.5 -84t-12.5 -92l-7 -8q-57 2 -116 3.5t-109 2.5t-81 1q-34 0 -77.5 -2.5t-76.5 -7.5zM218 287l8 74h26t41 -0.5t39 -0.5t52 3t68 7
l5 -7l-14 -71q-27 1 -67 2t-68 1q-21 0 -46 -2.5t-44 -5.5zM434 -241q-50 0 -82 26t-32 67q0 18 5 33.5t19 35t40 48.5t69 73h50q-43 -49 -66.5 -78.5t-32 -49t-8.5 -37.5q0 -23 13.5 -36.5t36.5 -13.5q16 0 37 6.5t37 16.5l17 -26q-24 -22 -52 -40t-51 -25z" />
    <glyph glyph-name="eogonek" unicode="&#x119;" horiz-adv-x="454" 
d="M249 -12q-66 0 -115 28t-76 78.5t-27 118.5q0 53 18 99t49.5 81t72.5 55t88 20q158 0 158 -156q0 -20 -3.5 -36.5l-3.5 -16.5l-12 -11h-268v-13q1 -77 38.5 -121.5t99.5 -44.5q31 0 59 8t45.5 15.5l17.5 7.5l6 -3l14 -38l-15.5 -11t-40.5 -24.5t-52.5 -24.5t-52.5 -11z
M323 -241q-50 0 -81.5 25.5t-31.5 70.5q0 28 19 57.5t52 63.5t74 77l55 6q-44 -47 -71.5 -79.5t-40.5 -56.5t-13 -49q0 -20 14 -33.5t37 -13.5q17 0 33 5.5t27 11l13 6.5l17 -26q-5 -4 -20.5 -17t-37 -27t-45.5 -21zM132 293l161 8q13 2 17.5 6.5t4.5 18.5q0 39 -19 59
t-55 20q-43 0 -72.5 -29.5t-36.5 -82.5z" />
    <glyph glyph-name="Ecaron" unicode="&#x11a;" horiz-adv-x="593" 
d="M49 -10l6 55q44 6 60 24t16 61l1 403q0 32 -6.5 43t-28.5 11q-6 0 -15.5 -0.5t-17.5 -1.5l-4 6l8 51q20 0 47.5 -1t57 -1.5t53.5 -0.5q77 0 132.5 1t96.5 4t73 7l5 -8q-5 -25 -10 -55.5t-8 -61t-5 -56.5l-67 -5q1 9 1.5 22t0.5 20q0 23 -4 36.5t-18 20t-42.5 9t-76.5 2.5
q-29 0 -42 -2t-16.5 -10t-4.5 -25l-10 -226l-3 -193q0 -26 4.5 -39t19.5 -17t48 -4q54 0 87 4t50.5 16t26 36t13.5 63l62 6l5 -7q-8 -34 -15.5 -84t-12.5 -92l-7 -8q-57 2 -116 3.5t-109 2.5t-81 1q-34 0 -77.5 -2.5t-76.5 -7.5zM218 287l8 74h26t41 -0.5t39 -0.5t52 3t68 7
l5 -7l-14 -71q-27 1 -67 2t-68 1q-21 0 -46 -2.5t-44 -5.5zM305 701l-13 11t-34.5 28t-47.5 37.5t-51 39.5l18 30l12 3q35 -19 69.5 -36t54.5 -26q21 9 54.5 25.5t69.5 36.5l12 -3l18 -30q-25 -19 -51 -39.5t-47.5 -37.5t-34.5 -28l-13 -11h-16z" />
    <glyph glyph-name="ecaron" unicode="&#x11b;" horiz-adv-x="454" 
d="M249 -12q-66 0 -115 28t-76 78.5t-27 118.5q0 53 18 99t49.5 81t72.5 55t88 20q158 0 158 -156q0 -14 -2.5 -29t-4.5 -24l-12 -11h-268q0 -80 32 -126t90.5 -52t137.5 30l6 -3l14 -38q-21 -15 -49.5 -31.5t-58 -28t-53.5 -11.5zM132 293l161 8q13 2 17.5 6.5t4.5 18.5
q0 39 -19 59t-55 20q-43 0 -72.5 -29.5t-36.5 -82.5zM237 524l-12.5 14.5t-35 38t-48.5 51.5t-53 55l22 31l11 2q36 -30 69.5 -54.5t55.5 -39.5q21 15 55 40t69 54l11 -2l23 -31q-27 -27 -53.5 -55t-48.5 -51.5t-35 -38l-13 -14.5h-17z" />
    <glyph glyph-name="Gcircumflex" unicode="&#x11c;" horiz-adv-x="661" 
d="M330 -12q-91 0 -157 38t-102 108t-36 166q0 107 43.5 185.5t123 122t186.5 43.5q32 0 66.5 -3.5t63.5 -8.5t47.5 -8.5l18.5 -3.5l5 -9l-5 -23.5t-11.5 -63t-9.5 -87.5l-69 -5l1.5 16.5t1.5 37.5q0 45 -31 64t-101 19q-69 0 -117 -27.5t-72.5 -82t-24.5 -133.5
q0 -86 25 -148t70 -95t107 -33q36 0 63 8t42 16.5l15 8.5v109q0 32 -9.5 42t-40.5 10h-25.5h-25.5h-11l-3 6l9 59q6 0 26.5 -1t49 -1.5t57.5 -0.5q23 0 44 1t34.5 2.5l13.5 1.5l6 -30q-15 -10 -22.5 -27t-10.5 -47.5t-3 -83.5q0 -27 2 -50.5t5 -37.5l-7 -10l-30 -11
t-82.5 -22t-119.5 -11zM258 695l-12 2l-20 30q25 26 50.5 53t47 50t34 37l12.5 14h16l12.5 -14t34 -37t47 -50t50.5 -53l-20 -30l-12 -2q-34 28 -67 52t-53 39q-21 -15 -53 -38.5t-67 -52.5z" />
    <glyph glyph-name="gcircumflex" unicode="&#x11d;" horiz-adv-x="505" 
d="M217 -242q-50 0 -86.5 16.5t-56.5 47.5t-20 72q13 16 40 38.5t59 44.5v6q-50 9 -77 34.5t-29 65.5q18 18 38.5 34.5t44.5 31.5v16l59 -18q-27 -15 -39 -27t-12 -24q0 -19 24.5 -28t62 -13t80.5 -9t81 -16t62 -32t24 -59q0 -34 -21 -66.5t-57.5 -58.5t-82 -41t-94.5 -15z
M253 -182q36 0 66 12t48.5 32t18.5 44q0 18 -13.5 29t-52.5 19.5t-115 18.5q-25 -19 -38 -41.5t-13 -44.5q0 -31 26.5 -50t72.5 -19zM253 183q42 0 65 27t23 76q0 55 -27.5 88t-73.5 33q-42 0 -65 -27.5t-23 -77.5q0 -54 27.5 -86.5t73.5 -32.5zM233 129q-53 0 -93 19.5
t-62.5 55t-22.5 81.5q0 52 26 93t70.5 66t98.5 25q30 0 55 -5.5t46 -5.5q20 2 57 10.5t82 21.5l4 -5l-12 -65q-20 -3 -42.5 -4.5t-37.5 -3.5l-4 -5q40 -43 40 -101q0 -50 -27.5 -90t-73.5 -63.5t-104 -23.5zM151 528l-12 2l-20 30q25 26 50.5 53t47 50t34 37l12.5 14h16
l12.5 -14t34 -37t47 -50t50.5 -53l-20 -30l-12 -2q-34 28 -67 52t-53 39q-21 -15 -53 -38.5t-67 -52.5z" />
    <glyph glyph-name="Gbreve" unicode="&#x11e;" horiz-adv-x="661" 
d="M330 -12q-91 0 -157 38t-102 108t-36 166q0 107 43.5 185.5t123 122t186.5 43.5q32 0 66.5 -3.5t63.5 -8.5t47.5 -8.5l18.5 -3.5l5 -9l-5 -23.5t-11.5 -63t-9.5 -87.5l-69 -5l1.5 16.5t1.5 37.5q0 45 -31 64t-101 19q-69 0 -117 -27.5t-72.5 -82t-24.5 -133.5
q0 -86 25 -148t70 -95t107 -33q36 0 63 8t42 16.5l15 8.5v109q0 32 -9.5 42t-40.5 10h-25.5h-25.5h-11l-3 6l9 59q6 0 26.5 -1t49 -1.5t57.5 -0.5q23 0 44 1t34.5 2.5l13.5 1.5l6 -30q-15 -10 -22.5 -27t-10.5 -47.5t-3 -83.5q0 -27 2 -50.5t5 -37.5l-7 -10l-30 -11
t-82.5 -22t-119.5 -11zM372 695q-37 0 -64 15.5t-43.5 40t-24.5 50.5l21 20l12 2q13 -27 40 -40.5t59 -13.5q33 0 59.5 13.5t39.5 40.5l12 -2l21 -20q-8 -26 -24.5 -50.5t-43 -40t-64.5 -15.5z" />
    <glyph glyph-name="gbreve" unicode="&#x11f;" horiz-adv-x="505" 
d="M217 -242q-50 0 -86.5 16.5t-56.5 47.5t-20 72q13 16 40 38.5t59 44.5v6q-50 9 -77 34.5t-29 65.5q18 18 38.5 34.5t44.5 31.5v16l59 -18q-27 -15 -39 -27t-12 -24q0 -19 24.5 -28t62 -13t80.5 -9t81 -16t62 -32t24 -59q0 -34 -21 -66.5t-57.5 -58.5t-82 -41t-94.5 -15z
M253 -182q36 0 66 12t48.5 32t18.5 44q0 18 -13.5 29t-52.5 19.5t-115 18.5q-25 -19 -38 -41.5t-13 -44.5q0 -31 26.5 -50t72.5 -19zM253 183q42 0 65 27t23 76q0 55 -27.5 88t-73.5 33q-42 0 -65 -27.5t-23 -77.5q0 -54 27.5 -86.5t73.5 -32.5zM233 129q-53 0 -93 19.5
t-62.5 55t-22.5 81.5q0 52 26 93t70.5 66t98.5 25q30 0 55 -5.5t46 -5.5q20 2 57 10.5t82 21.5l4 -5l-12 -65q-20 -3 -42.5 -4.5t-37.5 -3.5l-4 -5q40 -43 40 -101q0 -50 -27.5 -90t-73.5 -63.5t-104 -23.5zM261 534q-37 0 -64 17t-43.5 44.5t-24.5 56.5l21 21l12 1
q13 -33 40 -49.5t59 -16.5q33 0 59.5 16.5t39.5 49.5l12 -1l21 -21q-8 -29 -24.5 -56.5t-43 -44.5t-64.5 -17z" />
    <glyph glyph-name="Gdotaccent" unicode="&#x120;" horiz-adv-x="661" 
d="M330 -12q-91 0 -157 38t-102 108t-36 166q0 107 43.5 185.5t123 122t186.5 43.5q32 0 66.5 -3.5t63.5 -8.5t47.5 -8.5l18.5 -3.5l5 -9l-5 -23.5t-11.5 -63t-9.5 -87.5l-69 -5l1.5 16.5t1.5 37.5q0 45 -31 64t-101 19q-69 0 -117 -27.5t-72.5 -82t-24.5 -133.5
q0 -86 25 -148t70 -95t107 -33q36 0 63 8t42 16.5l15 8.5v109q0 32 -9.5 42t-40.5 10h-25.5h-25.5h-11l-3 6l9 59q6 0 26.5 -1t49 -1.5t57.5 -0.5q23 0 44 1t34.5 2.5l13.5 1.5l6 -30q-15 -10 -22.5 -27t-10.5 -47.5t-3 -83.5q0 -27 2 -50.5t5 -37.5l-7 -10l-30 -11
t-82.5 -22t-119.5 -11zM367 703q-29 0 -43.5 18t-14.5 42q0 29 19 49t49 20q28 0 43 -17.5t15 -43.5q0 -28 -18.5 -48t-49.5 -20z" />
    <glyph glyph-name="gdotaccent" unicode="&#x121;" horiz-adv-x="505" 
d="M217 -242q-50 0 -86.5 16.5t-56.5 47.5t-20 72q13 16 40 38.5t59 44.5v6q-50 9 -77 34.5t-29 65.5q18 18 38.5 34.5t44.5 31.5v16l59 -18q-27 -15 -39 -27t-12 -24q0 -19 24.5 -28t62 -13t80.5 -9t81 -16t62 -32t24 -59q0 -34 -21 -66.5t-57.5 -58.5t-82 -41t-94.5 -15z
M253 -182q36 0 66 12t48.5 32t18.5 44q0 18 -13.5 29t-52.5 19.5t-115 18.5q-25 -19 -38 -41.5t-13 -44.5q0 -31 26.5 -50t72.5 -19zM253 183q42 0 65 27t23 76q0 55 -27.5 88t-73.5 33q-42 0 -65 -27.5t-23 -77.5q0 -54 27.5 -86.5t73.5 -32.5zM233 129q-53 0 -93 19.5
t-62.5 55t-22.5 81.5q0 52 26 93t70.5 66t98.5 25q30 0 55 -5.5t46 -5.5q20 2 57 10.5t82 21.5l4 -5l-12 -65q-20 -3 -42.5 -4.5t-37.5 -3.5l-4 -5q40 -43 40 -101q0 -50 -27.5 -90t-73.5 -63.5t-104 -23.5zM252 571q-29 0 -43.5 18t-14.5 42q0 29 19 49t49 20
q28 0 43 -17.5t15 -42.5q0 -29 -18.5 -49t-49.5 -20z" />
    <glyph glyph-name="uni0122" unicode="&#x122;" horiz-adv-x="661" 
d="M330 -12q-91 0 -157 38t-102 108t-36 166q0 107 43.5 185.5t123 122t186.5 43.5q32 0 66.5 -3.5t63.5 -8.5t47.5 -8.5l18.5 -3.5l5 -9l-5 -23.5t-11.5 -63t-9.5 -87.5l-69 -5l1.5 16.5t1.5 37.5q0 45 -31 64t-101 19q-69 0 -117 -27.5t-72.5 -82t-24.5 -133.5
q0 -86 25 -148t70 -95t107 -33q36 0 63 8t42 16.5l15 8.5v109q0 32 -9.5 42t-40.5 10h-25.5h-25.5h-11l-3 6l9 59q6 0 26.5 -1t49 -1.5t57.5 -0.5q23 0 44 1t34.5 2.5l13.5 1.5l6 -30q-15 -10 -22.5 -27t-10.5 -47.5t-3 -83.5q0 -27 2 -50.5t5 -37.5l-7 -10l-30 -11
t-82.5 -22t-119.5 -11zM257 -304l-26 22v13q30 19 50 47t20 53q0 20 -10.5 37t-26.5 28l2 14q13 11 31.5 20.5t35.5 9.5q26 0 43 -21t17 -56q0 -36 -20.5 -67t-51.5 -56.5t-64 -43.5z" />
    <glyph glyph-name="uni0123" unicode="&#x123;" horiz-adv-x="505" 
d="M217 -242q-50 0 -86.5 16.5t-56.5 47.5t-20 72q13 16 40 38.5t59 44.5v6q-50 9 -77 34.5t-29 65.5q18 18 38.5 34.5t44.5 31.5v16l59 -18q-27 -15 -39 -27t-12 -24q0 -19 24.5 -28t62 -13t80.5 -9t81 -16t62 -32t24 -59q0 -34 -21 -66.5t-57.5 -58.5t-82 -41t-94.5 -15z
M253 -182q36 0 66 12t48.5 32t18.5 44q0 18 -13.5 29t-52.5 19.5t-115 18.5q-25 -19 -38 -41.5t-13 -44.5q0 -31 26.5 -50t72.5 -19zM253 183q42 0 65 27t23 76q0 55 -27.5 88t-73.5 33q-42 0 -65 -27.5t-23 -77.5q0 -54 27.5 -86.5t73.5 -32.5zM233 129q-53 0 -93 19.5
t-62.5 55t-22.5 81.5q0 52 26 93t70.5 66t98.5 25q30 0 55 -5.5t46 -5.5q20 2 57 10.5t82 21.5l4 -5l-12 -65q-20 -3 -42.5 -4.5t-37.5 -3.5l-4 -5q40 -43 40 -101q0 -50 -27.5 -90t-73.5 -63.5t-104 -23.5zM258 505q-27 0 -45.5 26t-18.5 63t26.5 81t74.5 84l30 -15l3 -13
q-23 -22 -36.5 -48.5t-13.5 -49.5q0 -22 14.5 -41.5t37.5 -28.5l1 -14q-37 -44 -73 -44z" />
    <glyph glyph-name="Hcircumflex" unicode="&#x124;" horiz-adv-x="751" 
d="M49 -11l7 54q45 9 60 26.5t15 59.5l1 404q0 32 -7 43t-30 11q-6 0 -15.5 -0.5t-16.5 -1.5l-4 6l8 50q24 0 58.5 -1t55.5 -1q20 0 55 2.5t71 5.5l-4 -54q-27 -4 -40 -11t-17.5 -23t-6.5 -48l-6 -154l151 -1q32 0 61.5 1.5t73.5 6.5l1 169q0 32 -7 43t-30 11q-7 0 -16 -0.5
t-16 -1.5l-4 6l7 50q5 0 25.5 -0.5t45 -1t40.5 -0.5q21 0 57.5 2.5t74.5 5.5l-5 -54q-37 -5 -49 -16t-14 -40q-3 -52 -5.5 -110.5t-4 -116t-2.5 -107t-1 -83.5q0 -40 9 -53.5t34 -13.5q10 0 22 1t19 2l4 -5l-9 -54q-27 1 -66.5 2t-66.5 1q-13 0 -35.5 -0.5t-46.5 -0.5
t-44 -1l9 54q30 1 46 9t22 29.5t6 61.5v141q-20 0 -45 0.5t-49 0.5h-39q-9 0 -34 -1t-57 -3.5t-64 -5.5l-3 -163q0 -40 8.5 -54t32.5 -14q11 0 22.5 1t19.5 2l3 -5l-9 -54q-5 1 -24 1.5t-40.5 1t-36.5 0.5q-27 0 -60.5 -1.5t-60 -4t-34.5 -5.5zM252 710l-12 2l-18 30
q25 19 51 39.5t47.5 38t34.5 28.5l13 11h16l13 -10.5t34.5 -28t47.5 -38.5t51 -40l-18 -30l-12 -2q-35 19 -69 35.5t-55 26.5q-21 -10 -54.5 -26.5t-69.5 -35.5z" />
    <glyph glyph-name="hcircumflex" unicode="&#x125;" horiz-adv-x="538" 
d="M31 48q28 3 39 14.5t11 39.5v511q0 29 -9 41.5t-31 12.5h-21l-5 4l5 41q26 3 57.5 8.5t62.5 11t53 10.5l6 -16q-5 -7 -10 -51.5t-8.5 -118.5t-6.5 -169q10 9 28.5 22.5t40 27t41.5 22.5t32 9q68 0 105.5 -33.5t37.5 -95.5q0 -14 -2.5 -44.5t-6 -67.5t-6 -70.5t-2.5 -53.5
q0 -28 7.5 -40.5t25.5 -12.5q6 0 16 0.5t17 1.5l2 -4l-8 -51q-19 1 -48.5 2t-49.5 1q-12 0 -30 -1.5t-38 -3.5t-39 -5l5 50q28 7 40 21.5t12 39.5l5 187q0 47 -19 71.5t-56 24.5q-22 0 -53.5 -14t-57.5 -35q-1 -33 -1.5 -69t-1 -76.5t-0.5 -87.5q0 -29 8 -40t25 -11
q6 0 15 0.5t16 0.5l2 -4l-9 -51q-20 1 -49 2t-50 1t-51 -0.5t-53 -2.5zM19 748l-12 2l-20 30q25 26 50.5 53t47 50t34 37l12.5 14h16l12.5 -14t34 -37t47 -50t50.5 -53l-20 -30l-12 -2q-34 28 -67 52t-53 39q-21 -15 -53 -38.5t-67 -52.5z" />
    <glyph glyph-name="Hbar" unicode="&#x126;" horiz-adv-x="748" 
d="M42 446l-10 9l8 43h22.5h61t85.5 -0.5t96 -0.5h92q47 0 99.5 1t99.5 1.5t76.5 1.5l29.5 1l13 -14l-4 -40l-337 -1h-112.5t-108.5 -0.5t-80.5 -0.5h-30.5zM48 -11l6 54q46 9 60.5 26.5t14.5 59.5l1 404q0 32 -7 43t-29 11q-6 0 -15.5 -0.5t-17.5 -1.5l-3 6l7 50
q24 0 58.5 -1t56.5 -1q19 0 54 2.5t72 5.5l-5 -54q-27 -4 -40 -11t-17.5 -23t-5.5 -48l-6 -154l151 -1q32 0 61 1.5t73 6.5l1 169q0 32 -7 43t-29 11q-7 0 -16.5 -0.5t-16.5 -1.5l-3 6l7 50q5 0 25 -0.5t44.5 -1t41.5 -0.5q21 0 57 2.5t74 5.5l-4 -54q-37 -5 -49.5 -16
t-14.5 -40q-2 -52 -4.5 -110.5t-4.5 -116t-3 -107t-1 -83.5q0 -40 9 -53.5t34 -13.5q11 0 23 1t19 2l3 -5l-9 -54q-26 1 -65.5 2t-67.5 1q-13 0 -35.5 -0.5t-46.5 -0.5t-43 -1l8 54q31 1 46.5 9t21.5 29.5t6 61.5v141q-19 0 -44.5 0.5t-49 0.5h-39.5q-9 0 -33.5 -1t-57 -3.5
t-64.5 -5.5l-3 -163q0 -40 8.5 -54t33.5 -14q10 0 22 1t19 2l3 -5l-9 -54q-5 1 -23.5 1.5t-40.5 1t-37 0.5q-27 0 -60.5 -1.5t-59.5 -4t-34 -5.5z" />
    <glyph glyph-name="hbar" unicode="&#x127;" horiz-adv-x="541" 
d="M9 518l-10 10l7 42h15t38.5 -0.5t49.5 -0.5h49q17 0 41.5 1t47.5 1.5t38.5 1.5l15.5 1l13 -13l-4 -41l-175 -1h-42.5t-41 -0.5t-31 -0.5h-11.5zM33 48q28 3 39 14.5t11 39.5v511q0 29 -8.5 41.5t-30.5 12.5h-22l-4 4l5 41q25 3 57 8.5t62.5 11t52.5 10.5l7 -16
q-5 -7 -10.5 -51.5t-9 -118.5t-6.5 -169q10 9 28.5 22.5t40 27t41.5 22.5t33 9q68 0 105.5 -33.5t37.5 -95.5q0 -14 -3 -44.5t-6 -67.5t-6 -70.5t-3 -53.5q0 -28 8 -40.5t26 -12.5q5 0 15 0.5t18 1.5l2 -4l-9 -51q-19 1 -48 2t-49 1q-13 0 -30.5 -1.5t-37.5 -3.5t-39 -5
l5 50q27 7 39 21.5t12 39.5l5 187q1 47 -18 71.5t-56 24.5q-22 0 -53.5 -14t-58.5 -35q-1 -33 -1.5 -69t-1 -76.5t-0.5 -87.5q0 -29 8 -40t26 -11q5 0 14.5 0.5t15.5 0.5l3 -4l-10 -51q-19 1 -48.5 2t-49.5 1q-22 0 -52 -0.5t-53 -2.5z" />
    <glyph glyph-name="Imacron" unicode="&#x12a;" horiz-adv-x="363" 
d="M48 -11l6 54q46 9 61.5 26.5t15.5 59.5l1 404q0 32 -7.5 43t-29.5 11q-7 0 -18.5 -0.5t-20.5 -1.5l-3 6l7 50q29 0 65.5 -1t62.5 -1q20 0 55 2.5t72 5.5l-5 -54q-40 -5 -53.5 -16t-15.5 -40q-3 -52 -5.5 -110t-4 -115.5t-2.5 -107t-1 -83.5q0 -40 8.5 -54t32.5 -14
q13 0 26.5 1t22.5 2l3 -5l-9 -54q-20 1 -46 1.5t-51 1t-41 0.5q-23 0 -58 -3t-68 -8zM39 714l-8 10l12 58h15.5t39.5 -0.5t50.5 -0.5h48.5q25 0 54.5 1.5t51.5 3l22 1.5l7 -11l-9 -60l-142 -1h-62.5t-56.5 -0.5z" />
    <glyph glyph-name="imacron" unicode="&#x12b;" horiz-adv-x="287" 
d="M36 -12l6 51q30 7 43 22.5t13 41.5v237q0 29 -9 42t-30 13q-7 0 -15.5 -2l-8.5 -2l4 46q30 5 59 10t53 10t38.5 8l14.5 3l7 -14q-5 -10 -9.5 -43t-7.5 -81.5t-4.5 -107t-1.5 -121.5q0 -26 7.5 -38t25.5 -12q8 0 20 1l12 1l2 -5l-9 -51l-9.5 0.5t-24.5 1t-32 1t-32 0.5
q-23 0 -49 -3t-44.5 -6zM15 572l-7 10l11 58h14t36 -0.5t46.5 -0.5h45.5q22 0 49.5 1.5t47.5 3l20 1.5l7 -11l-9 -60l-130 -1h-58t-51.5 -0.5z" />
    <glyph glyph-name="Ibreve" unicode="&#x12c;" horiz-adv-x="363" 
d="M48 -11l6 54q46 9 61.5 26.5t15.5 59.5l1 404q0 32 -7.5 43t-29.5 11q-7 0 -18.5 -0.5t-20.5 -1.5l-3 6l7 50q29 0 65.5 -1t62.5 -1q20 0 55 2.5t72 5.5l-5 -54q-40 -5 -53.5 -16t-15.5 -40q-3 -52 -5.5 -110t-4 -115.5t-2.5 -107t-1 -83.5q0 -40 8.5 -54t32.5 -14
q13 0 26.5 1t22.5 2l3 -5l-9 -54q-20 1 -46 1.5t-51 1t-41 0.5q-23 0 -58 -3t-68 -8zM182 717q-37 0 -64 17t-43.5 44.5t-24.5 56.5l21 21l12 1q13 -33 40 -49.5t59 -16.5q33 0 59.5 16.5t39.5 49.5l12 -1l21 -21q-8 -29 -24.5 -56.5t-43 -44.5t-64.5 -17z" />
    <glyph glyph-name="ibreve" unicode="&#x12d;" horiz-adv-x="287" 
d="M36 -12l6 51q30 7 43 22.5t13 41.5v237q0 29 -9 42t-30 13q-7 0 -15.5 -2l-8.5 -2l4 46q30 5 59 10t53 10t38.5 8l14.5 3l7 -14q-5 -10 -9.5 -43t-7.5 -81.5t-4.5 -107t-1.5 -121.5q0 -26 7.5 -38t25.5 -12q8 0 20 1l12 1l2 -5l-9 -51l-9.5 0.5t-24.5 1t-32 1t-32 0.5
q-23 0 -49 -3t-44.5 -6zM143 534q-37 0 -64 17t-43.5 44.5t-24.5 56.5l21 21l12 1q13 -33 40 -49.5t59 -16.5q33 0 59.5 16.5t39.5 49.5l12 -1l21 -21q-8 -29 -24.5 -56.5t-43 -44.5t-64.5 -17z" />
    <glyph glyph-name="Iogonek" unicode="&#x12e;" horiz-adv-x="363" 
d="M48 -11l6 54q46 9 61.5 26.5t15.5 59.5l1 404q0 32 -7.5 43t-29.5 11q-7 0 -18.5 -0.5t-20.5 -1.5l-3 6l7 50q29 0 65.5 -1t62.5 -1q20 0 55 2.5t72 5.5l-5 -54q-40 -5 -53.5 -16t-15.5 -40q-3 -52 -5.5 -110t-4 -115.5t-2.5 -107t-1 -83.5q0 -40 8.5 -54t32.5 -14
q13 0 26.5 1t22.5 2l3 -5l-9 -54q-20 1 -46 1.5t-51 1t-41 0.5q-23 0 -58 -3t-68 -8zM220 -241q-50 0 -82 26t-32 67q0 18 5 33.5t19 35t40 48.5t69 73h50q-43 -49 -66.5 -78.5t-32 -49t-8.5 -37.5q0 -23 13.5 -36.5t36.5 -13.5q16 0 37 6.5t37 16.5l17 -26q-24 -22 -52 -40
t-51 -25z" />
    <glyph glyph-name="iogonek" unicode="&#x12f;" horiz-adv-x="287" 
d="M158 -239q-50 0 -82 26t-32 67q0 18 5 33.5t19 35t40 48.5t69 73h50q-43 -49 -66.5 -78.5t-32 -49t-8.5 -37.5q0 -23 13.5 -36.5t36.5 -13.5q16 0 37 6.5t37 16.5l17 -26q-24 -22 -52 -40t-51 -25zM36 -12l6 51q30 7 43 22.5t13 41.5v237q0 29 -9 42t-30 13
q-7 0 -15.5 -2l-8.5 -2l4 46q30 5 59 10t53 10t38.5 8l14.5 3l7 -14q-5 -10 -9.5 -43t-7.5 -81.5t-4.5 -107t-1.5 -121.5q0 -26 7.5 -38t25.5 -12q8 0 20 1l12 1l2 -5l-9 -51l-9.5 0.5t-24.5 1t-32 1t-32 0.5q-23 0 -49 -3t-44.5 -6zM136 571q-29 0 -43.5 18t-14.5 42
q0 29 19 49t49 20q28 0 43 -17.5t15 -42.5q0 -29 -18.5 -49t-49.5 -20z" />
    <glyph glyph-name="Idotaccent" unicode="&#x130;" horiz-adv-x="363" 
d="M48 -11l6 54q46 9 61.5 26.5t15.5 59.5l1 404q0 32 -7.5 43t-29.5 11q-7 0 -18.5 -0.5t-20.5 -1.5l-3 6l7 50q29 0 65.5 -1t62.5 -1q20 0 55 2.5t72 5.5l-5 -54q-40 -5 -53.5 -16t-15.5 -40q-3 -52 -5.5 -110t-4 -115.5t-2.5 -107t-1 -83.5q0 -40 8.5 -54t32.5 -14
q13 0 26.5 1t22.5 2l3 -5l-9 -54q-20 1 -46 1.5t-51 1t-41 0.5q-23 0 -58 -3t-68 -8zM177 703q-29 0 -43.5 18t-14.5 42q0 29 19 49t49 20q28 0 43 -17.5t15 -43.5q0 -28 -18.5 -48t-49.5 -20z" />
    <glyph glyph-name="dotlessi" unicode="&#x131;" horiz-adv-x="287" 
d="M36 -12l6 51q30 7 43 22.5t13 41.5v237q0 29 -9 42t-30 13q-7 0 -15.5 -2l-8.5 -2l4 46q30 5 59 10t53 10t38.5 8l14.5 3l7 -14q-5 -10 -9.5 -43t-7.5 -81.5t-4.5 -107t-1.5 -121.5q0 -26 7.5 -38t25.5 -12q8 0 20 1l12 1l2 -5l-9 -51l-9.5 0.5t-24.5 1t-32 1t-32 0.5
q-23 0 -49 -3t-44.5 -6z" />
    <glyph glyph-name="IJ" unicode="&#x132;" horiz-adv-x="692" 
d="M48 -11l6 54q46 9 61.5 26.5t15.5 59.5l1 404q0 32 -7.5 43t-29.5 11q-7 0 -18.5 -0.5t-20.5 -1.5l-3 6l7 50q29 0 65.5 -1t62.5 -1q20 0 55 2.5t72 5.5l-5 -54q-40 -5 -53.5 -16t-15.5 -40q-3 -52 -5.5 -110t-4 -115.5t-2.5 -107t-1 -83.5q0 -40 8.5 -54t32.5 -14
q13 0 26.5 1t22.5 2l3 -5l-9 -54q-20 1 -46 1.5t-51 1t-41 0.5q-23 0 -58 -3t-68 -8zM402 -148l-22 36l3 9q40 27 61.5 54t30.5 66.5t9 100.5v415q0 32 -6.5 42.5t-29.5 10.5q-6 0 -16.5 -1t-19 -2l-8.5 -1l-4 6l7 51h115q28 0 58 2t51.5 4.5l21.5 2.5l-4 -55
q-34 -5 -43.5 -15t-11.5 -41q-2 -27 -3.5 -69.5t-3 -92.5t-3 -100.5t-2.5 -93.5t-1 -71q-1 -101 -43.5 -162.5t-135.5 -95.5z" />
    <glyph glyph-name="ij" unicode="&#x133;" horiz-adv-x="547" 
d="M36 -12l6 51q30 7 43 22.5t13 41.5v237q0 29 -9 42t-30 13q-7 0 -15.5 -2l-8.5 -2l4 46q30 5 59 10t53 10t38.5 8l14.5 3l7 -14q-5 -10 -9.5 -43t-7.5 -81.5t-4.5 -107t-1.5 -121.5q0 -26 7.5 -38t25.5 -12q8 0 20 1l12 1l2 -5l-9 -51l-9.5 0.5t-24.5 1t-32 1t-32 0.5
q-23 0 -49 -3t-44.5 -6zM136 571q-29 0 -43.5 18t-14.5 42q0 29 19 49t49 20q28 0 43 -17.5t15 -42.5q0 -29 -18.5 -49t-49.5 -20zM322 -242l-23 23l2 10q29 29 44.5 60t22 75.5t6.5 110.5v303q0 31 -8 43t-30 12q-9 0 -18.5 -1.5l-9.5 -1.5l5 46q26 3 54.5 8t53.5 10.5
t40.5 8.5l15.5 3l6 -14q-9 -17 -14 -137t-5 -331q0 -71 -37 -130.5t-105 -97.5zM416 590q-27 0 -42.5 16.5t-15.5 43.5q0 30 19 49t49 19q26 0 42 -16t16 -44q0 -30 -19 -49t-49 -19z" />
    <glyph glyph-name="Jcircumflex" unicode="&#x134;" horiz-adv-x="329" 
d="M39 -148l-22 36l3 9q40 27 61.5 54t30.5 66.5t9 100.5v415q0 32 -6.5 42.5t-29.5 10.5q-6 0 -16.5 -1t-19 -2l-8.5 -1l-4 6l7 51h115q28 0 58 2t51.5 4.5l21.5 2.5l-4 -55q-34 -5 -43.5 -15t-11.5 -41q-2 -27 -3.5 -69.5t-3 -92.5t-3 -100.5t-2.5 -93.5t-1 -71
q-1 -101 -43.5 -162.5t-135.5 -95.5zM54 703l-12 2l-20 30q25 26 50.5 53t47 50t34 37l12.5 14h16l12.5 -14t34 -37t47 -50t50.5 -53l-20 -30l-12 -2q-34 28 -67 52t-53 39q-21 -15 -53 -38.5t-67 -52.5z" />
    <glyph glyph-name="jcircumflex" unicode="&#x135;" horiz-adv-x="260" 
d="M35 -242l-23 23l2 10q29 29 44.5 60t22 75.5t6.5 110.5v303q0 31 -8 43t-30 12q-9 0 -18.5 -1.5l-9.5 -1.5l5 46q26 3 54.5 8t53.5 10.5t40.5 8.5l15.5 3l6 -14q-9 -17 -14 -137t-5 -331q0 -71 -37 -130.5t-105 -97.5zM11 529l-12 2l-20 30q25 26 50.5 53t47 50t34 37
l12.5 14h16l12.5 -14t34 -37t47 -50t50.5 -53l-20 -30l-12 -2q-34 28 -67 52t-53 39q-21 -15 -53 -38.5t-67 -52.5z" />
    <glyph glyph-name="uni0136" unicode="&#x136;" horiz-adv-x="641" 
d="M255 333l165 175q29 29 29 51q0 13 -14.5 20.5t-44.5 9.5l-3 5l8 51l12 -1t31.5 -2l39 -2t34.5 -1q14 0 31.5 0.5t34 1.5t26.5 1.5l10 0.5l5 -8l-7 -48q-19 -6 -35.5 -16.5t-36.5 -29.5t-50 -51l-136 -147l153 -211q33 -45 60 -65t61 -21l6 -6l-7 -43l-13 -1.5t-31 -4
t-33.5 -4t-20.5 -1.5q-28 0 -56 21.5t-55 63.5l-165 244zM132 533q0 32 -7 43t-30 11q-9 0 -20.5 -1l-11.5 -1l-4 6l8 51l13.5 -0.5t34 -1t40.5 -1t33 -0.5q16 0 36.5 1.5t39.5 2.5t31.5 2.5l12.5 1.5l-4 -54q-37 -7 -50.5 -19t-14.5 -40l-11 -413q-1 -40 8 -54t33 -14
q16 0 29.5 1.5l13.5 1.5l3 -5l-9 -54l-14 0.5t-35.5 1t-43.5 1t-39 0.5h-42t-41 -0.5t-31 -1l-12 -0.5l10 53q46 6 59.5 20.5t13.5 57.5zM298 -304l-26 22v13q30 19 50 47t20 53q0 20 -10.5 37t-26.5 28l2 14q13 11 31.5 20.5t35.5 9.5q26 0 43 -21t17 -56q0 -36 -20.5 -67
t-51.5 -56.5t-64 -43.5z" />
    <glyph glyph-name="uni0137" unicode="&#x137;" horiz-adv-x="506" 
d="M30 44q25 4 35.5 13.5t13 28.5t2.5 49v478q0 53 -33 54q-9 1 -18.5 -0.5t-13.5 -1.5q0 5 0.5 9t0.5 7l3 31q30 3 60 8.5t56 10.5t41.5 8l15.5 3l6 -16q-4 -7 -8.5 -43t-8 -95.5t-6.5 -136.5t-4.5 -166t-1.5 -184q0 -28 8 -39.5t25 -11.5q8 0 19.5 1l11.5 1l3 -5l-10 -51
l-10 1t-25.5 1.5t-32 1t-31.5 0.5q-22 0 -46.5 -1.5t-41 -3l-16.5 -1.5zM191 234l2 19l109 107q13 12 17.5 19.5t4.5 14.5q0 11 -12.5 16t-40.5 5l-3 5l9 38l18.5 -0.5t44 -1t46.5 -0.5t44.5 1.5t40 2.5l16.5 1l3 -5l-9 -42q-34 -10 -67.5 -37t-66 -59t-63.5 -62l96 -132
q31 -41 57 -59.5t56 -19.5l3 -6l-6 -38l-14.5 -3.5t-32 -7t-27.5 -4.5q-11 0 -21 2t-18 6q-20 7 -37 24.5t-39 51.5zM195 -304l-26 22v13q30 19 50 47t20 53q0 20 -10.5 37t-26.5 28l2 14q13 11 31.5 20.5t35.5 9.5q26 0 43 -21t17 -56q0 -36 -20.5 -67t-51.5 -56.5
t-64 -43.5z" />
    <glyph glyph-name="kgreenlandic" unicode="&#x138;" horiz-adv-x="523" 
d="M207 237l3 18l111 105q13 12 17.5 19.5t4.5 14.5q0 11 -12.5 16t-41.5 5l-3 5l9 38l18.5 -0.5t43.5 -1t46 -0.5t44 1.5t39.5 2.5l16.5 1l3 -5l-8 -42q-34 -10 -68 -37t-66.5 -59t-63.5 -62l97 -132q30 -41 56 -59.5t56 -19.5l4 -6l-7 -38l-14.5 -3.5t-31.5 -7t-27 -4.5
q-12 0 -22 2t-17 6q-21 7 -37.5 24.5t-38.5 51.5zM44 44q25 4 36 13.5t14 28.5t3 49v215q0 27 -11 38.5t-48 12.5l-6 5l5 43q26 2 53.5 5.5t50.5 6.5t37 5l14 2l7 -13q-1 -8 -3.5 -32.5t-4.5 -67t-3.5 -105t-1.5 -149.5q0 -28 8 -39.5t26 -11.5q8 0 19.5 1l11.5 1l2 -5
l-10 -51l-10 1t-25 1.5t-32 1t-31 0.5q-23 0 -47.5 -1.5t-42 -3l-17.5 -1.5z" />
    <glyph glyph-name="Lacute" unicode="&#x139;" horiz-adv-x="517" 
d="M57 -10l6 55q39 6 53.5 24t14.5 61v403q0 32 -7 43t-29 11q-9 0 -20.5 -1l-11.5 -1l-4 6l7 50q6 0 27.5 -0.5t48 -1t46.5 -0.5q17 0 38.5 1.5t42 2.5t34 2.5l13.5 1.5l-5 -56q-34 -3 -48 -11.5t-17 -25.5t-6 -47q-4 -59 -6.5 -127t-4 -133t-1.5 -118q0 -30 5.5 -45
t21.5 -20t49 -5q40 0 65 5.5t40 21t24.5 44.5t16.5 76l61 6l5 -7l-5 -29t-11 -75.5t-12 -101.5l-7 -8l-27.5 1.5t-70.5 3t-90 3t-86 1.5q-40 0 -74.5 -2.5t-55 -5zM106 709l-11 6l-9 34q38 18 75 37t67.5 34.5t49 25.5l18.5 10l10 -6l20 -60l-5 -11l-18 -6t-48.5 -15.5
t-69.5 -22t-79 -26.5z" />
    <glyph glyph-name="lacute" unicode="&#x13a;" horiz-adv-x="253" 
d="M22 -11l6 51q26 6 37 17.5t13.5 30t2.5 47.5v478q0 26 -4.5 37.5t-18 14.5t-39.5 1l-4 3l5 43q43 5 86.5 12.5t86.5 17.5l6 -16q-4 -10 -8.5 -47.5t-8 -97.5t-6.5 -136.5t-4.5 -164t-1.5 -179.5q0 -27 7.5 -39t25.5 -12l34 2l2 -5l-9 -50q-21 1 -50 2t-50 1
q-19 0 -48.5 -3t-59.5 -8zM90 755l-11 3l-25 27q28 30 55.5 60.5t50.5 56t36.5 41.5l13.5 16l11 -2l46 -52l-1 -12l-25.5 -19t-66 -50.5t-84.5 -68.5z" />
    <glyph glyph-name="uni013B" unicode="&#x13b;" horiz-adv-x="517" 
d="M57 -10l6 55q39 6 53.5 24t14.5 61v403q0 32 -7 43t-29 11q-9 0 -20.5 -1l-11.5 -1l-4 6l7 50q6 0 27.5 -0.5t48 -1t46.5 -0.5q17 0 38.5 1.5t42 2.5t34 2.5l13.5 1.5l-5 -56q-34 -3 -48 -11.5t-17 -25.5t-6 -47q-4 -59 -6.5 -127t-4 -133t-1.5 -118q0 -30 5.5 -45
t21.5 -20t49 -5q40 0 65 5.5t40 21t24.5 44.5t16.5 76l61 6l5 -7l-5 -29t-11 -75.5t-12 -101.5l-7 -8l-27.5 1.5t-70.5 3t-90 3t-86 1.5q-40 0 -74.5 -2.5t-55 -5zM227 -304l-26 22v13q30 19 50 47t20 53q0 20 -10.5 37t-26.5 28l2 14q13 11 31.5 20.5t35.5 9.5q26 0 43 -21
t17 -56q0 -36 -20.5 -67t-51.5 -56.5t-64 -43.5z" />
    <glyph glyph-name="uni013C" unicode="&#x13c;" horiz-adv-x="253" 
d="M22 -11l6 51q26 6 37 17.5t13.5 30t2.5 47.5v478q0 26 -4.5 37.5t-18 14.5t-39.5 1l-4 3l5 43q43 5 86.5 12.5t86.5 17.5l6 -16q-4 -10 -8.5 -47.5t-8 -97.5t-6.5 -136.5t-4.5 -164t-1.5 -179.5q0 -27 7.5 -39t25.5 -12l34 2l2 -5l-9 -50q-21 1 -50 2t-50 1
q-19 0 -48.5 -3t-59.5 -8zM57 -304l-26 22v13q30 19 50 47t20 53q0 20 -10.5 37t-26.5 28l2 14q13 11 31.5 20.5t35.5 9.5q26 0 43 -21t17 -56q0 -36 -20.5 -67t-51.5 -56.5t-64 -43.5z" />
    <glyph glyph-name="Lcaron" unicode="&#x13d;" horiz-adv-x="520" 
d="M434 397l-13 3q2 56 0 107t-4.5 83l-2.5 32l83 14l8 -9l-4.5 -31.5t-12.5 -81t-20 -101.5zM57 -10l6 55q39 6 53.5 24t14.5 61v403q0 32 -7 43t-29 11q-9 0 -20.5 -1l-11.5 -1l-4 6l7 50q6 0 27.5 -0.5t48 -1t46.5 -0.5q17 0 38.5 1.5t42 2.5t34 2.5l13.5 1.5l-5 -56
q-34 -3 -48 -11.5t-17 -25.5t-6 -47q-4 -59 -6.5 -127t-4 -133t-1.5 -118q0 -30 5.5 -45t21.5 -20t49 -5q40 0 65 5.5t40 21t24.5 44.5t16.5 76l61 6l5 -7l-5 -29t-11 -75.5t-12 -101.5l-7 -8l-27.5 1.5t-70.5 3t-90 3t-86 1.5q-40 0 -74.5 -2.5t-55 -5z" />
    <glyph glyph-name="lcaron" unicode="&#x13e;" horiz-adv-x="327" 
d="M258 457l-12 3q1 56 -0.5 107t-4 83l-2.5 32l83 14l8 -9l-5 -31.5t-13 -81t-19 -101.5zM22 -11l6 51q26 6 37 17.5t13.5 30t2.5 47.5v478q0 26 -4.5 37.5t-18 14.5t-39.5 1l-4 3l5 43q43 5 86.5 12.5t86.5 17.5l6 -16q-4 -10 -8.5 -47.5t-8 -97.5t-6.5 -136.5t-4.5 -164
t-1.5 -179.5q0 -27 7.5 -39t25.5 -12l34 2l2 -5l-9 -50q-21 1 -50 2t-50 1q-19 0 -48.5 -3t-59.5 -8z" />
    <glyph glyph-name="Ldot" unicode="&#x13f;" horiz-adv-x="542" 
d="M57 -10l6 55q39 6 53.5 24t14.5 61v403q0 32 -7 43t-29 11q-9 0 -20.5 -1l-11.5 -1l-4 6l7 50q6 0 27.5 -0.5t48 -1t46.5 -0.5q17 0 38.5 1.5t42 2.5t34 2.5l13.5 1.5l-5 -56q-34 -3 -48 -11.5t-17 -25.5t-6 -47q-4 -59 -6.5 -127t-4 -133t-1.5 -118q0 -30 5.5 -45
t21.5 -20t49 -5q40 0 65 5.5t40 21t24.5 44.5t16.5 76l61 6l5 -7l-5 -29t-11 -75.5t-12 -101.5l-7 -8l-27.5 1.5t-70.5 3t-90 3t-86 1.5q-40 0 -74.5 -2.5t-55 -5zM443 382q-32 0 -48 19t-16 46q0 30 19 50.5t51 20.5q31 0 48 -19t17 -46q0 -30 -19.5 -50.5t-51.5 -20.5z
" />
    <glyph glyph-name="ldot" unicode="&#x140;" horiz-adv-x="359" 
d="M22 -11l6 51q26 6 37 17.5t13.5 30t2.5 47.5v478q0 26 -4.5 37.5t-18 14.5t-39.5 1l-4 3l5 43q43 5 86.5 12.5t86.5 17.5l6 -16q-4 -10 -8.5 -47.5t-8 -97.5t-6.5 -136.5t-4.5 -164t-1.5 -179.5q0 -27 7.5 -39t25.5 -12l34 2l2 -5l-9 -50q-21 1 -50 2t-50 1
q-19 0 -48.5 -3t-59.5 -8zM284 216q-32 0 -48 19t-16 46q0 30 19 50.5t51 20.5q31 0 48 -19t17 -46q0 -30 -19.5 -50.5t-51.5 -20.5z" />
    <glyph glyph-name="Lslash" unicode="&#x141;" horiz-adv-x="557" 
d="M71 248l-9 3l-10 45l144 71v-9l202 100l8 -4l10 -44l-220 -109v9zM62 -10l6 55q39 6 53.5 24t14.5 61l1 403q0 32 -7 43t-30 11q-9 0 -20.5 -1l-11.5 -1l-4 6l7 50q6 0 27.5 -0.5t48 -1t47.5 -0.5q16 0 37.5 1.5t42 2.5t34 2.5l13.5 1.5l-5 -56q-34 -3 -48 -11.5
t-17 -25.5t-6 -47q-4 -59 -6.5 -127t-3.5 -133t-1 -118q0 -30 5 -45t21.5 -20t48.5 -5q40 0 65 5.5t40.5 21t24.5 44.5t16 76l61 6l5 -7l-5 -29t-11 -75.5t-12 -101.5l-7 -8l-27.5 1.5t-70.5 3t-90 3t-86 1.5q-40 0 -74.5 -2.5t-55 -5z" />
    <glyph glyph-name="lslash" unicode="&#x142;" horiz-adv-x="286" 
d="M32 294l-9 2l-12 45l136 73v-7l109 59l8 -4l11 -44l-128 -70v8zM39 -11l5 51q27 6 38 17.5t13 30t2 47.5v478q0 26 -4.5 37.5t-17.5 14.5t-40 1l-3 3l5 43q43 5 86 12.5t86 17.5l7 -16q-5 -10 -9 -47.5t-8 -97.5t-7 -136.5t-4 -164t-1 -179.5q0 -27 7 -39t25 -12l34 2
l3 -5l-9 -50q-21 1 -50 2t-51 1q-19 0 -48 -3t-59 -8z" />
    <glyph glyph-name="Nacute" unicode="&#x143;" horiz-adv-x="723" 
d="M550 -34q-66 105 -127 196.5t-108 160.5t-74.5 108.5l-27.5 39.5h-7l-4 -376q1 -23 8 -32.5t25 -9.5q5 0 16.5 0.5t21.5 0.5h10l3 -5l-9 -53l-12 0.5t-30 1.5t-38 1.5t-36 0.5q-23 0 -47.5 -2t-41.5 -4l-17 -2l6 55q31 4 45.5 18t15.5 45l13 419q0 32 -17.5 44.5
t-67.5 17.5l-4 7l7 46l17 -1t40 -2.5t42 -1.5t37 1t30 2l12 1q46 -71 90 -138.5t83 -126t69.5 -102t47.5 -68l17 -24.5h7l-1 359q0 23 -8 33t-25 10q-12 0 -23.5 -0.5t-12.5 -0.5l-3 6l8 52l11.5 -0.5t29 -1.5t36 -1.5t33.5 -0.5q22 0 47 1.5t42.5 3.5l17.5 2l-5 -55
q-34 -4 -49.5 -19t-16.5 -44l-14 -549zM320 701l-11 6l-9 34q38 18 75 37t67.5 34.5t49 25.5l18.5 10l10 -6l20 -60l-5 -11l-18 -6t-48.5 -15.5t-69.5 -22t-79 -26.5z" />
    <glyph glyph-name="nacute" unicode="&#x144;" horiz-adv-x="565" 
d="M324 40q27 7 39 21.5t12 39.5l4 187q0 47 -19 71.5t-56 24.5q-21 0 -42.5 -8.5t-38.5 -19t-26 -17.5q-1 -27 -2.5 -62t-3.5 -70t-3 -63.5t-1 -41.5q0 -28 8 -39.5t26 -11.5q8 0 19.5 1l11.5 1l2 -4l-9 -52l-16.5 1t-39 1.5t-42.5 0.5q-23 0 -48 -1.5t-42.5 -3l-17.5 -1.5
l7 51q29 4 40.5 16.5t11.5 40.5v230q0 34 -10.5 47t-37.5 13h-12l-4 5l4 41q40 7 76.5 13.5t60 12l23.5 5.5l7 -9l-4.5 -20.5t-6.5 -46.5l3 -4q10 8 29 21.5t40 26.5t40 22t30 9q67 0 105 -34.5t38 -94.5q0 -14 -2.5 -44.5t-5.5 -67.5t-5.5 -70.5t-2.5 -53.5q0 -28 8 -40.5
t26 -12.5q8 0 20.5 1l12.5 1l2 -4l-9 -51l-9.5 0.5t-25 1t-32 1t-30.5 0.5q-16 0 -34 -1.5t-35 -3.5t-27.5 -3.5l-10.5 -1.5zM254 521l-11 3l-25 27q28 30 55.5 60.5t50.5 56t36.5 41.5l13.5 16l11 -2l46 -52l-1 -12l-25.5 -19t-66 -50.5t-84.5 -68.5z" />
    <glyph glyph-name="uni0145" unicode="&#x145;" horiz-adv-x="723" 
d="M550 -34q-66 105 -127 196.5t-108 160.5t-74.5 108.5l-27.5 39.5h-7l-4 -376q1 -23 8 -32.5t25 -9.5q5 0 16.5 0.5t21.5 0.5h10l3 -5l-9 -53l-12 0.5t-30 1.5t-38 1.5t-36 0.5q-23 0 -47.5 -2t-41.5 -4l-17 -2l6 55q31 4 45.5 18t15.5 45l13 419q0 32 -17.5 44.5
t-67.5 17.5l-4 7l7 46l17 -1t40 -2.5t42 -1.5t37 1t30 2l12 1q46 -71 90 -138.5t83 -126t69.5 -102t47.5 -68l17 -24.5h7l-1 359q0 23 -8 33t-25 10q-12 0 -23.5 -0.5t-12.5 -0.5l-3 6l8 52l11.5 -0.5t29 -1.5t36 -1.5t33.5 -0.5q22 0 47 1.5t42.5 3.5l17.5 2l-5 -55
q-34 -4 -49.5 -19t-16.5 -44l-14 -549zM299 -304l-26 22v13q30 19 50 47t20 53q0 20 -10.5 37t-26.5 28l2 14q13 11 31.5 20.5t35.5 9.5q26 0 43 -21t17 -56q0 -36 -20.5 -67t-51.5 -56.5t-64 -43.5z" />
    <glyph glyph-name="uni0146" unicode="&#x146;" horiz-adv-x="565" 
d="M324 40q27 7 39 21.5t12 39.5l4 187q0 47 -19 71.5t-56 24.5q-21 0 -42.5 -8.5t-38.5 -19t-26 -17.5q-1 -27 -2.5 -62t-3.5 -70t-3 -63.5t-1 -41.5q0 -28 8 -39.5t26 -11.5q8 0 19.5 1l11.5 1l2 -4l-9 -52l-16.5 1t-39 1.5t-42.5 0.5q-23 0 -48 -1.5t-42.5 -3l-17.5 -1.5
l7 51q29 4 40.5 16.5t11.5 40.5v230q0 34 -10.5 47t-37.5 13h-12l-4 5l4 41q40 7 76.5 13.5t60 12l23.5 5.5l7 -9l-4.5 -20.5t-6.5 -46.5l3 -4q10 8 29 21.5t40 26.5t40 22t30 9q67 0 105 -34.5t38 -94.5q0 -14 -2.5 -44.5t-5.5 -67.5t-5.5 -70.5t-2.5 -53.5q0 -28 8 -40.5
t26 -12.5q8 0 20.5 1l12.5 1l2 -4l-9 -51l-9.5 0.5t-25 1t-32 1t-30.5 0.5q-16 0 -34 -1.5t-35 -3.5t-27.5 -3.5l-10.5 -1.5zM211 -304l-26 22v13q30 19 50 47t20 53q0 20 -10.5 37t-26.5 28l2 14q13 11 31.5 20.5t35.5 9.5q26 0 43 -21t17 -56q0 -36 -20.5 -67t-51.5 -56.5
t-64 -43.5z" />
    <glyph glyph-name="Ncaron" unicode="&#x147;" horiz-adv-x="723" 
d="M550 -34q-66 105 -127 196.5t-108 160.5t-74.5 108.5l-27.5 39.5h-7l-4 -376q1 -23 8 -32.5t25 -9.5q5 0 16.5 0.5t21.5 0.5h10l3 -5l-9 -53l-12 0.5t-30 1.5t-38 1.5t-36 0.5q-23 0 -47.5 -2t-41.5 -4l-17 -2l6 55q31 4 45.5 18t15.5 45l13 419q0 32 -17.5 44.5
t-67.5 17.5l-4 7l7 46l17 -1t40 -2.5t42 -1.5t37 1t30 2l12 1q46 -71 90 -138.5t83 -126t69.5 -102t47.5 -68l17 -24.5h7l-1 359q0 23 -8 33t-25 10q-12 0 -23.5 -0.5t-12.5 -0.5l-3 6l8 52l11.5 -0.5t29 -1.5t36 -1.5t33.5 -0.5q22 0 47 1.5t42.5 3.5l17.5 2l-5 -55
q-34 -4 -49.5 -19t-16.5 -44l-14 -549zM366 701l-13 11t-34.5 28t-47.5 37.5t-51 39.5l18 30l12 3q35 -19 69.5 -36t54.5 -26q21 9 54.5 25.5t69.5 36.5l12 -3l18 -30q-25 -19 -51 -39.5t-47.5 -37.5t-34.5 -28l-13 -11h-16z" />
    <glyph glyph-name="ncaron" unicode="&#x148;" horiz-adv-x="565" 
d="M324 40q27 7 39 21.5t12 39.5l4 187q0 47 -19 71.5t-56 24.5q-21 0 -42.5 -8.5t-38.5 -19t-26 -17.5q-1 -27 -2.5 -62t-3.5 -70t-3 -63.5t-1 -41.5q0 -28 8 -39.5t26 -11.5q8 0 19.5 1l11.5 1l2 -4l-9 -52l-16.5 1t-39 1.5t-42.5 0.5q-23 0 -48 -1.5t-42.5 -3l-17.5 -1.5
l7 51q29 4 40.5 16.5t11.5 40.5v230q0 34 -10.5 47t-37.5 13h-12l-4 5l4 41q40 7 76.5 13.5t60 12l23.5 5.5l7 -9l-4.5 -20.5t-6.5 -46.5l3 -4q10 8 29 21.5t40 26.5t40 22t30 9q67 0 105 -34.5t38 -94.5q0 -14 -2.5 -44.5t-5.5 -67.5t-5.5 -70.5t-2.5 -53.5q0 -28 8 -40.5
t26 -12.5q8 0 20.5 1l12.5 1l2 -4l-9 -51l-9.5 0.5t-25 1t-32 1t-30.5 0.5q-16 0 -34 -1.5t-35 -3.5t-27.5 -3.5l-10.5 -1.5zM285 524l-12.5 14.5t-35 38t-48.5 51.5t-53 55l22 31l11 2q36 -30 69.5 -54.5t55.5 -39.5q21 15 55 40t69 54l11 -2l23 -31q-27 -27 -53.5 -55
t-48.5 -51.5t-35 -38l-13 -14.5h-17z" />
    <glyph glyph-name="Eng" unicode="&#x14a;" horiz-adv-x="722" 
d="M438 -158l-21 36l3 9q46 24 71 52t35 67q-64 98 -120.5 183t-100.5 149.5t-68.5 100l-24.5 35.5h-7l-4 -380q1 -23 8 -32.5t25 -9.5q5 0 16.5 0.5t21 1l9.5 0.5l4 -5l-9 -53l-20.5 1t-49.5 2t-56 1q-20 0 -42 -2t-37 -4l-15 -2l6 54q34 3 47 20t15 62l12 402
q0 30 -16.5 42.5t-68.5 19.5l-5 7l8 45l10.5 -1t26 -1.5t31.5 -1.5t26 -1q11 0 30.5 1t35.5 2l16 1q39 -63 82 -128.5t83.5 -125.5t73 -106.5t51.5 -74l19 -27.5h7l-1 363q0 22 -8 32.5t-25 10.5q-11 0 -23.5 -0.5l-12.5 -0.5l-3 5l8 52l12.5 -0.5t30 -1.5t36 -1.5
t30.5 -0.5q16 0 34.5 1t34.5 2.5t26.5 2.5l10.5 1l-5 -54q-35 -4 -50 -19t-16 -44l-9 -443q-3 -98 -44 -154.5t-134 -89.5z" />
    <glyph glyph-name="eng" unicode="&#x14b;" horiz-adv-x="540" 
d="M288 -148l-22 36l3 9q43 25 65.5 50.5t31.5 61.5t10 92l1 187q0 47 -19 71.5t-56 24.5q-20 0 -41 -8.5t-38.5 -19t-27.5 -17.5q-1 -32 -2.5 -67.5t-3 -70t-2.5 -60.5t-1 -39q0 -28 7.5 -39.5t25.5 -11.5q8 0 19.5 1l11.5 1l3 -4l-10 -52l-16.5 1t-39 1.5t-41.5 0.5
q-23 0 -48 -1.5t-42.5 -3l-17.5 -1.5l6 51q29 4 41 16.5t12 40.5v230q0 34 -11 47t-38 13h-12l-3 5l4 41q39 7 75.5 13.5t60 12l23.5 5.5l8 -9l-5 -20.5t-7 -46.5l3 -4q12 10 30.5 23t39.5 26t40 21.5t29 8.5q67 0 105 -34.5t38 -94.5l-13 -244q-4 -68 -22 -114.5t-55 -77
t-99 -51.5z" />
    <glyph glyph-name="Omacron" unicode="&#x14c;" horiz-adv-x="684" 
d="M316 -12q-85 0 -148 38.5t-98 109t-35 164.5q0 76 24 140t68.5 111.5t104.5 73.5t131 26q88 0 152 -38.5t99.5 -108t35.5 -163.5q0 -77 -25 -141.5t-69.5 -111.5t-105.5 -73.5t-134 -26.5zM345 54q57 0 98.5 29.5t65 83.5t23.5 127q0 88 -25 150.5t-69.5 96.5t-105.5 34
q-55 0 -96 -29.5t-63.5 -83t-22.5 -126.5q0 -87 24 -150t68 -97.5t103 -34.5zM197 714l-8 10l12 58h15.5t39.5 -0.5t50.5 -0.5h48.5q25 0 54.5 1.5t51.5 3l22 1.5l7 -11l-9 -60l-142 -1h-62.5t-56.5 -0.5z" />
    <glyph glyph-name="omacron" unicode="&#x14d;" horiz-adv-x="500" 
d="M236 -12q-60 0 -105.5 28t-71 79t-25.5 118q0 74 30.5 131.5t84.5 90.5t121 33q61 0 106.5 -28t70.5 -78.5t25 -118.5q0 -73 -30.5 -131t-84 -91t-121.5 -33zM260 49q50 0 78.5 40.5t28.5 113.5q0 61 -15.5 105.5t-43 68.5t-65.5 24q-49 0 -77.5 -41t-28.5 -114
q0 -62 15 -106t43 -67.5t65 -23.5zM112 572l-8 10l12 58h15.5t39.5 -0.5t50.5 -0.5h48.5q25 0 54.5 1.5t51.5 3l22 1.5l7 -11l-9 -60l-142 -1h-62.5t-56.5 -0.5z" />
    <glyph glyph-name="Obreve" unicode="&#x14e;" horiz-adv-x="684" 
d="M316 -12q-85 0 -148 38.5t-98 109t-35 164.5q0 76 24 140t68.5 111.5t104.5 73.5t131 26q88 0 152 -38.5t99.5 -108t35.5 -163.5q0 -77 -25 -141.5t-69.5 -111.5t-105.5 -73.5t-134 -26.5zM345 54q57 0 98.5 29.5t65 83.5t23.5 127q0 88 -25 150.5t-69.5 96.5t-105.5 34
q-55 0 -96 -29.5t-63.5 -83t-22.5 -126.5q0 -87 24 -150t68 -97.5t103 -34.5zM325 707q-37 0 -64 17t-43.5 44.5t-24.5 56.5l21 21l12 1q13 -33 40 -49.5t59 -16.5q33 0 59.5 16.5t39.5 49.5l12 -1l21 -21q-8 -29 -24.5 -56.5t-43 -44.5t-64.5 -17z" />
    <glyph glyph-name="obreve" unicode="&#x14f;" horiz-adv-x="500" 
d="M236 -12q-60 0 -105.5 28t-71 79t-25.5 118q0 74 30.5 131.5t84.5 90.5t121 33q61 0 106.5 -28t70.5 -78.5t25 -118.5q0 -73 -30.5 -131t-84 -91t-121.5 -33zM260 49q50 0 78.5 40.5t28.5 113.5q0 61 -15.5 105.5t-43 68.5t-65.5 24q-49 0 -77.5 -41t-28.5 -114
q0 -62 15 -106t43 -67.5t65 -23.5zM264 534q-37 0 -64 17t-43.5 44.5t-24.5 56.5l21 21l12 1q13 -33 40 -49.5t59 -16.5q33 0 59.5 16.5t39.5 49.5l12 -1l21 -21q-8 -29 -24.5 -56.5t-43 -44.5t-64.5 -17z" />
    <glyph glyph-name="Ohungarumlaut" unicode="&#x150;" horiz-adv-x="684" 
d="M316 -12q-85 0 -148 38.5t-98 109t-35 164.5q0 76 24 140t68.5 111.5t104.5 73.5t131 26q88 0 152 -38.5t99.5 -108t35.5 -163.5q0 -77 -25 -141.5t-69.5 -111.5t-105.5 -73.5t-134 -26.5zM345 54q57 0 98.5 29.5t65 83.5t23.5 127q0 88 -25 150.5t-69.5 96.5t-105.5 34
q-55 0 -96 -29.5t-63.5 -83t-22.5 -126.5q0 -87 24 -150t68 -97.5t103 -34.5zM386 675l-10 4l-15 26q36 30 71 59t58 47.5l23 18.5l10 -3l31 -50l-2 -11l-24 -12.5t-62 -33t-80 -45.5zM234 682l-10 5l-15 26q36 30 71 58.5t58 47.5l23 19l10 -3l31 -51l-2 -10l-24 -13
t-62 -33.5t-80 -45.5z" />
    <glyph glyph-name="ohungarumlaut" unicode="&#x151;" horiz-adv-x="506" 
d="M236 -12q-60 0 -105.5 28t-71 79t-25.5 118q0 74 30.5 131.5t84.5 90.5t121 33q61 0 106.5 -28t70.5 -78.5t25 -118.5q0 -73 -30.5 -131t-84 -91t-121.5 -33zM260 49q50 0 78.5 40.5t28.5 113.5q0 61 -15.5 105.5t-43 68.5t-65.5 24q-49 0 -77.5 -41t-28.5 -114
q0 -62 15 -106t43 -67.5t65 -23.5zM445 660l-22 -18t-56.5 -46.5t-73.5 -62.5l-11 1l-23 22q32 37 63 73.5t51 60.5l20 24l10 -1l43 -43zM310 660l-22 -18t-56.5 -46.5t-73.5 -62.5l-11 1l-23 22q32 37 62.5 73.5t51 60.5l20.5 24l10 -1l43 -43z" />
    <glyph glyph-name="OE" unicode="&#x152;" horiz-adv-x="953" 
d="M312 -12q-82 0 -144.5 39t-97 109t-34.5 164q0 76 23.5 140t67 110.5t102 72.5t129.5 26q50 0 104 -6.5t117 -6.5q69 0 125.5 2t102 5t79.5 8l5 -8l-4.5 -24t-10 -63.5t-8.5 -85.5l-66 -5l1 16t1 26q0 31 -9 45t-39 18.5t-95 4.5q-28 0 -41 -2t-17 -10t-5 -25l-7 -177
l99 -1q14 0 33.5 1.5t39.5 3.5t33.5 3.5l13.5 1.5l6 -7l-14 -71l-23 1t-55 1.5t-58 0.5l-78 -6l-2 -170q0 -26 4.5 -39t19.5 -17t48 -4q54 0 87 4t50.5 16t26 36t13.5 63l62 6l5 -7l-5 -25.5t-11.5 -65t-11.5 -85.5l-7 -8l-21 1t-56 2t-76.5 2t-82 2t-73.5 1
q-72 0 -133.5 -6.5t-112.5 -6.5zM340 54q84 0 119.5 34.5t36.5 117.5l1 255q0 47 -14.5 72t-49.5 35t-97 10q-56 0 -97.5 -29.5t-64.5 -84t-23 -127.5q0 -88 23 -151.5t65.5 -97.5t100.5 -34z" />
    <glyph glyph-name="oe" unicode="&#x153;" horiz-adv-x="771" 
d="M229 -12q-59 0 -103.5 28t-69.5 79t-25 118q0 74 30 131.5t83 90.5t120 33q25 0 48 -6.5t42.5 -18t35 -26t25.5 -31.5q14 18 33 33t41 26t44 17t44 6q53 0 88 -18t52.5 -50.5t17.5 -78.5q0 -27 -5 -44.5l-5 -17.5l-13 -11h-265v-14q2 -76 39 -120.5t99 -44.5q31 0 59 8
t45.5 15.5l17.5 7.5l7 -3l13 -38l-15.5 -11t-40.5 -24.5t-52.5 -24.5t-52.5 -11q-26 0 -51 5t-47 16t-40.5 26t-31.5 35q-13 -17 -30.5 -31.5t-39.5 -26t-46 -18t-51 -6.5zM254 49q48 0 75 40.5t27 113.5q0 61 -15 105.5t-41.5 68.5t-63.5 24q-48 0 -75 -41t-27 -114
q0 -62 15 -106t42 -67.5t63 -23.5zM449 292l161 9q14 1 18 6t4 19q0 39 -19 59t-55 20q-43 0 -72.5 -29.5t-36.5 -83.5z" />
    <glyph glyph-name="Racute" unicode="&#x154;" horiz-adv-x="625" 
d="M513 -16q-28 0 -56 25t-52 69l-97 186h-78l-2 -133q0 -35 4.5 -52t20 -22t47.5 -6l2 -4l-9 -51l-12 0.5t-30 1t-38 1t-38 0.5q-27 1 -56.5 0t-50 -2.5l-20.5 -1.5l9 55q45 5 59.5 21t14.5 59l1 405q0 30 -7 41t-28 11q-9 0 -21.5 -1l-12.5 -1l-4 5l8 52l12.5 -0.5
t31.5 -1t39 -1t34 -0.5t36.5 0.5t45.5 1.5t38.5 1.5l15.5 0.5q102 0 159 -42.5t57 -120.5q0 -59 -36.5 -109t-104.5 -82l100 -160q29 -46 55.5 -66t63.5 -20l5 -6l-7 -42zM330 324q3 2 18.5 9t34 22t32 41t13.5 66q0 61 -41.5 91.5t-126.5 30.5q-10 0 -13.5 -4.5t-4.5 -18.5
q-4 -71 -6.5 -124t-3.5 -103zM218 701l-11 6l-9 34q38 18 75 37t67.5 34.5t49 25.5l18.5 10l10 -6l20 -60l-5 -11l-18 -6t-48.5 -15.5t-69.5 -22t-79 -26.5z" />
    <glyph glyph-name="racute" unicode="&#x155;" horiz-adv-x="396" 
d="M52 45q30 3 40 18.5t10 58.5v210q0 34 -9 47.5t-31 13.5q-7 0 -13.5 -1.5l-6.5 -1.5l-5 7l4 40q37 7 72.5 14t59.5 12.5l24 5.5l8 -7l-2.5 -15.5t-4.5 -38t-2 -45.5l4 -3q32 46 70.5 74.5t70.5 28.5q16 0 24.5 -2l8.5 -2l3 -6l-2 -14.5t-5.5 -38.5t-6 -52.5t-4.5 -54.5
l-50 -3q0 44 -5 58t-23 14q-19 0 -40.5 -15t-40.5 -42l-1 -18t-2 -45.5t-2.5 -56.5t-2.5 -51t-1 -28q0 -30 9.5 -41.5t34.5 -11.5q13 0 30 1.5l17 1.5l2 -5l-10 -54l-11.5 0.5t-29.5 1t-37.5 1t-35.5 0.5q-30 0 -56 -1t-42 -2l-16 -1zM108 521l-11 3l-25 27q28 30 55.5 60.5
t50.5 56t36.5 41.5l13.5 16l11 -2l46 -52l-1 -12l-25.5 -19t-66 -50.5t-84.5 -68.5z" />
    <glyph glyph-name="uni0156" unicode="&#x156;" horiz-adv-x="625" 
d="M513 -16q-28 0 -56 25t-52 69l-97 186h-78l-2 -133q0 -35 4.5 -52t20 -22t47.5 -6l2 -4l-9 -51l-12 0.5t-30 1t-38 1t-38 0.5q-27 1 -56.5 0t-50 -2.5l-20.5 -1.5l9 55q45 5 59.5 21t14.5 59l1 405q0 30 -7 41t-28 11q-9 0 -21.5 -1l-12.5 -1l-4 5l8 52l12.5 -0.5
t31.5 -1t39 -1t34 -0.5t36.5 0.5t45.5 1.5t38.5 1.5l15.5 0.5q102 0 159 -42.5t57 -120.5q0 -59 -36.5 -109t-104.5 -82l100 -160q29 -46 55.5 -66t63.5 -20l5 -6l-7 -42zM330 324q3 2 18.5 9t34 22t32 41t13.5 66q0 61 -41.5 91.5t-126.5 30.5q-10 0 -13.5 -4.5t-4.5 -18.5
q-4 -71 -6.5 -124t-3.5 -103zM255 -304l-26 22v13q30 19 50 47t20 53q0 20 -10.5 37t-26.5 28l2 14q13 11 31.5 20.5t35.5 9.5q26 0 43 -21t17 -56q0 -36 -20.5 -67t-51.5 -56.5t-64 -43.5z" />
    <glyph glyph-name="uni0157" unicode="&#x157;" horiz-adv-x="396" 
d="M52 45q30 3 40 18.5t10 58.5v210q0 34 -9 47.5t-31 13.5q-7 0 -13.5 -1.5l-6.5 -1.5l-5 7l4 40q37 7 72.5 14t59.5 12.5l24 5.5l8 -7l-2.5 -15.5t-4.5 -38t-2 -45.5l4 -3q32 46 70.5 74.5t70.5 28.5q16 0 24.5 -2l8.5 -2l3 -6l-2 -14.5t-5.5 -38.5t-6 -52.5t-4.5 -54.5
l-50 -3q0 44 -5 58t-23 14q-19 0 -40.5 -15t-40.5 -42l-1 -18t-2 -45.5t-2.5 -56.5t-2.5 -51t-1 -28q0 -30 9.5 -41.5t34.5 -11.5q13 0 30 1.5l17 1.5l2 -5l-10 -54l-11.5 0.5t-29.5 1t-37.5 1t-35.5 0.5q-30 0 -56 -1t-42 -2l-16 -1zM91 -304l-26 22v13q30 19 50 47t20 53
q0 20 -10.5 37t-26.5 28l2 14q13 11 31.5 20.5t35.5 9.5q26 0 43 -21t17 -56q0 -36 -20.5 -67t-51.5 -56.5t-64 -43.5z" />
    <glyph glyph-name="Rcaron" unicode="&#x158;" horiz-adv-x="625" 
d="M513 -16q-28 0 -56 25t-52 69l-97 186h-78l-2 -133q0 -35 4.5 -52t20 -22t47.5 -6l2 -4l-9 -51l-12 0.5t-30 1t-38 1t-38 0.5q-27 1 -56.5 0t-50 -2.5l-20.5 -1.5l9 55q45 5 59.5 21t14.5 59l1 405q0 30 -7 41t-28 11q-9 0 -21.5 -1l-12.5 -1l-4 5l8 52l12.5 -0.5
t31.5 -1t39 -1t34 -0.5t36.5 0.5t45.5 1.5t38.5 1.5l15.5 0.5q102 0 159 -42.5t57 -120.5q0 -59 -36.5 -109t-104.5 -82l100 -160q29 -46 55.5 -66t63.5 -20l5 -6l-7 -42zM330 324q3 2 18.5 9t34 22t32 41t13.5 66q0 61 -41.5 91.5t-126.5 30.5q-10 0 -13.5 -4.5t-4.5 -18.5
q-4 -71 -6.5 -124t-3.5 -103zM295 701l-13 11t-34.5 28t-47.5 37.5t-51 39.5l18 30l12 3q35 -19 69.5 -36t54.5 -26q21 9 54.5 25.5t69.5 36.5l12 -3l18 -30q-25 -19 -51 -39.5t-47.5 -37.5t-34.5 -28l-13 -11h-16z" />
    <glyph glyph-name="rcaron" unicode="&#x159;" horiz-adv-x="396" 
d="M52 45q30 3 40 18.5t10 58.5v210q0 34 -9 47.5t-31 13.5q-7 0 -13.5 -1.5l-6.5 -1.5l-5 7l4 40q37 7 72.5 14t59.5 12.5l24 5.5l8 -7l-2.5 -15.5t-4.5 -38t-2 -45.5l4 -3q32 46 70.5 74.5t70.5 28.5q16 0 24.5 -2l8.5 -2l3 -6l-2 -14.5t-5.5 -38.5t-6 -52.5t-4.5 -54.5
l-50 -3q0 44 -5 58t-23 14q-19 0 -40.5 -15t-40.5 -42l-1 -18t-2 -45.5t-2.5 -56.5t-2.5 -51t-1 -28q0 -30 9.5 -41.5t34.5 -11.5q13 0 30 1.5l17 1.5l2 -5l-10 -54l-11.5 0.5t-29.5 1t-37.5 1t-35.5 0.5q-30 0 -56 -1t-42 -2l-16 -1zM220 524l-12.5 14.5t-35 38t-48.5 51.5
t-53 55l22 31l11 2q36 -30 69.5 -54.5t55.5 -39.5q21 15 55 40t69 54l11 -2l23 -31q-27 -27 -53.5 -55t-48.5 -51.5t-35 -38l-13 -14.5h-17z" />
    <glyph glyph-name="Sacute" unicode="&#x15a;" horiz-adv-x="534" 
d="M220 -12q-50 0 -87 9t-58 18l-21 9l-6 11l2 14.5t4.5 38t5 55t2.5 65.5l61 5q0 -64 10 -98.5t36.5 -47.5t75.5 -13q55 0 89.5 26t34.5 70q0 31 -22 53t-56 41t-72 38q-40 20 -77 44t-60.5 56t-23.5 77q0 56 32 99t87.5 68t126.5 25q47 0 83 -6t57 -13l21 -7l4 -9
l-4.5 -23t-9.5 -62t-9 -85l-54 -5l-8 6l1.5 12.5t1.5 32.5q0 49 -24.5 68.5t-85.5 19.5q-49 0 -81 -24.5t-32 -61.5q0 -28 19 -49.5t49.5 -39.5t65.5 -35q43 -21 85 -46t69.5 -57.5t27.5 -80.5q0 -59 -32.5 -103.5t-91 -69.5t-136.5 -25zM193 701l-11 6l-9 34q38 18 75 37
t67.5 34.5t49 25.5l18.5 10l10 -6l20 -60l-5 -11l-18 -6t-48.5 -15.5t-69.5 -22t-79 -26.5z" />
    <glyph glyph-name="sacute" unicode="&#x15b;" horiz-adv-x="405" 
d="M170 -12q-37 0 -65.5 6t-44 12l-15.5 6l-4 8q2 13 4.5 37.5t5 51.5t2.5 44l44 5q1 -59 23 -85t71 -26q33 0 56 15t23 37q0 15 -9 28t-32.5 28.5t-67.5 36.5q-58 29 -84.5 60t-26.5 69q0 43 25 76t69.5 52t99.5 19q45 0 75.5 -8.5l30.5 -8.5l3 -7l-3.5 -18t-8 -46
t-7.5 -61l-46 -4l1 9t1 15q0 36 -18.5 52.5t-57.5 16.5q-31 0 -52 -14.5t-21 -35.5q0 -22 18.5 -40.5t60.5 -40.5q56 -27 87 -49.5t43.5 -44.5t12.5 -49q0 -40 -26 -73.5t-70 -53t-97 -19.5zM174 521l-11 3l-25 27q28 30 55.5 60.5t50.5 56t36.5 41.5l13.5 16l11 -2l46 -52
l-1 -12l-25.5 -19t-66 -50.5t-84.5 -68.5z" />
    <glyph glyph-name="Scircumflex" unicode="&#x15c;" horiz-adv-x="534" 
d="M220 -12q-50 0 -87 9t-58 18l-21 9l-6 11l2 14.5t4.5 38t5 55t2.5 65.5l61 5q0 -64 10 -98.5t36.5 -47.5t75.5 -13q55 0 89.5 26t34.5 70q0 31 -22 53t-56 41t-72 38q-40 20 -77 44t-60.5 56t-23.5 77q0 56 32 99t87.5 68t126.5 25q47 0 83 -6t57 -13l21 -7l4 -9
l-4.5 -23t-9.5 -62t-9 -85l-54 -5l-8 6l1.5 12.5t1.5 32.5q0 49 -24.5 68.5t-85.5 19.5q-49 0 -81 -24.5t-32 -61.5q0 -28 19 -49.5t49.5 -39.5t65.5 -35q43 -21 85 -46t69.5 -57.5t27.5 -80.5q0 -59 -32.5 -103.5t-91 -69.5t-136.5 -25zM153 710l-12 2l-18 30
q25 19 51 39.5t47.5 38t34.5 28.5l13 11h16l13 -10.5t34.5 -28t47.5 -38.5t51 -40l-18 -30l-12 -2q-35 19 -69 35.5t-55 26.5q-21 -10 -54.5 -26.5t-69.5 -35.5z" />
    <glyph glyph-name="scircumflex" unicode="&#x15d;" horiz-adv-x="405" 
d="M170 -12q-37 0 -65.5 6t-44 12l-15.5 6l-4 8q2 13 4.5 37.5t5 51.5t2.5 44l44 5q1 -59 23 -85t71 -26q33 0 56 15t23 37q0 15 -9 28t-32.5 28.5t-67.5 36.5q-58 29 -84.5 60t-26.5 69q0 43 25 76t69.5 52t99.5 19q45 0 75.5 -8.5l30.5 -8.5l3 -7l-3.5 -18t-8 -46
t-7.5 -61l-46 -4l1 9t1 15q0 36 -18.5 52.5t-57.5 16.5q-31 0 -52 -14.5t-21 -35.5q0 -22 18.5 -40.5t60.5 -40.5q56 -27 87 -49.5t43.5 -44.5t12.5 -49q0 -40 -26 -73.5t-70 -53t-97 -19.5zM85 529l-12 2l-20 30q25 26 50.5 53t47 50t34 37l12.5 14h16l12.5 -14t34 -37
t47 -50t50.5 -53l-20 -30l-12 -2q-34 28 -67 52t-53 39q-21 -15 -53 -38.5t-67 -52.5z" />
    <glyph glyph-name="Scedilla" unicode="&#x15e;" horiz-adv-x="534" 
d="M220 -12q-50 0 -87 9t-58 18l-21 9l-6 11l2 14.5t4.5 38t5 55t2.5 65.5l61 5q0 -64 10 -98.5t36.5 -47.5t75.5 -13q55 0 89.5 26t34.5 70q0 31 -22 53t-56 41t-72 38q-40 20 -77 44t-60.5 56t-23.5 77q0 56 32 99t87.5 68t126.5 25q47 0 83 -6t57 -13l21 -7l4 -9
l-4.5 -23t-9.5 -62t-9 -85l-54 -5l-8 6l1.5 12.5t1.5 32.5q0 49 -24.5 68.5t-85.5 19.5q-49 0 -81 -24.5t-32 -61.5q0 -28 19 -49.5t49.5 -39.5t65.5 -35q43 -21 85 -46t69.5 -57.5t27.5 -80.5q0 -59 -32.5 -103.5t-91 -69.5t-136.5 -25zM230 -235q-16 0 -32.5 4.5t-28 13.5
t-11.5 21q0 11 10.5 29t19.5 30h9q1 -28 15.5 -42t38.5 -14q19 0 31.5 9.5t12.5 24.5q0 12 -13 25t-32.5 25.5t-39.5 23.5l32 110h47l-23 -73q18 -10 38.5 -24.5t36 -31t15.5 -36.5q0 -26 -19 -47.5t-47.5 -34.5t-59.5 -13z" />
    <glyph glyph-name="scedilla" unicode="&#x15f;" horiz-adv-x="405" 
d="M170 -12q-37 0 -65.5 6t-44 12l-15.5 6l-4 8q2 13 4.5 37.5t5 51.5t2.5 44l44 5q1 -59 23 -85t71 -26q33 0 56 15t23 37q0 15 -9 28t-32.5 28.5t-67.5 36.5q-58 29 -84.5 60t-26.5 69q0 43 25 76t69.5 52t99.5 19q45 0 75.5 -8.5l30.5 -8.5l3 -7l-3.5 -18t-8 -46
t-7.5 -61l-46 -4l1 9t1 15q0 36 -18.5 52.5t-57.5 16.5q-31 0 -52 -14.5t-21 -35.5q0 -22 18.5 -40.5t60.5 -40.5q56 -27 87 -49.5t43.5 -44.5t12.5 -49q0 -40 -26 -73.5t-70 -53t-97 -19.5zM162 -235q-16 0 -32.5 4.5t-28 13.5t-11.5 21q0 11 10.5 29t19.5 30h9
q1 -28 15.5 -42t38.5 -14q19 0 31.5 9.5t12.5 24.5q0 12 -13 25t-32.5 25.5t-39.5 23.5l32 110h47l-23 -73q18 -10 38.5 -24.5t36 -31t15.5 -36.5q0 -26 -19 -47.5t-47.5 -34.5t-59.5 -13z" />
    <glyph glyph-name="Scaron" unicode="&#x160;" horiz-adv-x="534" 
d="M220 -12q-50 0 -87 9t-58 18l-21 9l-6 11l2 14.5t4.5 38t5 55t2.5 65.5l61 5q0 -64 10 -98.5t36.5 -47.5t75.5 -13q55 0 89.5 26t34.5 70q0 31 -22 53t-56 41t-72 38q-40 20 -77 44t-60.5 56t-23.5 77q0 56 32 99t87.5 68t126.5 25q47 0 83 -6t57 -13l21 -7l4 -9
l-4.5 -23t-9.5 -62t-9 -85l-54 -5l-8 6l1.5 12.5t1.5 32.5q0 49 -24.5 68.5t-85.5 19.5q-49 0 -81 -24.5t-32 -61.5q0 -28 19 -49.5t49.5 -39.5t65.5 -35q43 -21 85 -46t69.5 -57.5t27.5 -80.5q0 -59 -32.5 -103.5t-91 -69.5t-136.5 -25zM246 701l-13 11t-34.5 28
t-47.5 37.5t-51 39.5l18 30l12 3q35 -19 69.5 -36t54.5 -26q21 9 54.5 25.5t69.5 36.5l12 -3l18 -30q-25 -19 -51 -39.5t-47.5 -37.5t-34.5 -28l-13 -11h-16z" />
    <glyph glyph-name="scaron" unicode="&#x161;" horiz-adv-x="405" 
d="M170 -12q-37 0 -65.5 6t-44 12l-15.5 6l-4 8q2 13 4.5 37.5t5 51.5t2.5 44l44 5q1 -59 23 -85t71 -26q33 0 56 15t23 37q0 15 -9 28t-32.5 28.5t-67.5 36.5q-58 29 -84.5 60t-26.5 69q0 43 25 76t69.5 52t99.5 19q45 0 75.5 -8.5l30.5 -8.5l3 -7l-3.5 -18t-8 -46
t-7.5 -61l-46 -4l1 9t1 15q0 36 -18.5 52.5t-57.5 16.5q-31 0 -52 -14.5t-21 -35.5q0 -22 18.5 -40.5t60.5 -40.5q56 -27 87 -49.5t43.5 -44.5t12.5 -49q0 -40 -26 -73.5t-70 -53t-97 -19.5zM205 524l-12.5 14.5t-35 38t-48.5 51.5t-53 55l22 31l11 2q36 -30 69.5 -54.5
t55.5 -39.5q21 15 55 40t69 54l11 -2l23 -31q-27 -27 -53.5 -55t-48.5 -51.5t-35 -38l-13 -14.5h-17z" />
    <glyph glyph-name="uni0162" unicode="&#x162;" horiz-adv-x="556" 
d="M118 -5l8 53q46 4 67 12.5t27 31.5t6 71v420q-51 -1 -80 -5t-43.5 -16t-21 -37.5t-11.5 -69.5l-63 -5q4 32 6.5 66t4.5 67t3 59l10 9l90 -11h311l92 11l10 -9q1 -28 2.5 -61.5t4.5 -66t6 -59.5l-63 -5q-6 46 -13 72t-20.5 38.5t-40.5 16.5t-74 6q-3 -32 -5.5 -86
t-4 -118.5t-3 -131.5t-1.5 -125q0 -37 13 -52.5t43 -15.5q27 0 54 3l3 -5l-9 -56q-23 2 -53.5 2.5t-58.5 1t-46 0.5q-17 0 -43 -0.5t-54.5 -2t-52.5 -2.5zM250 -235q-16 0 -32.5 4.5t-28 13.5t-11.5 21q0 11 10.5 29t19.5 30h9q1 -28 15.5 -42t38.5 -14q19 0 31.5 9.5
t12.5 24.5q0 12 -13 25t-32.5 25.5t-39.5 23.5l32 110h47l-23 -73q18 -10 38.5 -24.5t36 -31t15.5 -36.5q0 -26 -19 -47.5t-47.5 -34.5t-59.5 -13z" />
    <glyph glyph-name="uni0163" unicode="&#x163;" horiz-adv-x="331" 
d="M206 -12q-69 0 -99.5 28.5t-30.5 93.5v236q0 28 -11.5 39t-44.5 12l-6 7l5 38q28 14 54 30.5t46.5 32t32 25.5l11.5 10l24 -10l-3 -21t-7 -60l134 3l4 -3l-10 -60l-132 3q-3 -45 -5 -104t-2 -131q0 -47 16.5 -67.5t55.5 -20.5q23 0 43.5 8.5l20.5 8.5l11 -29l-12.5 -10.5
t-31 -24t-36 -24t-27.5 -10.5zM153 -235q-16 0 -32.5 4.5t-28 13.5t-11.5 21q0 11 10.5 29t19.5 30h9q1 -28 15.5 -42t38.5 -14q19 0 31.5 9.5t12.5 24.5q0 12 -13 25t-32.5 25.5t-39.5 23.5l32 110h47l-23 -73q18 -10 38.5 -24.5t36 -31t15.5 -36.5q0 -26 -19 -47.5
t-47.5 -34.5t-59.5 -13z" />
    <glyph glyph-name="Tcaron" unicode="&#x164;" horiz-adv-x="556" 
d="M118 -5l8 53q46 4 67 12.5t27 31.5t6 71v420q-51 -1 -80 -5t-43.5 -16t-21 -37.5t-11.5 -69.5l-63 -5q4 32 6.5 66t4.5 67t3 59l10 9l90 -11h311l92 11l10 -9q1 -28 2.5 -61.5t4.5 -66t6 -59.5l-63 -5q-6 46 -13 72t-20.5 38.5t-40.5 16.5t-74 6q-3 -32 -5.5 -86
t-4 -118.5t-3 -131.5t-1.5 -125q0 -37 13 -52.5t43 -15.5q27 0 54 3l3 -5l-9 -56q-23 2 -53.5 2.5t-58.5 1t-46 0.5q-17 0 -43 -0.5t-54.5 -2t-52.5 -2.5zM273 701l-13 11t-34.5 28t-47.5 37.5t-51 39.5l18 30l12 3q35 -19 69.5 -36t54.5 -26q21 9 54.5 25.5t69.5 36.5
l12 -3l18 -30q-25 -19 -51 -39.5t-47.5 -37.5t-34.5 -28l-13 -11h-16z" />
    <glyph glyph-name="tcaron" unicode="&#x165;" horiz-adv-x="352" 
d="M254 500l-12 2q2 56 0 107t-4.5 83.5l-2.5 32.5l83 14l8 -9l-4.5 -31.5t-12.5 -81t-20 -101.5zM206 -12q-69 0 -99.5 28.5t-30.5 93.5v236q0 28 -11.5 39t-44.5 12l-6 7l5 38q28 14 54 30.5t46.5 32t32 25.5l11.5 10l24 -10l-3 -21t-7 -60l134 3l4 -3l-10 -60l-132 3
q-3 -45 -5 -104t-2 -131q0 -47 16.5 -67.5t55.5 -20.5q23 0 43.5 8.5l20.5 8.5l11 -29l-12.5 -10.5t-31 -24t-36 -24t-27.5 -10.5z" />
    <glyph glyph-name="Tbar" unicode="&#x166;" horiz-adv-x="556" 
d="M118 -5l8 53q46 4 67 12.5t27 31.5t6 71v420q-51 -1 -80 -5t-43.5 -16t-21 -37.5t-11.5 -69.5l-63 -5q4 32 6.5 66t4.5 67t3 59l10 9l90 -11h311l92 11l10 -9q1 -28 2.5 -61.5t4.5 -66t6 -59.5l-63 -5q-6 46 -13 72t-20.5 38.5t-40.5 16.5t-74 6q-3 -32 -5.5 -86
t-4 -118.5t-3 -131.5t-1.5 -125q0 -37 13 -52.5t43 -15.5q27 0 54 3l3 -5l-9 -56q-23 2 -53.5 2.5t-58.5 1t-46 0.5q-17 0 -43 -0.5t-54.5 -2t-52.5 -2.5zM114 282l-9 10l7 49h18.5t47.5 -0.5t60 -0.5h55q23 0 47.5 1t46.5 1.5t35.5 1.5l13.5 1l14 -15l-5 -46l-176 -1h-49.5
t-50.5 -0.5t-39.5 -0.5h-15.5z" />
    <glyph glyph-name="tbar" unicode="&#x167;" horiz-adv-x="342" 
d="M24 232l-10 10l8 43h14.5t37.5 -0.5t48.5 -0.5h48.5q24 0 50 1t44.5 2l18.5 1l14 -13l-5 -41l-144 -1h-57t-48.5 -0.5zM209 -12q-70 0 -100 28.5t-30 93.5v236q0 28 -11.5 39t-44.5 12l-6 7l5 38q28 14 54 30.5t46.5 32t32 25.5l11.5 10l24 -10l-3 -21t-7 -60l134 3l4 -3
l-10 -60l-133 3q-2 -45 -4 -104t-2 -131q0 -47 16.5 -67.5t55.5 -20.5q23 0 43.5 8.5l20.5 8.5l11 -29l-12.5 -10.5t-31 -24t-36 -24t-27.5 -10.5z" />
    <glyph glyph-name="Umacron" unicode="&#x16a;" horiz-adv-x="670" 
d="M322 -12q-109 0 -166.5 56t-57.5 163v326q0 32 -6.5 43t-28.5 11q-9 0 -21 -1l-12 -1l-2 4l7 53l22.5 -1t51.5 -1.5t53 -0.5q15 0 34.5 1.5t36.5 2.5t28.5 2.5l11.5 1.5l-6 -55q-34 -4 -46.5 -15.5t-13.5 -39.5l-8 -293q0 -89 38.5 -137t110.5 -48t110 39t38 114
q0 20 -0.5 58.5t-1.5 83.5t-1.5 85.5t-1 67l-0.5 26.5q-2 34 -8 44t-27 10q-9 0 -24 -1l-15 -1l-2 4l8 53l12 -0.5t30.5 -1t38 -1t33.5 -0.5q24 0 48.5 1.5t41.5 4l17 2.5l-5 -54q-40 -7 -52.5 -16.5t-12.5 -38.5v-325q0 -108 -65.5 -166.5t-186.5 -58.5zM202 714l-8 10
l12 58h15.5t39.5 -0.5t50.5 -0.5h48.5q25 0 54.5 1.5t51.5 3l22 1.5l7 -11l-9 -60l-142 -1h-62.5t-56.5 -0.5z" />
    <glyph glyph-name="umacron" unicode="&#x16b;" horiz-adv-x="543" 
d="M83 342q0 26 -8.5 39t-26.5 13q-9 0 -17.5 -1.5l-8.5 -1.5l5 46q27 4 55 9.5t52 10.5t39 8l15 3l7 -14q-5 -13 -9.5 -43t-8.5 -71t-6 -86.5t-2 -90.5q0 -90 72 -90q29 0 56 16.5t50 31.5v220q0 30 -10 41t-38 11q-3 0 -11.5 -0.5l-8.5 -0.5l5 46q30 4 59.5 9t54 9.5
t40 7.5l15.5 3l7 -14q-6 -15 -11.5 -65t-9 -121.5t-3.5 -149.5q0 -21 10.5 -32.5t27.5 -11.5q15 0 27 5.5t20 11l8 5.5l15 -18l-9 -13t-23.5 -30t-31 -30.5t-31.5 -15.5q-86 0 -95 79l-6 3q-44 -36 -79 -59t-48 -23q-69 0 -106 31t-37 90zM117 572l-8 10l12 58h15.5
t39.5 -0.5t50.5 -0.5h48.5q25 0 54.5 1.5t51.5 3l22 1.5l7 -11l-9 -60l-142 -1h-62.5t-56.5 -0.5z" />
    <glyph glyph-name="Ubreve" unicode="&#x16c;" horiz-adv-x="670" 
d="M322 -12q-109 0 -166.5 56t-57.5 163v326q0 32 -6.5 43t-28.5 11q-9 0 -21 -1l-12 -1l-2 4l7 53l22.5 -1t51.5 -1.5t53 -0.5q15 0 34.5 1.5t36.5 2.5t28.5 2.5l11.5 1.5l-6 -55q-34 -4 -46.5 -15.5t-13.5 -39.5l-8 -293q0 -89 38.5 -137t110.5 -48t110 39t38 114
q0 20 -0.5 58.5t-1.5 83.5t-1.5 85.5t-1 67l-0.5 26.5q-2 34 -8 44t-27 10q-9 0 -24 -1l-15 -1l-2 4l8 53l12 -0.5t30.5 -1t38 -1t33.5 -0.5q24 0 48.5 1.5t41.5 4l17 2.5l-5 -54q-40 -7 -52.5 -16.5t-12.5 -38.5v-325q0 -108 -65.5 -166.5t-186.5 -58.5zM333 709
q-37 0 -64 17t-43.5 44.5t-24.5 56.5l21 21l12 1q13 -33 40 -49.5t59 -16.5q33 0 59.5 16.5t39.5 49.5l12 -1l21 -21q-8 -29 -24.5 -56.5t-43 -44.5t-64.5 -17z" />
    <glyph glyph-name="ubreve" unicode="&#x16d;" horiz-adv-x="543" 
d="M83 342q0 26 -8.5 39t-26.5 13q-9 0 -17.5 -1.5l-8.5 -1.5l5 46q27 4 55 9.5t52 10.5t39 8l15 3l7 -14q-5 -13 -9.5 -43t-8.5 -71t-6 -86.5t-2 -90.5q0 -90 72 -90q29 0 56 16.5t50 31.5v220q0 30 -10 41t-38 11q-3 0 -11.5 -0.5l-8.5 -0.5l5 46q30 4 59.5 9t54 9.5
t40 7.5l15.5 3l7 -14q-6 -15 -11.5 -65t-9 -121.5t-3.5 -149.5q0 -21 10.5 -32.5t27.5 -11.5q15 0 27 5.5t20 11l8 5.5l15 -18l-9 -13t-23.5 -30t-31 -30.5t-31.5 -15.5q-86 0 -95 79l-6 3q-44 -36 -79 -59t-48 -23q-69 0 -106 31t-37 90zM272 534q-37 0 -64 17t-43.5 44.5
t-24.5 56.5l21 21l12 1q13 -33 40 -49.5t59 -16.5q33 0 59.5 16.5t39.5 49.5l12 -1l21 -21q-8 -29 -24.5 -56.5t-43 -44.5t-64.5 -17z" />
    <glyph glyph-name="Uring" unicode="&#x16e;" horiz-adv-x="670" 
d="M322 -12q-109 0 -166.5 56t-57.5 163v326q0 32 -6.5 43t-28.5 11q-9 0 -21 -1l-12 -1l-2 4l7 53l22.5 -1t51.5 -1.5t53 -0.5q15 0 34.5 1.5t36.5 2.5t28.5 2.5l11.5 1.5l-6 -55q-34 -4 -46.5 -15.5t-13.5 -39.5l-8 -293q0 -89 38.5 -137t110.5 -48t110 39t38 114
q0 20 -0.5 58.5t-1.5 83.5t-1.5 85.5t-1 67l-0.5 26.5q-2 34 -8 44t-27 10q-9 0 -24 -1l-15 -1l-2 4l8 53l12 -0.5t30.5 -1t38 -1t33.5 -0.5q24 0 48.5 1.5t41.5 4l17 2.5l-5 -54q-40 -7 -52.5 -16.5t-12.5 -38.5v-325q0 -108 -65.5 -166.5t-186.5 -58.5zM339 676
q-39 0 -60 23.5t-21 60.5q0 38 24.5 63.5t64.5 25.5q44 0 63 -25t19 -55q0 -36 -23 -64.5t-67 -28.5zM346 720q11 0 26.5 6.5t15.5 31.5q0 20 -12.5 32.5t-35.5 12.5q-21 0 -32 -10t-11 -27q0 -25 17 -35.5t32 -10.5z" />
    <glyph glyph-name="uring" unicode="&#x16f;" horiz-adv-x="543" 
d="M83 342q0 26 -8.5 39t-26.5 13q-9 0 -17.5 -1.5l-8.5 -1.5l5 46q27 4 55 9.5t52 10.5t39 8l15 3l7 -14q-5 -13 -9.5 -43t-8.5 -71t-6 -86.5t-2 -90.5q0 -90 72 -90q29 0 56 16.5t50 31.5v220q0 30 -10 41t-38 11q-3 0 -11.5 -0.5l-8.5 -0.5l5 46q30 4 59.5 9t54 9.5
t40 7.5l15.5 3l7 -14q-6 -15 -11.5 -65t-9 -121.5t-3.5 -149.5q0 -21 10.5 -32.5t27.5 -11.5q15 0 27 5.5t20 11l8 5.5l15 -18l-9 -13t-23.5 -30t-31 -30.5t-31.5 -15.5q-86 0 -95 79l-6 3q-44 -36 -79 -59t-48 -23q-69 0 -106 31t-37 90zM255 544q-37 0 -59 22.5t-22 61.5
q0 40 25 64.5t64 24.5q38 0 60 -21.5t22 -58.5q0 -41 -25.5 -67t-64.5 -26zM262 588q20 0 31 10t11 28q0 22 -13 33.5t-35 11.5q-43 0 -43 -37q0 -19 14 -32.5t35 -13.5z" />
    <glyph glyph-name="Uhungarumlaut" unicode="&#x170;" horiz-adv-x="670" 
d="M322 -12q-109 0 -166.5 56t-57.5 163v326q0 32 -6.5 43t-28.5 11q-9 0 -21 -1l-12 -1l-2 4l7 53l22.5 -1t51.5 -1.5t53 -0.5q15 0 34.5 1.5t36.5 2.5t28.5 2.5l11.5 1.5l-6 -55q-34 -4 -46.5 -15.5t-13.5 -39.5l-8 -293q0 -89 38.5 -137t110.5 -48t110 39t38 114
q0 20 -0.5 58.5t-1.5 83.5t-1.5 85.5t-1 67l-0.5 26.5q-2 34 -8 44t-27 10q-9 0 -24 -1l-15 -1l-2 4l8 53l12 -0.5t30.5 -1t38 -1t33.5 -0.5q24 0 48.5 1.5t41.5 4l17 2.5l-5 -54q-40 -7 -52.5 -16.5t-12.5 -38.5v-325q0 -108 -65.5 -166.5t-186.5 -58.5zM379 675l-10 4
l-15 26q36 30 71 59t58 47.5l23 18.5l10 -3l31 -50l-2 -11l-24 -12.5t-62 -33t-80 -45.5zM227 682l-10 5l-15 26q36 30 71 58.5t58 47.5l23 19l10 -3l31 -51l-2 -10l-24 -13t-62 -33.5t-80 -45.5z" />
    <glyph glyph-name="uhungarumlaut" unicode="&#x171;" horiz-adv-x="543" 
d="M83 342q0 26 -8.5 39t-26.5 13q-9 0 -17.5 -1.5l-8.5 -1.5l5 46q27 4 55 9.5t52 10.5t39 8l15 3l7 -14q-5 -13 -9.5 -43t-8.5 -71t-6 -86.5t-2 -90.5q0 -90 72 -90q29 0 56 16.5t50 31.5v220q0 30 -10 41t-38 11q-3 0 -11.5 -0.5l-8.5 -0.5l5 46q30 4 59.5 9t54 9.5
t40 7.5l15.5 3l7 -14q-6 -15 -11.5 -65t-9 -121.5t-3.5 -149.5q0 -21 10.5 -32.5t27.5 -11.5q15 0 27 5.5t20 11l8 5.5l15 -18l-9 -13t-23.5 -30t-31 -30.5t-31.5 -15.5q-86 0 -95 79l-6 3q-44 -36 -79 -59t-48 -23q-69 0 -106 31t-37 90zM463 660l-22 -18t-56.5 -46.5
t-73.5 -62.5l-11 1l-23 22q32 37 63 73.5t51 60.5l20 24l10 -1l43 -43zM328 660l-22 -18t-56.5 -46.5t-73.5 -62.5l-11 1l-23 22q32 37 62.5 73.5t51 60.5l20.5 24l10 -1l43 -43z" />
    <glyph glyph-name="Uogonek" unicode="&#x172;" horiz-adv-x="670" 
d="M436 -241q-52 0 -83 26t-31 70q0 18 8.5 37.5t28.5 45t54 61.5q-41 -11 -91 -11q-109 0 -166.5 56t-57.5 163v326q0 32 -6.5 43t-28.5 11q-9 0 -21 -1l-12 -1l-2 4l7 53l22.5 -1t51.5 -1.5t53 -0.5q15 0 34.5 1.5t36.5 2.5t28.5 2.5l11.5 1.5l-6 -55q-34 -4 -46.5 -15.5
t-13.5 -39.5l-8 -293q0 -89 38.5 -137t110.5 -48t110 39t38 114l-5 321q-2 34 -8 44t-27 10q-9 0 -24 -1l-15 -1l-2 4l8 53l12 -0.5t30.5 -1t38 -1t33.5 -0.5q24 0 48.5 1.5t41.5 4l17 2.5l-5 -54q-41 -8 -53 -17.5t-12 -37.5v-325q0 -50 -16.5 -91.5t-47.5 -77.5
q-44 -47 -68.5 -77.5t-34 -51.5t-9.5 -41q0 -21 14 -34t36 -13q18 0 34 5.5t27 11l13 6.5l17 -26q-5 -4 -20.5 -17t-37 -27t-45.5 -21z" />
    <glyph glyph-name="uogonek" unicode="&#x173;" horiz-adv-x="543" 
d="M27 437q27 4 55 9.5t52 10.5t39 8l15 3l7 -14q-5 -13 -9.5 -43.5t-8.5 -72t-6 -87t-2 -88.5q0 -90 72 -90q20 0 43 11t63 37v220q0 30 -10 40.5t-38 11.5q-3 0 -11.5 -0.5l-8.5 -0.5l5 46q30 4 59.5 9t54 9.5t40 7.5l15.5 3l7 -14q-6 -15 -11.5 -65t-9 -121.5
t-3.5 -149.5q0 -21 10.5 -32.5t27.5 -11.5q15 0 27 5.5t20 11l8 5.5l18 -22l-98 -85q-86 0 -95 79l-6 3q-46 -38 -80.5 -60t-46.5 -22q-69 0 -106 31t-37 90l5 233q0 27 -9 39.5t-26 12.5q-9 0 -17.5 -1.5l-8.5 -1.5zM453 -241q-52 0 -83 26t-31 70q0 22 13.5 47.5t45 62
t85.5 89.5l64 19q-43 -48 -69 -79.5t-40 -51.5t-18.5 -35.5t-4.5 -30.5q0 -21 14.5 -35t35.5 -14q18 0 34 5.5t27 11l13 6.5l17 -26q-5 -4 -20.5 -17t-37 -27t-45.5 -21z" />
    <glyph glyph-name="Wcircumflex" unicode="&#x174;" horiz-adv-x="946" 
d="M234 -16l-6.5 24t-18 66t-26.5 96t-32.5 115t-36 123t-36.5 119q-9 30 -28.5 44t-53.5 15q-1 1 -1.5 2.5t-1.5 2.5l7 51l21.5 -1t49.5 -1.5t46 -0.5q38 0 72.5 2.5t57.5 5l23 2.5l4 -8l-5 -48q-33 -2 -50.5 -6.5t-24 -12t-6.5 -20.5q0 -9 6 -37t15.5 -68t21.5 -86
t23.5 -90.5t21 -81t15 -58l5.5 -21.5h10q11 30 23.5 65.5t26 74.5t26.5 79.5t26 79.5t25 74q-3 13 -6 25.5t-7 24.5q-8 28 -27.5 39t-55.5 12l-4 5l8 51l13.5 -0.5t33.5 -1t41 -1t35 -0.5q33 0 68.5 2.5t60 5l24.5 2.5l4 -8l-5 -48q-33 -2 -50.5 -6t-24 -12t-6.5 -22
q0 -8 5.5 -35t15.5 -67.5t21.5 -86t23 -90t21.5 -81.5t16 -59l6 -22h9q10 27 24 67.5t30.5 88t32.5 95t29 89t21 70t8 35.5q0 18 -14 25t-47 7h-44l-4 5l8 51l22 -1.5t54.5 -3t64.5 -1.5q24 0 49 0.5t42 1.5l17 1l-7 -56q-26 -1 -37 -10.5t-22 -38.5l-195 -532l-104 -21
q-1 7 -10 42t-23.5 90t-33.5 123t-41 140h-8l-126 -374zM353 710l-12 2l-18 30q25 19 51 39.5t47.5 38t34.5 28.5l13 11h16l13 -10.5t34.5 -28t47.5 -38.5t51 -40l-18 -30l-12 -2q-35 19 -69 35.5t-55 26.5q-21 -10 -54.5 -26.5t-69.5 -35.5z" />
    <glyph glyph-name="wcircumflex" unicode="&#x175;" horiz-adv-x="720" 
d="M171 -16l-6 21.5t-16.5 57.5t-23 78t-25 85t-23 78t-17.5 55q-16 50 -64 51l-2 4l7 43h16t36 -0.5t33 -0.5q32 0 60.5 2t46.5 3.5l18 1.5l2 -5l-7 -43q-32 -1 -42.5 -6.5t-10.5 -19.5q0 -7 5.5 -31t14 -57.5t17.5 -68.5t17.5 -65.5t13.5 -50l5 -19.5h7l24 62t22.5 61
t20 55t17 45.5t11.5 33.5q-8 28 -21.5 41.5t-42.5 13.5l-3 5l7 43h16t36 -0.5t33 -0.5q32 0 60 1.5t46 3l18 1.5l2 -5l-7 -43q-33 -2 -43 -6.5t-10 -18.5q0 -6 5.5 -30t13.5 -57.5t17.5 -69t18 -66t13.5 -50l5 -19.5h7q32 84 55 144.5t35.5 97.5t12.5 48q0 13 -8 18t-29 5
h-32l-4 6l6 42l16 -0.5t39.5 -1t46.5 -0.5q18 0 38 0.5t34 0.5h14l-8 -47q-20 -3 -31 -15.5t-27 -52.5l-133 -342l-85 -16q-1 5 -8.5 32.5t-19.5 69t-25 87t-25 86.5h-8l-95 -259zM243 529l-12 2l-20 30q25 26 50.5 53t47 50t34 37l12.5 14h16l12.5 -14t34 -37t47 -50
t50.5 -53l-20 -30l-12 -2q-34 28 -67 52t-53 39q-21 -15 -53 -38.5t-67 -52.5z" />
    <glyph glyph-name="Ycircumflex" unicode="&#x176;" horiz-adv-x="564" 
d="M141 -11l6 55q37 6 55 16.5t23 30.5t5 55v38q0 28 -5.5 51t-23.5 58l-93 186q-18 36 -32 58.5t-33.5 34t-55.5 16.5l-2 4l7 50l12 -0.5t30.5 -1t39 -1t36.5 -0.5q20 0 45.5 1t49.5 3t39.5 3l15.5 1l4 -8l-5 -45q-40 -3 -54 -10t-14 -24q0 -8 9.5 -33t24 -57.5t29 -64.5
t25.5 -54.5t12 -25.5h7l99 192q15 29 15 49q0 12 -14 18.5t-44 8.5l-2 4l7 47q5 0 26.5 -1t48 -2.5t45.5 -1.5q22 0 44 1t37.5 2l15.5 1l4 -7l-7 -48q-31 -7 -50.5 -21t-35.5 -39t-41 -69l-98 -177q-9 -18 -13.5 -37.5t-5.5 -48t-1 -75.5q-1 -38 8.5 -52.5t36.5 -14.5
q16 0 32.5 1.5l16.5 1.5l3 -5l-9 -56l-15.5 1t-38.5 1.5t-47.5 1t-42.5 0.5q-20 0 -42.5 -2t-43 -4t-33 -3.5zM178 710l-12 2l-18 30q25 19 51 39.5t47.5 38t34.5 28.5l13 11h16l13 -10.5t34.5 -28t47.5 -38.5t51 -40l-18 -30l-12 -2q-35 19 -69 35.5t-55 26.5
q-21 -10 -54.5 -26.5t-69.5 -35.5z" />
    <glyph glyph-name="ycircumflex" unicode="&#x177;" horiz-adv-x="454" 
d="M43 -241q-5 0 -14.5 8t-19 19.5t-16.5 22.5t-7 17l6 10q61 2 109.5 45t82.5 115l-22.5 67.5t-27 78.5t-28.5 82t-27 77t-24 62q-10 25 -25.5 35t-38.5 11l-2 4l6 44h18t33.5 -0.5t29.5 -0.5q24 0 47.5 1t43 2.5t31.5 2.5l12 1l2 -5l-7 -43q-31 -1 -42 -6.5t-11 -18.5
q0 -9 6 -32.5t15 -55t19 -65t19 -62t15 -46.5l6 -18h6q17 40 35 85t33.5 86t26 70t10.5 36q0 13 -8 18.5t-27 5.5h-40l-2 4l7 44l16 -1t40 -2t48 -1q17 0 36 0.5t33.5 0.5h18.5l-7 -48q-22 -4 -33 -15t-21 -38l-127 -306q-35 -84 -63.5 -140.5t-55 -90t-54 -47.5t-61.5 -13z
M119 529l-12 2l-20 30q25 26 50.5 53t47 50t34 37l12.5 14h16l12.5 -14t34 -37t47 -50t50.5 -53l-20 -30l-12 -2q-34 28 -67 52t-53 39q-21 -15 -53 -38.5t-67 -52.5z" />
    <glyph glyph-name="Ydieresis" unicode="&#x178;" horiz-adv-x="564" 
d="M141 -11l6 55q37 6 55 16.5t23 30.5t5 55v38q0 28 -5.5 51t-23.5 58l-93 186q-18 36 -32 58.5t-33.5 34t-55.5 16.5l-2 4l7 50l12 -0.5t30.5 -1t39 -1t36.5 -0.5q20 0 45.5 1t49.5 3t39.5 3l15.5 1l4 -8l-5 -45q-40 -3 -54 -10t-14 -24q0 -8 9.5 -33t24 -57.5t29 -64.5
t25.5 -54.5t12 -25.5h7l99 192q15 29 15 49q0 12 -14 18.5t-44 8.5l-2 4l7 47q5 0 26.5 -1t48 -2.5t45.5 -1.5q22 0 44 1t37.5 2l15.5 1l4 -7l-7 -48q-31 -7 -50.5 -21t-35.5 -39t-41 -69l-98 -177q-9 -18 -13.5 -37.5t-5.5 -48t-1 -75.5q-1 -38 8.5 -52.5t36.5 -14.5
q16 0 32.5 1.5l16.5 1.5l3 -5l-9 -56l-15.5 1t-38.5 1.5t-47.5 1t-42.5 0.5q-20 0 -42.5 -2t-43 -4t-33 -3.5zM382 709q-24 0 -36.5 15t-12.5 35q0 25 16 41.5t41 16.5q24 0 36.5 -14.5t12.5 -36.5q0 -24 -15.5 -40.5t-41.5 -16.5zM211 709q-24 0 -36.5 15t-12.5 35
q0 25 15.5 41.5t41.5 16.5q24 0 36.5 -14.5t12.5 -36.5q0 -24 -16 -40.5t-41 -16.5z" />
    <glyph glyph-name="Zacute" unicode="&#x179;" horiz-adv-x="573" 
d="M46 -4l-18 38l363 549l-153 -7q-45 -3 -70.5 -16t-38 -40.5t-17.5 -76.5l-64 -5l2.5 18t6 49t6 67t3.5 70l10 9l176 -11l273 -5l14 -34q-68 -91 -128.5 -177t-110 -160t-84.5 -128.5t-52 -81.5l183 9q51 2 81 40.5t44 120.5l63 6l-3 -19.5t-7.5 -52t-8.5 -70t-5 -74.5
l-17 -17l-375 6zM246 701l-11 6l-9 34q38 18 75 37t67.5 34.5t49 25.5l18.5 10l10 -6l20 -60l-5 -11l-18 -6t-48.5 -15.5t-69.5 -22t-79 -26.5z" />
    <glyph glyph-name="zacute" unicode="&#x17a;" horiz-adv-x="459" 
d="M29 25l263 382l-110 -6q-33 -3 -52 -11.5t-27.5 -26.5t-11.5 -51l-45 -6l1.5 14.5t3.5 38t4 50.5t2 51l7 6l129 -8l219 -4l10 -25q-66 -86 -122.5 -164.5t-96 -135.5t-55.5 -82l129 9q42 4 64 32t31 88l46 5l-2.5 -16t-6 -41.5t-6 -55.5t-2.5 -58l-16 -16l-289 8l-54 -5z
M198 521l-11 3l-25 27q28 30 55.5 60.5t50.5 56t36.5 41.5l13.5 16l11 -2l46 -52l-1 -12l-25.5 -19t-66 -50.5t-84.5 -68.5z" />
    <glyph glyph-name="Zdotaccent" unicode="&#x17b;" horiz-adv-x="573" 
d="M46 -4l-18 38l363 549l-153 -7q-45 -3 -70.5 -16t-38 -40.5t-17.5 -76.5l-64 -5l2.5 18t6 49t6 67t3.5 70l10 9l176 -11l273 -5l14 -34q-68 -91 -128.5 -177t-110 -160t-84.5 -128.5t-52 -81.5l183 9q51 2 81 40.5t44 120.5l63 6l-3 -19.5t-7.5 -52t-8.5 -70t-5 -74.5
l-17 -17l-375 6zM296 703q-29 0 -43.5 18t-14.5 42q0 29 19 49t49 20q28 0 43 -17.5t15 -43.5q0 -28 -18.5 -48t-49.5 -20z" />
    <glyph glyph-name="zdotaccent" unicode="&#x17c;" horiz-adv-x="459" 
d="M29 25l263 382l-110 -6q-33 -3 -52 -11.5t-27.5 -26.5t-11.5 -51l-45 -6l1.5 14.5t3.5 38t4 50.5t2 51l7 6l129 -8l219 -4l10 -25q-66 -86 -122.5 -164.5t-96 -135.5t-55.5 -82l129 9q42 4 64 32t31 88l46 5l-2.5 -16t-6 -41.5t-6 -55.5t-2.5 -58l-16 -16l-289 8l-54 -5z
M232 571q-29 0 -43.5 18t-14.5 42q0 29 19 49t49 20q28 0 43 -17.5t15 -42.5q0 -29 -18.5 -49t-49.5 -20z" />
    <glyph glyph-name="Zcaron" unicode="&#x17d;" horiz-adv-x="573" 
d="M46 -4l-18 38l363 549l-153 -7q-45 -3 -70.5 -16t-38 -40.5t-17.5 -76.5l-64 -5l2.5 18t6 49t6 67t3.5 70l10 9l176 -11l273 -5l14 -34q-68 -91 -128.5 -177t-110 -160t-84.5 -128.5t-52 -81.5l183 9q51 2 81 40.5t44 120.5l63 6l-3 -19.5t-7.5 -52t-8.5 -70t-5 -74.5
l-17 -17l-375 6zM292 701l-13 11t-34.5 28t-47.5 37.5t-51 39.5l18 30l12 3q35 -19 69.5 -36t54.5 -26q21 9 54.5 25.5t69.5 36.5l12 -3l18 -30q-25 -19 -51 -39.5t-47.5 -37.5t-34.5 -28l-13 -11h-16z" />
    <glyph glyph-name="zcaron" unicode="&#x17e;" horiz-adv-x="459" 
d="M29 25l263 382l-110 -6q-33 -3 -52 -11.5t-27.5 -26.5t-11.5 -51l-45 -6l1.5 14.5t3.5 38t4 50.5t2 51l7 6l129 -8l219 -4l10 -25q-66 -86 -122.5 -164.5t-96 -135.5t-55.5 -82l129 9q42 4 64 32t31 88l46 5l-2.5 -16t-6 -41.5t-6 -55.5t-2.5 -58l-16 -16l-289 8l-54 -5z
M229 524l-12.5 14.5t-35 38t-48.5 51.5t-53 55l22 31l11 2q36 -30 69.5 -54.5t55.5 -39.5q21 15 55 40t69 54l11 -2l23 -31q-27 -27 -53.5 -55t-48.5 -51.5t-35 -38l-13 -14.5h-17z" />
    <glyph glyph-name="longs" unicode="&#x17f;" horiz-adv-x="295" 
d="M39 -5l6 49q29 4 43 18.5t14 39.5v254q-1 24 -13.5 32t-50.5 9l-4 6l7 41l61 11v6q0 87 29.5 149.5t83 97t126.5 34.5q29 0 61.5 -5.5t52.5 -14.5l4 -12q-7 -12 -16.5 -33.5t-16.5 -41.5l-12 -3q-20 16 -51 26.5t-59 10.5q-37 0 -60 -18t-35 -56t-13 -98l-5 -393
q0 -26 9 -38.5t31 -12.5q12 0 23.5 0.5t18.5 1.5l2 -4l-6 -54q-26 2 -57.5 2.5t-51.5 0.5q-26 0 -59.5 -1t-61.5 -4z" />
    <glyph glyph-name="uni018F" unicode="&#x18f;" horiz-adv-x="666" 
d="M299 -12q-84 0 -147 37.5t-98 106.5t-36 162l117 -10q11 -108 62 -169t130 -61q56 0 98 30t65.5 84.5t23.5 127.5q0 80 -27.5 138t-77.5 90t-118 32q-41 0 -93 -11.5t-95 -31.5l-9 2l-15 41q55 35 96.5 55t78 29t73.5 9q65 0 120.5 -23.5t97 -66t64 -101t22.5 -127.5
q0 -71 -24.5 -133.5t-70 -110t-106 -73.5t-131.5 -26zM35 252l-17 42l11 18h538v-50z" />
    <glyph glyph-name="florin" unicode="&#x192;" horiz-adv-x="397" 
d="M36 -160q-20 0 -39 5t-31.5 14t-12.5 18q0 11 3.5 27.5t9 32t10.5 20.5h13q9 -25 30.5 -44t47.5 -19q22 0 37 19t18 62q6 74 12.5 148.5t12.5 147.5q0 16 -4.5 23.5t-19 9.5t-45.5 2l-4 6l7 39l73 11l2 28q2 18 5 35t7 34q8 41 32.5 72.5t59.5 49t75 17.5q23 0 45 -4
t36.5 -11.5t14.5 -17.5t-3.5 -27.5t-8.5 -34t-10 -22.5l-14 -1q-15 26 -39.5 44t-51.5 18q-26 0 -38 -17t-16 -44t-7 -58l-5 -64q30 0 57.5 1t46 1.5t22.5 0.5l4 -4l-10 -56q-6 0 -42.5 0.5t-82.5 1.5l-17 -196q-2 -35 -6.5 -68t-11.5 -66q-7 -40 -31.5 -70t-59 -47
t-71.5 -17z" />
    <glyph glyph-name="Ohorn" unicode="&#x1a0;" horiz-adv-x="699" 
d="M316 -12q-85 0 -148 38.5t-98 109t-35 164.5q0 76 24 140t68.5 111.5t104.5 73.5t131 26q47 0 76.5 -8t51.5 -16.5t46 -8.5q28 0 46 13t18 35q0 39 -31 67l2 14q17 15 34 22.5t31 7.5q26 0 42 -22t16 -59q0 -33 -19 -61t-50 -43.5t-66 -15.5q43 -40 66.5 -100t23.5 -135
q0 -77 -25 -141.5t-69.5 -111.5t-105.5 -73.5t-134 -26.5zM345 54q57 0 98.5 29.5t65 83.5t23.5 127q0 88 -25 150.5t-69.5 96.5t-105.5 34q-55 0 -96 -29.5t-63.5 -83t-22.5 -126.5q0 -87 24 -150t68 -97.5t103 -34.5z" />
    <glyph glyph-name="ohorn" unicode="&#x1a1;" horiz-adv-x="524" 
d="M233 -12q-60 0 -105.5 28t-71 79t-25.5 118q0 74 30 131.5t81.5 90.5t114.5 33q33 0 57.5 -8t46 -16t43.5 -8q56 0 56 47q0 39 -31 67l2 14q11 9 22 15.5t21 9.5q8 2 15 3.5t14 0.5q23 -2 37 -24t14 -56q0 -32 -18.5 -59.5t-48.5 -43.5t-64 -17q22 -28 34 -66.5t12 -83.5
q0 -73 -30.5 -131t-83.5 -91t-122 -33zM258 49q49 0 77.5 40.5t28.5 113.5q0 61 -15 105.5t-43 68.5t-66 24q-49 0 -77.5 -41t-28.5 -114q0 -62 15.5 -106t43 -67.5t65.5 -23.5z" />
    <glyph glyph-name="Uhorn" unicode="&#x1af;" horiz-adv-x="686" 
d="M322 -12q-109 0 -166.5 56t-57.5 163v326q0 32 -6.5 43t-28.5 11q-9 0 -21 -1l-12 -1l-2 4l7 53l22.5 -1t51.5 -1.5t53 -0.5q15 0 34.5 1.5t36.5 2.5t28.5 2.5l11.5 1.5l-6 -55q-34 -4 -46.5 -15.5t-13.5 -39.5l-8 -293q0 -89 38.5 -137t110.5 -48t110 39t38 114
q0 20 -0.5 58.5t-1.5 83.5t-1.5 85.5t-1 67l-0.5 26.5q-2 34 -8 44t-27 10q-9 0 -24 -1l-15 -1l-2 4l8 53l12.5 -0.5t32 -1t41.5 -1t40 -0.5q45 0 45 39q0 31 -32 53l2 14q18 14 34 22t30 8q26 0 42 -17.5t16 -47.5q0 -42 -16.5 -65.5t-39.5 -36.5q-17 -9 -29.5 -17
t-19.5 -19.5t-7 -33.5v-325q0 -108 -65.5 -166.5t-186.5 -58.5z" />
    <glyph glyph-name="uhorn" unicode="&#x1b0;" horiz-adv-x="556" 
d="M83 342q0 26 -8.5 39t-26.5 13q-9 0 -17.5 -1.5l-8.5 -1.5l5 46q27 4 55 9.5t52 10.5t39 8l15 3l7 -14q-5 -13 -9.5 -43t-8.5 -71t-6 -86.5t-2 -90.5q0 -90 72 -90q29 0 56 16.5t50 31.5v220q0 30 -10 41t-38 11q-3 0 -11.5 -0.5l-8.5 -0.5l5 46l14 2t34 5.5t39 7t30 5.5
q27 4 43 15t16 33q0 38 -31 67l2 14q11 9 22 15t21 9q8 2 15 3.5t14 0.5q23 -2 37 -23.5t14 -55.5q0 -43 -30 -75t-73 -42q-4 -29 -7.5 -77t-5.5 -105.5t-2 -119.5q0 -21 10.5 -32.5t27.5 -11.5q15 0 27 5.5t20 11l8 5.5l15 -18l-9 -13t-23.5 -30t-31 -30.5t-31.5 -15.5
q-86 0 -95 79l-6 3q-44 -37 -79 -59.5t-48 -22.5q-69 0 -106 31t-37 90z" />
    <glyph glyph-name="uni01B7" unicode="&#x1b7;" horiz-adv-x="556" 
d="M235 -12q-35 0 -75 4.5t-85 13.5l-6 8q3 27 3.5 48t0.5 48.5t-2 73.5l9 8l56 3q-1 -72 29 -105.5t95 -33.5q64 0 98.5 30.5t34.5 93.5q0 68 -42.5 94.5t-131.5 22.5l-6 7l5 45l30 12q127 1 195.5 -43t68.5 -128q0 -61 -35 -107t-97.5 -70.5t-144.5 -24.5zM218 349
l225 261l-10 -56h-213q-31 0 -47.5 -8t-24 -30t-12.5 -67l-67 -3q6 33 10 84.5t5 109.5l10 9l166 -9l230 -1l16 -49l-220 -253z" />
    <glyph glyph-name="uni01C4" unicode="&#x1c4;" horiz-adv-x="1272" 
d="M317 -12l-15 2t-38 4t-48.5 4t-45.5 2q-25 0 -53 -3t-47.5 -5.5l-19.5 -2.5l6 55q45 9 60 26.5t15 59.5l1 402q0 32 -6.5 43t-27.5 11q-10 0 -22 -1l-12 -1l-4 6l8 52l12 -0.5t30.5 -1t38 -1t33.5 -0.5q17 0 43 0.5t51.5 1.5t43 1.5l17.5 0.5q100 0 173 -36.5t113.5 -104
t40.5 -158.5q0 -77 -26 -141.5t-73 -113t-110 -75t-138 -26.5zM275 578q-19 0 -25.5 -4t-7.5 -19q-6 -152 -10 -261t-4 -157q0 -32 9 -50t32.5 -25.5t66.5 -7.5q99 0 153.5 68.5t54.5 194.5q0 87 -30 145t-90 87t-149 29zM745 -4l-18 38l363 549l-153 -7q-45 -3 -70.5 -16
t-38 -40.5t-17.5 -76.5l-64 -5l2.5 18t6 49t6 67t3.5 70l10 9l176 -11l273 -5l14 -34q-68 -91 -128.5 -177t-110 -160t-84.5 -128.5t-52 -81.5l183 9q51 2 81 40.5t44 120.5l63 6l-3 -19.5t-7.5 -52t-8.5 -70t-5 -74.5l-17 -17l-375 6zM991 701l-13 11t-34.5 28t-47.5 37.5
t-51 39.5l18 30l12 3q35 -19 69.5 -36t54.5 -26q21 9 54.5 25.5t69.5 36.5l12 -3l18 -30q-25 -19 -51 -39.5t-47.5 -37.5t-34.5 -28l-13 -11h-16z" />
    <glyph glyph-name="uni01C5" unicode="&#x1c5;" horiz-adv-x="1158" 
d="M317 -12l-15 2t-38 4t-48.5 4t-45.5 2q-25 0 -53 -3t-47.5 -5.5l-19.5 -2.5l6 55q45 9 60 26.5t15 59.5l1 402q0 32 -6.5 43t-27.5 11q-10 0 -22 -1l-12 -1l-4 6l8 52l12 -0.5t30.5 -1t38 -1t33.5 -0.5q17 0 43 0.5t51.5 1.5t43 1.5l17.5 0.5q100 0 173 -36.5t113.5 -104
t40.5 -158.5q0 -77 -26 -141.5t-73 -113t-110 -75t-138 -26.5zM275 578q-19 0 -25.5 -4t-7.5 -19q-6 -152 -10 -261t-4 -157q0 -32 9 -50t32.5 -25.5t66.5 -7.5q99 0 153.5 68.5t54.5 194.5q0 87 -30 145t-90 87t-149 29zM728 25l263 382l-110 -6q-33 -3 -52 -11.5
t-27.5 -26.5t-11.5 -51l-45 -6l1.5 14.5t3.5 38t4 50.5t2 51l7 6l129 -8l219 -4l10 -25q-66 -86 -122.5 -164.5t-96 -135.5t-55.5 -82l129 9q42 4 64 32t31 88l46 5l-2.5 -16t-6 -41.5t-6 -55.5t-2.5 -58l-16 -16l-289 8l-54 -5zM928 524l-12.5 14.5t-35 38t-48.5 51.5
t-53 55l22 31l11 2q36 -30 69.5 -54.5t55.5 -39.5q21 15 55 40t69 54l11 -2l23 -31q-27 -27 -53.5 -55t-48.5 -51.5t-35 -38l-13 -14.5h-17z" />
    <glyph glyph-name="uni01C6" unicode="&#x1c6;" horiz-adv-x="996" 
d="M445 -12q-83 0 -94 71l-7 3q-50 -35 -80 -53t-41 -18q-57 0 -100.5 27t-67.5 75t-24 113q0 74 33 133t90.5 93.5t127.5 34.5q13 0 28 -1t33 -2v149q0 29 -9 42t-30 13q-8 0 -16.5 -2l-8.5 -2l5 47q30 4 60 9t55.5 10.5t40 8.5l14.5 3l8 -15q-5 -7 -9 -43.5t-8 -96.5
t-7 -135t-4.5 -160.5t-1.5 -174.5q0 -21 10 -32.5t27 -11.5q15 0 27 5.5t19.5 11l7.5 5.5l15 -19l-7.5 -11t-20 -27t-29.5 -30t-36 -20zM248 69q17 0 33.5 6.5t30.5 15.5t22.5 15.5l8.5 6.5v264l-23.5 10.5t-63.5 10.5q-58 0 -91.5 -41.5t-33.5 -115.5q0 -49 15.5 -88.5
t42 -61.5t59.5 -22zM566 25l263 382l-110 -6q-33 -3 -52 -11.5t-27.5 -26.5t-11.5 -51l-45 -6l1.5 14.5t3.5 38t4 50.5t2 51l7 6l129 -8l219 -4l10 -25q-66 -86 -122.5 -164.5t-96 -135.5t-55.5 -82l129 9q42 4 64 32t31 88l46 5l-2.5 -16t-6 -41.5t-6 -55.5t-2.5 -58
l-16 -16l-289 8l-54 -5zM766 524l-12.5 14.5t-35 38t-48.5 51.5t-53 55l22 31l11 2q36 -30 69.5 -54.5t55.5 -39.5q21 15 55 40t69 54l11 -2l23 -31q-27 -27 -53.5 -55t-48.5 -51.5t-35 -38l-13 -14.5h-17z" />
    </font>
</defs>
</svg>
